<svg xmlns="http://www.w3.org/2000/svg" xmlns:xlink="http://www.w3.org/1999/xlink" width="1080" zoomAndPan="magnify" viewBox="0 0 810 809.999993" height="1080" preserveAspectRatio="xMidYMid meet" version="1.2"><defs><clipPath id="1f9ecce36f"><path d="M 23.914062 23.914062 L 785.914062 23.914062 L 785.914062 785.914062 L 23.914062 785.914062 Z M 23.914062 23.914062 "/></clipPath></defs><g id="4097be41f2"><g clip-rule="nonzero" clip-path="url(#1f9ecce36f)"><path style=" stroke:none;fill-rule:nonzero;fill:#fffffe;fill-opacity:1;" d="M 404.914062 23.914062 C 398.679688 23.914062 392.449219 24.070312 386.222656 24.375 C 379.992188 24.679688 373.777344 25.140625 367.570312 25.75 C 361.367188 26.363281 355.179688 27.125 349.011719 28.039062 C 342.84375 28.953125 336.703125 30.019531 330.585938 31.238281 C 324.472656 32.453125 318.390625 33.820312 312.339844 35.335938 C 306.292969 36.847656 300.285156 38.511719 294.316406 40.320312 C 288.351562 42.132812 282.433594 44.085938 276.5625 46.1875 C 270.691406 48.289062 264.875 50.53125 259.113281 52.917969 C 253.351562 55.304688 247.652344 57.832031 242.015625 60.496094 C 236.378906 63.160156 230.8125 65.964844 225.3125 68.902344 C 219.816406 71.84375 214.390625 74.914062 209.042969 78.121094 C 203.695312 81.328125 198.429688 84.660156 193.242188 88.125 C 188.058594 91.589844 182.960938 95.179688 177.953125 98.894531 C 172.945312 102.609375 168.03125 106.441406 163.210938 110.398438 C 158.390625 114.355469 153.671875 118.425781 149.050781 122.613281 C 144.433594 126.800781 139.917969 131.097656 135.507812 135.507812 C 131.097656 139.917969 126.800781 144.433594 122.613281 149.050781 C 118.425781 153.671875 114.355469 158.390625 110.398438 163.210938 C 106.441406 168.03125 102.609375 172.945312 98.894531 177.953125 C 95.179688 182.960938 91.589844 188.058594 88.125 193.242188 C 84.660156 198.429688 81.328125 203.695312 78.121094 209.042969 C 74.914062 214.390625 71.84375 219.816406 68.902344 225.3125 C 65.964844 230.8125 63.160156 236.378906 60.496094 242.015625 C 57.832031 247.652344 55.304688 253.351562 52.917969 259.113281 C 50.53125 264.875 48.289062 270.691406 46.1875 276.5625 C 44.085938 282.433594 42.132812 288.351562 40.320312 294.316406 C 38.511719 300.285156 36.847656 306.292969 35.335938 312.339844 C 33.820312 318.390625 32.453125 324.472656 31.238281 330.585938 C 30.019531 336.703125 28.953125 342.84375 28.039062 349.011719 C 27.125 355.179688 26.363281 361.367188 25.75 367.570312 C 25.140625 373.777344 24.679688 379.992188 24.375 386.222656 C 24.070312 392.449219 23.914062 398.679688 23.914062 404.917969 C 23.914062 411.152344 24.070312 417.382812 24.375 423.609375 C 24.679688 429.839844 25.140625 436.054688 25.75 442.261719 C 26.363281 448.464844 27.125 454.652344 28.039062 460.820312 C 28.953125 466.988281 30.019531 473.128906 31.238281 479.246094 C 32.453125 485.359375 33.820312 491.441406 35.335938 497.492188 C 36.847656 503.539062 38.511719 509.546875 40.320312 515.515625 C 42.132812 521.480469 44.085938 527.398438 46.1875 533.269531 C 48.289062 539.140625 50.53125 544.957031 52.917969 550.71875 C 55.304688 556.480469 57.832031 562.179688 60.496094 567.8125 C 63.160156 573.449219 65.964844 579.019531 68.902344 584.519531 C 71.84375 590.015625 74.914062 595.441406 78.121094 600.789062 C 81.328125 606.136719 84.660156 611.402344 88.125 616.589844 C 91.589844 621.773438 95.179688 626.871094 98.894531 631.878906 C 102.609375 636.886719 106.441406 641.800781 110.398438 646.621094 C 114.355469 651.441406 118.425781 656.160156 122.613281 660.78125 C 126.800781 665.398438 131.097656 669.914062 135.507812 674.324219 C 139.917969 678.734375 144.433594 683.03125 149.050781 687.21875 C 153.671875 691.40625 158.390625 695.476562 163.210938 699.433594 C 168.03125 703.386719 172.945312 707.222656 177.953125 710.9375 C 182.960938 714.652344 188.058594 718.242188 193.242188 721.707031 C 198.429688 725.171875 203.695312 728.503906 209.042969 731.710938 C 214.390625 734.917969 219.816406 737.988281 225.3125 740.929688 C 230.8125 743.867188 236.378906 746.671875 242.015625 749.335938 C 247.652344 752 253.351562 754.527344 259.113281 756.914062 C 264.875 759.300781 270.691406 761.542969 276.5625 763.644531 C 282.433594 765.746094 288.351562 767.699219 294.316406 769.511719 C 300.285156 771.320312 306.292969 772.984375 312.339844 774.496094 C 318.390625 776.011719 324.472656 777.378906 330.585938 778.59375 C 336.703125 779.8125 342.84375 780.878906 349.011719 781.792969 C 355.179688 782.707031 361.367188 783.46875 367.570312 784.082031 C 373.777344 784.691406 379.992188 785.152344 386.222656 785.457031 C 392.449219 785.761719 398.679688 785.914062 404.914062 785.917969 C 411.152344 785.914062 417.382812 785.761719 423.609375 785.457031 C 429.839844 785.152344 436.054688 784.691406 442.261719 784.082031 C 448.464844 783.46875 454.652344 782.707031 460.820312 781.792969 C 466.988281 780.878906 473.128906 779.8125 479.246094 778.59375 C 485.359375 777.378906 491.441406 776.011719 497.492188 774.496094 C 503.539062 772.984375 509.546875 771.320312 515.515625 769.511719 C 521.480469 767.699219 527.398438 765.746094 533.269531 763.644531 C 539.140625 761.542969 544.957031 759.300781 550.71875 756.914062 C 556.480469 754.527344 562.179688 752 567.8125 749.335938 C 573.449219 746.671875 579.019531 743.867188 584.519531 740.929688 C 590.015625 737.988281 595.441406 734.917969 600.789062 731.710938 C 606.136719 728.503906 611.402344 725.171875 616.589844 721.707031 C 621.773438 718.242188 626.871094 714.652344 631.878906 710.9375 C 636.886719 707.222656 641.800781 703.386719 646.621094 699.433594 C 651.441406 695.476562 656.160156 691.40625 660.78125 687.21875 C 665.398438 683.03125 669.914062 678.734375 674.324219 674.324219 C 678.734375 669.914062 683.03125 665.398438 687.21875 660.78125 C 691.40625 656.160156 695.476562 651.441406 699.433594 646.621094 C 703.386719 641.800781 707.222656 636.886719 710.9375 631.878906 C 714.652344 626.871094 718.242188 621.773438 721.707031 616.589844 C 725.171875 611.402344 728.503906 606.136719 731.710938 600.789062 C 734.917969 595.441406 737.988281 590.015625 740.929688 584.519531 C 743.867188 579.019531 746.671875 573.449219 749.335938 567.816406 C 752 562.179688 754.527344 556.480469 756.914062 550.71875 C 759.300781 544.957031 761.542969 539.140625 763.644531 533.269531 C 765.746094 527.398438 767.699219 521.480469 769.511719 515.515625 C 771.320312 509.546875 772.984375 503.539062 774.496094 497.492188 C 776.011719 491.441406 777.378906 485.359375 778.59375 479.246094 C 779.8125 473.128906 780.878906 466.988281 781.792969 460.820312 C 782.707031 454.652344 783.46875 448.464844 784.082031 442.261719 C 784.691406 436.054688 785.152344 429.839844 785.457031 423.609375 C 785.761719 417.382812 785.914062 411.152344 785.917969 404.917969 C 785.910156 398.683594 785.75 392.453125 785.4375 386.226562 C 785.125 380 784.660156 373.789062 784.042969 367.585938 C 783.425781 361.382812 782.65625 355.199219 781.738281 349.03125 C 780.816406 342.867188 779.746094 336.730469 778.523438 330.617188 C 777.304688 324.503906 775.933594 318.425781 774.414062 312.378906 C 772.894531 306.332031 771.226562 300.328125 769.414062 294.363281 C 767.601562 288.402344 765.640625 282.484375 763.539062 276.617188 C 761.433594 270.75 759.1875 264.9375 756.800781 259.179688 C 754.410156 253.421875 751.882812 247.726562 749.214844 242.09375 C 746.546875 236.460938 743.742188 230.894531 740.800781 225.398438 C 737.863281 219.902344 734.789062 214.480469 731.582031 209.136719 C 728.375 203.789062 725.039062 198.527344 721.574219 193.34375 C 718.109375 188.164062 714.519531 183.070312 710.804688 178.0625 C 707.09375 173.058594 703.257812 168.144531 699.300781 163.328125 C 695.347656 158.507812 691.277344 153.789062 687.089844 149.171875 C 682.902344 144.554688 678.605469 140.042969 674.199219 135.632812 C 669.792969 131.226562 665.277344 126.929688 660.660156 122.742188 C 656.042969 118.554688 651.324219 114.484375 646.503906 110.53125 C 641.6875 106.574219 636.773438 102.738281 631.769531 99.027344 C 626.761719 95.3125 621.667969 91.722656 616.488281 88.257812 C 611.304688 84.792969 606.042969 81.457031 600.695312 78.25 C 595.351562 75.042969 589.929688 71.96875 584.433594 69.03125 C 578.9375 66.089844 573.371094 63.285156 567.738281 60.617188 C 562.105469 57.949219 556.410156 55.421875 550.652344 53.03125 C 544.894531 50.644531 539.082031 48.398438 533.214844 46.292969 C 527.347656 44.191406 521.429688 42.230469 515.464844 40.417969 C 509.503906 38.605469 503.5 36.9375 497.453125 35.417969 C 491.40625 33.898438 485.328125 32.527344 479.214844 31.308594 C 473.101562 30.085938 466.964844 29.015625 460.800781 28.09375 C 454.632812 27.175781 448.449219 26.40625 442.246094 25.789062 C 436.042969 25.171875 429.832031 24.707031 423.605469 24.394531 C 417.378906 24.082031 411.148438 23.921875 404.914062 23.914062 Z M 404.914062 731.488281 C 399.570312 731.488281 394.230469 731.355469 388.890625 731.09375 C 383.554688 730.832031 378.226562 730.4375 372.90625 729.914062 C 367.585938 729.390625 362.285156 728.738281 356.996094 727.953125 C 351.710938 727.167969 346.445312 726.253906 341.203125 725.210938 C 335.964844 724.167969 330.75 723 325.566406 721.699219 C 320.382812 720.402344 315.230469 718.976562 310.117188 717.425781 C 305.003906 715.875 299.929688 714.199219 294.898438 712.398438 C 289.863281 710.597656 284.878906 708.675781 279.941406 706.628906 C 275.003906 704.582031 270.121094 702.417969 265.289062 700.132812 C 260.457031 697.847656 255.683594 695.445312 250.972656 692.925781 C 246.257812 690.40625 241.609375 687.773438 237.023438 685.027344 C 232.441406 682.277344 227.925781 679.417969 223.484375 676.449219 C 219.039062 673.480469 214.671875 670.40625 210.378906 667.21875 C 206.085938 664.035156 201.871094 660.75 197.742188 657.359375 C 193.609375 653.96875 189.5625 650.480469 185.605469 646.890625 C 181.644531 643.300781 177.773438 639.617188 173.996094 635.835938 C 170.214844 632.058594 166.53125 628.1875 162.941406 624.226562 C 159.351562 620.269531 155.863281 616.222656 152.472656 612.089844 C 149.082031 607.960938 145.796875 603.746094 142.613281 599.453125 C 139.425781 595.160156 136.351562 590.792969 133.382812 586.347656 C 130.414062 581.90625 127.554688 577.390625 124.804688 572.808594 C 122.058594 568.222656 119.425781 563.574219 116.90625 558.859375 C 114.386719 554.148438 111.984375 549.375 109.699219 544.542969 C 107.414062 539.710938 105.25 534.828125 103.203125 529.890625 C 101.15625 524.953125 99.234375 519.964844 97.433594 514.933594 C 95.632812 509.902344 93.957031 504.828125 92.40625 499.714844 C 90.855469 494.601562 89.429688 489.449219 88.132812 484.265625 C 86.832031 479.082031 85.664062 473.867188 84.621094 468.625 C 83.578125 463.386719 82.664062 458.121094 81.878906 452.835938 C 81.09375 447.546875 80.441406 442.246094 79.917969 436.925781 C 79.394531 431.605469 79 426.277344 78.738281 420.941406 C 78.476562 415.601562 78.34375 410.261719 78.34375 404.917969 C 78.34375 399.570312 78.476562 394.230469 78.738281 388.890625 C 79 383.554688 79.394531 378.226562 79.917969 372.90625 C 80.441406 367.585938 81.09375 362.285156 81.878906 356.996094 C 82.664062 351.710938 83.578125 346.445312 84.621094 341.203125 C 85.664062 335.964844 86.832031 330.75 88.132812 325.566406 C 89.429688 320.382812 90.855469 315.230469 92.40625 310.117188 C 93.957031 305.003906 95.632812 299.929688 97.433594 294.898438 C 99.234375 289.863281 101.15625 284.878906 103.203125 279.941406 C 105.25 275.003906 107.414062 270.121094 109.699219 265.289062 C 111.984375 260.457031 114.386719 255.683594 116.90625 250.972656 C 119.425781 246.257812 122.058594 241.609375 124.804688 237.023438 C 127.554688 232.441406 130.414062 227.925781 133.382812 223.484375 C 136.351562 219.039062 139.425781 214.671875 142.613281 210.378906 C 145.796875 206.085938 149.082031 201.871094 152.472656 197.742188 C 155.863281 193.609375 159.351562 189.5625 162.941406 185.605469 C 166.53125 181.644531 170.214844 177.773438 173.996094 173.996094 C 177.773438 170.214844 181.644531 166.53125 185.605469 162.941406 C 189.5625 159.351562 193.609375 155.863281 197.742188 152.472656 C 201.871094 149.082031 206.085938 145.796875 210.378906 142.613281 C 214.671875 139.425781 219.039062 136.351562 223.484375 133.382812 C 227.925781 130.414062 232.441406 127.554688 237.023438 124.804688 C 241.609375 122.058594 246.257812 119.425781 250.972656 116.90625 C 255.683594 114.386719 260.457031 111.984375 265.289062 109.699219 C 270.121094 107.414062 275.003906 105.25 279.941406 103.203125 C 284.878906 101.15625 289.863281 99.234375 294.898438 97.433594 C 299.929688 95.632812 305.003906 93.957031 310.117188 92.40625 C 315.230469 90.855469 320.382812 89.429688 325.566406 88.132812 C 330.75 86.832031 335.964844 85.664062 341.203125 84.621094 C 346.445312 83.578125 351.710938 82.664062 356.996094 81.878906 C 362.285156 81.09375 367.585938 80.441406 372.90625 79.917969 C 378.226562 79.394531 383.554688 79 388.890625 78.738281 C 394.230469 78.476562 399.570312 78.34375 404.914062 78.34375 C 410.261719 78.34375 415.601562 78.476562 420.941406 78.738281 C 426.277344 79 431.605469 79.394531 436.925781 79.917969 C 442.246094 80.441406 447.546875 81.09375 452.832031 81.878906 C 458.121094 82.664062 463.386719 83.578125 468.625 84.621094 C 473.867188 85.664062 479.082031 86.832031 484.265625 88.132812 C 489.449219 89.429688 494.601562 90.855469 499.714844 92.40625 C 504.828125 93.957031 509.902344 95.632812 514.933594 97.433594 C 519.964844 99.234375 524.953125 101.15625 529.890625 103.203125 C 534.828125 105.25 539.710938 107.414062 544.542969 109.699219 C 549.375 111.984375 554.148438 114.386719 558.859375 116.90625 C 563.574219 119.425781 568.222656 122.058594 572.808594 124.804688 C 577.390625 127.554688 581.90625 130.414062 586.347656 133.382812 C 590.792969 136.351562 595.160156 139.425781 599.453125 142.613281 C 603.746094 145.796875 607.960938 149.082031 612.089844 152.472656 C 616.222656 155.863281 620.269531 159.351562 624.226562 162.941406 C 628.1875 166.53125 632.058594 170.214844 635.835938 173.996094 C 639.617188 177.773438 643.300781 181.644531 646.890625 185.605469 C 650.480469 189.5625 653.96875 193.609375 657.359375 197.742188 C 660.75 201.871094 664.035156 206.085938 667.21875 210.378906 C 670.40625 214.671875 673.480469 219.039062 676.449219 223.484375 C 679.417969 227.925781 682.277344 232.441406 685.027344 237.023438 C 687.773438 241.609375 690.40625 246.257812 692.925781 250.972656 C 695.445312 255.683594 697.847656 260.457031 700.132812 265.289062 C 702.417969 270.121094 704.582031 275.003906 706.628906 279.941406 C 708.675781 284.878906 710.597656 289.863281 712.398438 294.898438 C 714.199219 299.929688 715.875 305.003906 717.425781 310.117188 C 718.976562 315.230469 720.402344 320.382812 721.699219 325.566406 C 723 330.75 724.167969 335.964844 725.210938 341.203125 C 726.253906 346.445312 727.167969 351.710938 727.953125 356.996094 C 728.738281 362.285156 729.390625 367.585938 729.914062 372.90625 C 730.4375 378.226562 730.832031 383.554688 731.09375 388.890625 C 731.355469 394.230469 731.488281 399.570312 731.488281 404.917969 C 731.480469 410.257812 731.34375 415.597656 731.078125 420.933594 C 730.808594 426.269531 730.410156 431.597656 729.882812 436.914062 C 729.351562 442.230469 728.691406 447.53125 727.902344 452.816406 C 727.117188 458.101562 726.199219 463.363281 725.152344 468.601562 C 724.105469 473.839844 722.929688 479.050781 721.625 484.234375 C 720.324219 489.414062 718.894531 494.5625 717.339844 499.671875 C 715.785156 504.785156 714.109375 509.855469 712.304688 514.886719 C 710.5 519.914062 708.578125 524.894531 706.527344 529.832031 C 704.480469 534.765625 702.3125 539.648438 700.027344 544.476562 C 697.742188 549.304688 695.335938 554.074219 692.816406 558.785156 C 690.296875 563.496094 687.660156 568.144531 684.914062 572.726562 C 682.164062 577.308594 679.304688 581.820312 676.335938 586.261719 C 673.367188 590.703125 670.289062 595.070312 667.105469 599.359375 C 663.921875 603.652344 660.636719 607.859375 657.246094 611.992188 C 653.855469 616.121094 650.367188 620.164062 646.777344 624.121094 C 643.1875 628.082031 639.503906 631.949219 635.726562 635.726562 C 631.949219 639.503906 628.082031 643.1875 624.121094 646.777344 C 620.164062 650.367188 616.121094 653.855469 611.988281 657.246094 C 607.859375 660.636719 603.652344 663.921875 599.359375 667.105469 C 595.070312 670.289062 590.703125 673.367188 586.261719 676.335938 C 581.820312 679.304688 577.308594 682.164062 572.726562 684.914062 C 568.144531 687.660156 563.496094 690.296875 558.785156 692.816406 C 554.074219 695.335938 549.304688 697.742188 544.476562 700.027344 C 539.648438 702.3125 534.765625 704.480469 529.832031 706.527344 C 524.894531 708.578125 519.914062 710.5 514.882812 712.304688 C 509.855469 714.109375 504.785156 715.785156 499.671875 717.339844 C 494.5625 718.894531 489.414062 720.324219 484.234375 721.625 C 479.050781 722.929688 473.839844 724.105469 468.601562 725.152344 C 463.363281 726.199219 458.101562 727.117188 452.816406 727.902344 C 447.53125 728.691406 442.230469 729.351562 436.914062 729.882812 C 431.597656 730.410156 426.269531 730.808594 420.933594 731.078125 C 415.597656 731.34375 410.257812 731.480469 404.914062 731.488281 Z M 404.914062 731.488281 "/></g><path style=" stroke:none;fill-rule:nonzero;fill:#fffffe;fill-opacity:1;" d="M 543.191406 382.761719 L 352.691406 246.691406 C 351.96875 246.171875 351.21875 245.691406 350.445312 245.246094 C 349.671875 244.800781 348.878906 244.394531 348.066406 244.027344 C 347.253906 243.660156 346.425781 243.335938 345.582031 243.050781 C 344.734375 242.765625 343.878906 242.519531 343.011719 242.320312 C 342.140625 242.117188 341.265625 241.960938 340.382812 241.84375 C 339.496094 241.730469 338.609375 241.65625 337.71875 241.628906 C 336.828125 241.601562 335.9375 241.617188 335.046875 241.675781 C 334.15625 241.738281 333.269531 241.839844 332.390625 241.988281 C 331.511719 242.132812 330.640625 242.324219 329.78125 242.554688 C 328.917969 242.789062 328.070312 243.0625 327.238281 243.375 C 326.402344 243.691406 325.585938 244.046875 324.789062 244.441406 C 323.988281 244.839844 323.210938 245.273438 322.453125 245.746094 C 321.699219 246.21875 320.964844 246.726562 320.261719 247.269531 C 319.554688 247.8125 318.875 248.390625 318.226562 249 C 317.574219 249.613281 316.957031 250.253906 316.371094 250.925781 C 315.785156 251.597656 315.230469 252.296875 314.714844 253.019531 C 314.195312 253.746094 313.714844 254.496094 313.269531 255.269531 C 312.824219 256.042969 312.417969 256.835938 312.054688 257.648438 C 311.6875 258.460938 311.359375 259.292969 311.074219 260.136719 C 310.789062 260.980469 310.546875 261.839844 310.347656 262.707031 C 310.148438 263.574219 309.988281 264.453125 309.875 265.335938 C 309.761719 266.222656 309.6875 267.109375 309.660156 268 C 309.632812 268.890625 309.652344 269.78125 309.710938 270.671875 C 309.769531 271.5625 309.875 272.445312 310.023438 273.328125 C 310.167969 274.207031 310.359375 275.074219 310.59375 275.9375 C 310.824219 276.796875 311.097656 277.644531 311.414062 278.480469 C 311.730469 279.3125 312.085938 280.128906 312.484375 280.929688 C 312.878906 281.726562 313.316406 282.503906 313.789062 283.261719 C 314.261719 284.015625 314.769531 284.75 315.3125 285.453125 C 315.859375 286.160156 316.4375 286.839844 317.046875 287.488281 C 317.65625 288.136719 318.300781 288.753906 318.972656 289.339844 C 319.644531 289.925781 320.34375 290.480469 321.070312 290.996094 L 480.550781 404.917969 L 321.070312 518.835938 C 320.34375 519.351562 319.644531 519.90625 318.972656 520.492188 C 318.300781 521.078125 317.660156 521.695312 317.050781 522.34375 C 316.441406 522.996094 315.863281 523.671875 315.320312 524.378906 C 314.777344 525.085938 314.265625 525.816406 313.796875 526.574219 C 313.324219 527.328125 312.890625 528.105469 312.492188 528.90625 C 312.097656 529.703125 311.742188 530.519531 311.425781 531.351562 C 311.113281 532.1875 310.835938 533.035156 310.605469 533.894531 C 310.375 534.753906 310.183594 535.625 310.035156 536.503906 C 309.890625 537.382812 309.785156 538.269531 309.726562 539.15625 C 309.667969 540.046875 309.652344 540.9375 309.679688 541.828125 C 309.707031 542.71875 309.777344 543.605469 309.890625 544.488281 C 310.007812 545.375 310.164062 546.25 310.363281 547.117188 C 310.566406 547.988281 310.808594 548.84375 311.09375 549.6875 C 311.378906 550.53125 311.703125 551.359375 312.070312 552.175781 C 312.4375 552.988281 312.84375 553.777344 313.285156 554.550781 C 313.730469 555.324219 314.210938 556.074219 314.730469 556.800781 C 315.25 557.523438 315.800781 558.222656 316.386719 558.894531 C 316.972656 559.566406 317.589844 560.207031 318.242188 560.816406 C 318.890625 561.425781 319.566406 562.003906 320.273438 562.546875 C 320.980469 563.09375 321.710938 563.601562 322.46875 564.074219 C 323.222656 564.542969 324 564.980469 324.800781 565.375 C 325.597656 565.769531 326.414062 566.125 327.25 566.441406 C 328.082031 566.757812 328.929688 567.03125 329.789062 567.261719 C 330.652344 567.496094 331.519531 567.683594 332.398438 567.832031 C 333.277344 567.976562 334.164062 568.082031 335.050781 568.140625 C 335.941406 568.199219 336.832031 568.21875 337.722656 568.191406 C 338.613281 568.164062 339.5 568.089844 340.386719 567.976562 C 341.269531 567.863281 342.144531 567.703125 343.015625 567.503906 C 343.882812 567.300781 344.738281 567.058594 345.582031 566.773438 C 346.429688 566.488281 347.257812 566.164062 348.070312 565.796875 C 348.882812 565.429688 349.675781 565.023438 350.445312 564.582031 C 351.21875 564.136719 351.96875 563.65625 352.695312 563.136719 L 543.195312 427.066406 C 543.632812 426.753906 544.0625 426.425781 544.480469 426.089844 C 544.902344 425.75 545.3125 425.398438 545.710938 425.035156 C 546.109375 424.671875 546.496094 424.296875 546.871094 423.910156 C 547.246094 423.523438 547.613281 423.128906 547.964844 422.71875 C 548.316406 422.3125 548.660156 421.894531 548.984375 421.464844 C 549.3125 421.039062 549.628906 420.601562 549.929688 420.152344 C 550.234375 419.707031 550.519531 419.25 550.796875 418.785156 C 551.070312 418.324219 551.332031 417.851562 551.578125 417.371094 C 551.824219 416.890625 552.058594 416.40625 552.273438 415.914062 C 552.492188 415.417969 552.695312 414.921875 552.882812 414.414062 C 553.074219 413.910156 553.246094 413.398438 553.402344 412.882812 C 553.5625 412.367188 553.703125 411.847656 553.832031 411.324219 C 553.957031 410.800781 554.070312 410.273438 554.164062 409.742188 C 554.261719 409.210938 554.339844 408.675781 554.402344 408.140625 C 554.46875 407.605469 554.515625 407.070312 554.546875 406.53125 C 554.578125 405.992188 554.597656 405.453125 554.597656 404.914062 C 554.597656 404.375 554.578125 403.835938 554.546875 403.296875 C 554.515625 402.761719 554.46875 402.222656 554.402344 401.6875 C 554.339844 401.152344 554.261719 400.621094 554.164062 400.089844 C 554.070312 399.558594 553.957031 399.03125 553.832031 398.507812 C 553.703125 397.980469 553.5625 397.460938 553.402344 396.945312 C 553.246094 396.429688 553.074219 395.921875 552.882812 395.414062 C 552.695312 394.910156 552.492188 394.410156 552.277344 393.917969 C 552.058594 393.425781 551.824219 392.9375 551.578125 392.457031 C 551.332031 391.980469 551.070312 391.507812 550.796875 391.042969 C 550.519531 390.578125 550.234375 390.125 549.929688 389.675781 C 549.628906 389.230469 549.3125 388.792969 548.984375 388.363281 C 548.660156 387.9375 548.316406 387.519531 547.964844 387.109375 C 547.613281 386.703125 547.246094 386.304688 546.871094 385.917969 C 546.496094 385.53125 546.109375 385.160156 545.710938 384.796875 C 545.3125 384.433594 544.902344 384.082031 544.480469 383.742188 C 544.0625 383.402344 543.632812 383.078125 543.195312 382.761719 Z M 543.191406 382.761719 "/></g></svg>