<svg xmlns="http://www.w3.org/2000/svg" xmlns:xlink="http://www.w3.org/1999/xlink" width="1080" zoomAndPan="magnify" viewBox="0 0 810 809.999993" height="1080" preserveAspectRatio="xMidYMid meet" version="1.2"><defs><clipPath id="3f59fe17ce"><path d="M 90 17.398438 L 792.898438 17.398438 L 792.898438 721 L 90 721 Z M 90 17.398438 "/></clipPath><clipPath id="f3d01a5fbd"><path d="M 313 700 L 406 700 L 406 792.898438 L 313 792.898438 Z M 313 700 "/></clipPath></defs><g id="0e24cfbc9d"><g clip-rule="nonzero" clip-path="url(#3f59fe17ce)"><path style=" stroke:none;fill-rule:nonzero;fill:#ffffff;fill-opacity:1;" d="M 777.433594 17.828125 C 731.382812 17.828125 677.816406 27.828125 621.796875 46.574219 C 621.753906 46.589844 621.722656 46.574219 621.679688 46.589844 C 621.648438 46.605469 621.632812 46.621094 621.605469 46.636719 C 617.066406 48.152344 612.527344 49.625 607.960938 51.261719 C 607.515625 51.425781 607.050781 51.621094 606.605469 51.84375 C 595.296875 55.921875 584.183594 60.339844 573.234375 64.953125 C 573.171875 64.964844 573.113281 65.011719 573.054688 65.027344 C 505.144531 93.625 444.84375 131.726562 404.175781 172.394531 L 324.960938 251.609375 L 258.871094 251.609375 C 227.058594 251.609375 197.152344 264.003906 174.640625 286.5 L 95.289062 365.847656 C 90.988281 370.148438 89.738281 376.636719 92.136719 382.230469 C 94.472656 387.707031 99.871094 391.246094 105.808594 391.246094 C 105.929688 391.246094 106.046875 391.246094 106.167969 391.246094 L 232.578125 388.199219 C 226.523438 421.332031 230.183594 455.761719 244.363281 486.757812 C 201.332031 530.933594 168.242188 589.199219 195.203125 616.160156 C 201.957031 622.929688 210.691406 625.90625 220.691406 625.90625 C 250.566406 625.90625 291.617188 599.136719 324.738281 566.835938 C 346.179688 576.609375 369.167969 581.683594 392.347656 581.683594 C 402.660156 581.683594 412.972656 580.628906 423.179688 578.769531 L 420.128906 705.210938 C 419.980469 711.292969 423.550781 716.84375 429.144531 719.242188 C 431.035156 720.042969 433.027344 720.445312 435.007812 720.445312 C 438.875 720.445312 442.683594 718.929688 445.527344 716.085938 L 524.875 636.734375 C 547.371094 614.222656 559.765625 584.316406 559.765625 552.507812 L 559.765625 486.371094 L 638.386719 407.660156 C 679.335938 366.832031 717.558594 306.140625 746.125 237.757812 C 746.125 237.742188 746.140625 237.742188 746.140625 237.726562 C 750.917969 226.300781 755.484375 214.722656 759.679688 202.925781 C 761.242188 198.535156 762.640625 194.191406 764.101562 189.832031 C 764.160156 189.710938 764.25 189.609375 764.308594 189.488281 C 764.382812 189.308594 764.339844 189.117188 764.414062 188.921875 C 783.128906 132.679688 792.964844 78.894531 792.726562 32.632812 C 792.652344 24.4375 785.617188 17.828125 777.433594 17.828125 Z M 240.878906 358.230469 L 142.621094 360.597656 L 195.664062 307.539062 C 212.550781 290.664062 234.988281 281.367188 258.855469 281.367188 L 295.1875 281.367188 L 281.292969 295.261719 C 263.019531 313.566406 249.527344 335.183594 240.878906 358.230469 Z M 297.035156 443.339844 C 287.304688 449.542969 277.410156 456.820312 267.601562 465.121094 C 258.40625 440.082031 257.070312 412.835938 263.140625 386.800781 C 271.917969 408.179688 285.53125 428.402344 297.035156 443.339844 Z M 306.792969 542.851562 C 259.925781 589.734375 221.179688 600.042969 216.242188 595.121094 C 211.332031 590.195312 221.65625 551.421875 268.527344 504.566406 C 289.222656 483.871094 311.390625 467.429688 330.929688 458.277344 C 342.445312 452.890625 350.332031 451.433594 354.792969 451.433594 C 357.191406 451.433594 358.601562 451.851562 359.066406 452.3125 C 360.375 453.621094 361.386719 462.726562 353.097656 480.449219 C 343.933594 500 327.476562 522.152344 306.792969 542.851562 Z M 346.238281 543.757812 C 354.554688 533.9375 361.863281 524.011719 368.066406 514.253906 C 383.257812 525.902344 403.628906 539.398438 425.1875 548.074219 C 398.984375 554.292969 371.488281 552.996094 346.238281 543.757812 Z M 529.996094 552.492188 C 529.996094 576.355469 520.695312 598.792969 503.820312 615.683594 L 450.777344 668.742188 L 453.160156 570.390625 C 476.238281 561.746094 497.886719 548.296875 516.1875 529.996094 L 530.007812 516.15625 L 530.007812 552.492188 Z M 617.335938 386.605469 L 495.132812 508.941406 C 489.746094 514.328125 484.003906 519.191406 478.007812 523.597656 C 477.976562 523.609375 477.933594 523.609375 477.902344 523.640625 C 460.136719 533.90625 422.449219 519.3125 382.320312 487.515625 C 395.25 456.417969 388.570312 439.722656 380.089844 431.257812 C 371.636719 422.777344 354.941406 416.066406 323.785156 429.054688 C 293.777344 391.320312 278.746094 355.046875 285.816406 336.105469 C 290.695312 329.144531 296.171875 322.476562 302.347656 316.300781 L 341.625 277.023438 C 341.640625 277.007812 341.640625 277.007812 341.65625 276.992188 L 425.214844 193.433594 C 459.453125 159.195312 509 126.757812 565.480469 100.855469 C 571.445312 130.03125 590.449219 162.46875 619.550781 191.542969 C 648.652344 220.601562 681.105469 239.527344 710.269531 245.449219 C 684.378906 302.359375 651.824219 352.207031 617.335938 386.605469 Z M 722.277344 217.402344 C 698.066406 214.605469 667.222656 197.078125 640.589844 170.488281 C 613.941406 143.882812 596.355469 112.953125 593.527344 88.800781 C 600.757812 85.886719 608.050781 83.042969 615.429688 80.367188 C 615.414062 80.574219 615.472656 80.769531 615.460938 80.960938 C 614.730469 95.972656 627.183594 125.390625 656.375 154.582031 C 685.734375 183.9375 715.296875 196.304688 730.371094 195.484375 C 730.457031 195.484375 730.5625 195.5 730.652344 195.5 C 727.988281 202.878906 725.175781 210.171875 722.277344 217.402344 Z M 740.175781 166.335938 C 736.367188 165.875 732.527344 165.546875 728.660156 165.773438 C 723.75 166.398438 702.261719 158.363281 677.339844 133.441406 C 652.6875 108.800781 645.15625 87.375 645.1875 82.582031 C 645.425781 78.59375 645.128906 74.636719 644.636719 70.695312 C 686.371094 57.78125 727.082031 49.730469 762.640625 47.976562 C 761.019531 83.503906 753.058594 124.394531 740.175781 166.335938 Z M 740.175781 166.335938 "/></g><path style=" stroke:none;fill-rule:nonzero;fill:#ffffff;fill-opacity:1;" d="M 506.128906 205.914062 C 479.152344 205.914062 453.800781 216.417969 434.738281 235.480469 C 415.664062 254.539062 405.175781 279.894531 405.175781 306.867188 C 405.175781 333.84375 415.664062 359.199219 434.738281 378.257812 C 453.800781 397.332031 479.152344 407.824219 506.128906 407.824219 C 533.105469 407.824219 558.457031 397.320312 577.519531 378.257812 C 596.59375 359.183594 607.082031 333.84375 607.082031 306.867188 C 607.082031 279.894531 596.59375 254.539062 577.519531 235.480469 C 558.457031 216.417969 533.105469 205.914062 506.128906 205.914062 Z M 556.480469 357.234375 C 543.042969 370.683594 525.160156 378.078125 506.128906 378.078125 C 487.097656 378.078125 469.230469 370.671875 455.777344 357.234375 C 442.328125 343.785156 434.933594 325.914062 434.933594 306.882812 C 434.933594 287.867188 442.328125 269.984375 455.777344 256.535156 C 469.214844 243.082031 487.097656 235.6875 506.128906 235.6875 C 525.160156 235.6875 543.027344 243.097656 556.480469 256.535156 C 569.929688 269.984375 577.324219 287.855469 577.324219 306.882812 C 577.324219 325.898438 569.929688 343.785156 556.480469 357.234375 Z M 556.480469 357.234375 "/><path style=" stroke:none;fill-rule:nonzero;fill:#ffffff;fill-opacity:1;" d="M 44.164062 493.003906 L 106.359375 430.8125 C 112.175781 424.992188 112.175781 415.589844 106.359375 409.773438 C 100.542969 403.953125 91.136719 403.953125 85.320312 409.773438 L 23.125 471.964844 C 17.308594 477.785156 17.308594 487.1875 23.125 493.003906 C 26.027344 495.90625 29.835938 497.363281 33.644531 497.363281 C 37.457031 497.363281 41.265625 495.90625 44.164062 493.003906 Z M 44.164062 493.003906 "/><path style=" stroke:none;fill-rule:nonzero;fill:#ffffff;fill-opacity:1;" d="M 182.703125 628.242188 C 176.886719 622.421875 167.484375 622.421875 161.664062 628.242188 L 65.414062 724.476562 C 59.59375 730.296875 59.59375 739.699219 65.414062 745.515625 C 68.3125 748.417969 72.125 749.875 75.933594 749.875 C 79.742188 749.875 83.550781 748.417969 86.453125 745.515625 L 182.703125 649.277344 C 188.507812 643.476562 188.507812 634.058594 182.703125 628.242188 Z M 182.703125 628.242188 "/><path style=" stroke:none;fill-rule:nonzero;fill:#ffffff;fill-opacity:1;" d="M 139.183594 518.0625 C 133.363281 512.242188 123.960938 512.242188 118.144531 518.0625 L 36.679688 599.523438 C 30.863281 605.339844 30.863281 614.746094 36.679688 620.5625 C 39.582031 623.464844 43.390625 624.921875 47.199219 624.921875 C 51.011719 624.921875 54.820312 623.464844 57.71875 620.5625 L 139.183594 539.101562 C 145 533.296875 145 523.878906 139.183594 518.0625 Z M 139.183594 518.0625 "/><g clip-rule="nonzero" clip-path="url(#f3d01a5fbd)"><path style=" stroke:none;fill-rule:nonzero;fill:#ffffff;fill-opacity:1;" d="M 380.132812 704.585938 L 317.9375 766.777344 C 312.121094 772.597656 312.121094 782 317.9375 787.816406 C 320.839844 790.71875 324.648438 792.175781 328.457031 792.175781 C 332.265625 792.175781 336.078125 790.71875 338.976562 787.816406 L 401.171875 725.625 C 406.988281 719.804688 406.988281 710.402344 401.171875 704.585938 C 395.355469 698.765625 385.949219 698.765625 380.132812 704.585938 Z M 380.132812 704.585938 "/></g><path style=" stroke:none;fill-rule:nonzero;fill:#ffffff;fill-opacity:1;" d="M 271.84375 671.761719 L 190.382812 753.222656 C 184.5625 759.042969 184.5625 768.445312 190.382812 774.261719 C 193.28125 777.164062 197.09375 778.621094 200.902344 778.621094 C 204.710938 778.621094 208.519531 777.164062 211.421875 774.261719 L 292.882812 692.800781 C 298.699219 686.984375 298.699219 677.578125 292.882812 671.761719 C 287.066406 665.945312 277.660156 665.945312 271.84375 671.761719 Z M 271.84375 671.761719 "/></g></svg>