<svg xmlns="http://www.w3.org/2000/svg" xmlns:xlink="http://www.w3.org/1999/xlink" width="1080" zoomAndPan="magnify" viewBox="0 0 810 809.999993" height="1080" preserveAspectRatio="xMidYMid meet" version="1.2"><defs><clipPath id="cc291c6ae5"><path d="M 21 26.863281 L 789 26.863281 L 789 782.863281 L 21 782.863281 Z M 21 26.863281 "/></clipPath></defs><g id="63990bb3a6"><g clip-rule="nonzero" clip-path="url(#cc291c6ae5)"><path style=" stroke:none;fill-rule:nonzero;fill:#ffffff;fill-opacity:1;" d="M 58.429688 251.464844 L 237.21875 251.464844 C 242.429688 251.464844 247.441406 249.28125 250.972656 245.480469 C 254.5 241.675781 256.304688 236.515625 255.914062 231.320312 C 255.914062 231.320312 255.914062 231.320312 255.914062 231.316406 C 252.796875 189.796875 226.078125 154.945312 189.613281 139.542969 C 203.265625 127.777344 211.933594 110.382812 211.933594 90.988281 C 211.933594 55.636719 183.175781 26.878906 147.824219 26.878906 C 112.476562 26.878906 83.714844 55.636719 83.714844 90.988281 C 83.714844 110.378906 92.382812 127.773438 106.035156 139.539062 C 69.570312 154.945312 42.851562 189.796875 39.734375 231.316406 C 39.34375 236.511719 41.144531 241.671875 44.675781 245.476562 C 48.207031 249.28125 53.21875 251.464844 58.429688 251.464844 Z M 107.761719 90.988281 C 107.761719 68.898438 125.734375 50.925781 147.824219 50.925781 C 169.914062 50.925781 187.886719 68.898438 187.886719 90.988281 C 187.886719 113.078125 169.914062 131.050781 147.824219 131.050781 C 125.734375 131.050781 107.761719 113.078125 107.761719 90.988281 Z M 147.824219 155.097656 C 189.78125 155.097656 225.398438 186.425781 231.308594 227.417969 L 64.335938 227.417969 C 70.246094 186.425781 105.867188 155.097656 147.824219 155.097656 Z M 564.039062 244.957031 C 563.648438 250.152344 565.449219 255.3125 568.980469 259.117188 C 572.511719 262.921875 577.523438 265.105469 582.730469 265.105469 L 761.519531 265.105469 C 766.730469 265.105469 771.742188 262.921875 775.273438 259.117188 C 778.800781 255.3125 780.605469 250.152344 780.214844 244.957031 C 777.097656 203.4375 750.382812 168.585938 713.917969 153.179688 C 727.566406 141.417969 736.234375 124.023438 736.234375 104.628906 C 736.234375 69.28125 707.476562 40.523438 672.125 40.523438 C 636.777344 40.523438 608.019531 69.28125 608.019531 104.628906 C 608.019531 124.019531 616.6875 141.414062 630.335938 153.179688 C 593.871094 168.582031 567.152344 203.433594 564.039062 244.957031 Z M 632.066406 104.628906 C 632.066406 82.539062 650.039062 64.570312 672.125 64.570312 C 694.214844 64.570312 712.1875 82.539062 712.1875 104.628906 C 712.1875 126.714844 694.214844 144.6875 672.125 144.6875 C 650.039062 144.6875 632.066406 126.71875 632.066406 104.628906 Z M 672.125 168.734375 C 714.085938 168.734375 749.703125 200.066406 755.613281 241.058594 L 588.640625 241.058594 C 594.550781 200.066406 630.167969 168.734375 672.125 168.734375 Z M 255.914062 747.320312 C 252.796875 705.800781 226.078125 670.945312 189.613281 655.542969 C 203.265625 643.777344 211.929688 626.382812 211.929688 606.992188 C 211.929688 571.640625 183.171875 542.882812 147.824219 542.882812 C 112.472656 542.882812 83.714844 571.644531 83.714844 606.992188 C 83.714844 626.382812 92.382812 643.777344 106.03125 655.542969 C 69.566406 670.945312 42.851562 705.796875 39.734375 747.320312 C 39.34375 752.511719 41.144531 757.675781 44.675781 761.480469 C 48.207031 765.285156 53.21875 767.464844 58.425781 767.464844 L 237.21875 767.464844 C 242.425781 767.464844 247.4375 765.285156 250.96875 761.480469 C 254.5 757.679688 256.300781 752.515625 255.914062 747.320312 Z M 107.761719 606.992188 C 107.761719 584.902344 125.734375 566.929688 147.824219 566.929688 C 169.914062 566.929688 187.886719 584.902344 187.886719 606.992188 C 187.886719 629.070312 169.929688 647.035156 147.851562 647.050781 C 147.84375 647.050781 147.832031 647.050781 147.824219 647.050781 C 147.8125 647.050781 147.804688 647.050781 147.792969 647.050781 C 125.71875 647.035156 107.761719 629.070312 107.761719 606.992188 Z M 64.339844 743.421875 C 70.246094 702.4375 105.847656 671.113281 147.792969 671.097656 C 147.804688 671.097656 147.8125 671.097656 147.824219 671.097656 C 147.832031 671.097656 147.84375 671.097656 147.851562 671.097656 C 189.800781 671.113281 225.398438 702.4375 231.308594 743.421875 Z M 713.917969 655.542969 C 727.566406 643.777344 736.234375 626.382812 736.234375 606.992188 C 736.234375 571.640625 707.476562 542.882812 672.125 542.882812 C 636.777344 542.882812 608.019531 571.644531 608.019531 606.992188 C 608.019531 626.382812 616.6875 643.777344 630.335938 655.542969 C 593.871094 670.945312 567.152344 705.800781 564.039062 747.320312 C 563.648438 752.511719 565.449219 757.675781 568.980469 761.480469 C 572.507812 765.285156 577.523438 767.464844 582.730469 767.464844 L 761.519531 767.464844 C 766.730469 767.464844 771.742188 765.285156 775.273438 761.480469 C 778.800781 757.675781 780.601562 752.515625 780.214844 747.320312 C 777.101562 705.800781 750.382812 670.945312 713.917969 655.542969 Z M 632.066406 606.992188 C 632.066406 584.902344 650.039062 566.929688 672.125 566.929688 C 694.214844 566.929688 712.1875 584.902344 712.1875 606.992188 C 712.1875 629.070312 694.234375 647.035156 672.15625 647.050781 C 672.144531 647.050781 672.136719 647.050781 672.125 647.050781 C 672.113281 647.050781 672.105469 647.050781 672.09375 647.050781 C 650.019531 647.035156 632.066406 629.070312 632.066406 606.992188 Z M 588.640625 743.421875 C 594.550781 702.4375 630.152344 671.113281 672.097656 671.097656 C 672.105469 671.097656 672.117188 671.097656 672.125 671.097656 C 672.136719 671.097656 672.144531 671.097656 672.15625 671.097656 C 714.101562 671.113281 749.703125 702.4375 755.613281 743.421875 Z M 545.269531 729.226562 C 547.570312 735.457031 544.382812 742.371094 538.152344 744.667969 C 497.152344 759.796875 454.027344 767.464844 409.976562 767.464844 C 378.007812 767.464844 346.515625 763.410156 315.96875 755.410156 L 321.921875 763.957031 C 325.714844 769.40625 324.371094 776.902344 318.921875 780.695312 C 316.828125 782.152344 314.433594 782.851562 312.0625 782.851562 C 308.261719 782.851562 304.519531 781.054688 302.183594 777.695312 L 276.101562 740.226562 C 274.089844 737.335938 273.445312 733.707031 274.34375 730.296875 C 275.242188 726.890625 277.585938 724.046875 280.761719 722.519531 L 321.910156 702.75 C 327.898438 699.875 335.078125 702.394531 337.953125 708.378906 C 340.828125 714.363281 338.308594 721.546875 332.324219 724.421875 L 318.335938 731.144531 C 348.058594 739.289062 378.769531 743.421875 409.972656 743.421875 C 451.175781 743.421875 491.5 736.253906 529.828125 722.109375 C 536.058594 719.816406 542.972656 723 545.269531 729.226562 Z M 232.183594 85.835938 C 229.082031 79.964844 231.328125 72.6875 237.195312 69.585938 C 290.0625 41.648438 349.808594 26.878906 409.976562 26.878906 C 459.019531 26.878906 507.75 36.691406 552.734375 55.449219 L 548.011719 46.132812 C 545.007812 40.210938 547.375 32.972656 553.300781 29.972656 C 559.222656 26.96875 566.460938 29.339844 569.457031 35.261719 L 590.097656 75.984375 C 591.691406 79.128906 591.824219 82.8125 590.464844 86.0625 C 589.101562 89.3125 586.382812 91.800781 583.027344 92.871094 L 539.535156 106.753906 C 538.320312 107.140625 537.089844 107.324219 535.878906 107.324219 C 530.785156 107.324219 526.058594 104.066406 524.425781 98.953125 C 522.410156 92.628906 525.898438 85.863281 532.226562 83.84375 L 546.949219 79.144531 C 503.929688 60.644531 457.117188 50.925781 409.972656 50.925781 C 353.707031 50.925781 297.847656 64.730469 248.429688 90.847656 C 242.558594 93.949219 235.285156 91.703125 232.183594 85.835938 Z M 39.683594 397.171875 C 39.683594 368.855469 42.878906 340.871094 49.171875 313.589844 L 40.792969 319.789062 C 35.457031 323.738281 27.925781 322.613281 23.976562 317.277344 C 20.027344 311.941406 21.152344 304.410156 26.488281 300.460938 L 63.1875 273.304688 C 66.015625 271.210938 69.628906 270.460938 73.058594 271.257812 C 76.492188 272.054688 79.402344 274.320312 81.019531 277.449219 L 101.976562 318.003906 C 105.023438 323.90625 102.714844 331.160156 96.816406 334.207031 C 95.050781 335.117188 93.164062 335.550781 91.308594 335.550781 C 86.953125 335.550781 82.753906 333.179688 80.613281 329.046875 L 73.484375 315.246094 C 67.007812 341.9375 63.726562 369.382812 63.726562 397.171875 C 63.726562 444.6875 73.195312 490.746094 91.859375 534.066406 C 94.488281 540.164062 91.675781 547.238281 85.578125 549.867188 C 84.027344 550.53125 82.414062 550.851562 80.824219 550.851562 C 76.167969 550.851562 71.738281 548.128906 69.777344 543.582031 C 49.808594 497.242188 39.683594 447.980469 39.683594 397.171875 Z M 782.257812 530.671875 L 743.09375 554.136719 C 741.207031 555.269531 739.066406 555.847656 736.914062 555.847656 C 735.621094 555.847656 734.324219 555.636719 733.070312 555.214844 C 729.730469 554.085938 727.054688 551.550781 725.75 548.28125 L 708.828125 505.878906 C 706.367188 499.710938 709.375 492.71875 715.539062 490.257812 C 721.707031 487.796875 728.699219 490.796875 731.164062 496.96875 L 736.914062 511.382812 C 749.722656 474.792969 756.222656 436.484375 756.222656 397.171875 C 756.222656 364.15625 751.5625 331.449219 742.371094 299.964844 C 740.507812 293.589844 744.167969 286.914062 750.539062 285.050781 C 756.917969 283.199219 763.59375 286.851562 765.453125 293.226562 C 775.285156 326.898438 780.269531 361.875 780.269531 397.171875 C 780.269531 437.804688 773.773438 477.445312 760.964844 515.398438 L 769.898438 510.042969 C 775.59375 506.628906 782.976562 508.480469 786.390625 514.175781 C 789.804688 519.875 787.953125 527.257812 782.257812 530.671875 Z M 615.714844 532.539062 C 617.128906 532.539062 618.566406 532.398438 620.007812 532.113281 L 669.839844 522.1875 C 681.703125 519.824219 689.433594 508.25 687.070312 496.382812 L 648.347656 302.003906 C 647.203125 296.265625 643.886719 291.3125 639.007812 288.054688 C 634.128906 284.792969 628.28125 283.628906 622.542969 284.769531 L 572.710938 294.699219 C 566.972656 295.839844 562.019531 299.160156 558.757812 304.039062 C 555.589844 308.789062 554.417969 314.453125 555.410156 320.039062 C 526.914062 328.90625 492.476562 330.378906 449.898438 295.253906 C 428.078125 277.25 399.59375 276.695312 379.023438 293.871094 L 359.765625 309.949219 L 253.734375 309.949219 C 251.472656 302.417969 245.238281 296.339844 237.007812 294.699219 L 187.175781 284.773438 C 181.4375 283.628906 175.589844 284.796875 170.710938 288.054688 C 165.828125 291.3125 162.511719 296.269531 161.371094 302.003906 L 122.648438 496.382812 C 120.28125 508.25 128.011719 519.824219 139.878906 522.1875 L 189.710938 532.113281 C 191.152344 532.402344 192.585938 532.539062 194.003906 532.539062 C 202.742188 532.539062 210.691406 527.269531 214.136719 519.253906 L 328.445312 633.5625 C 336.074219 641.1875 346.242188 645.386719 357.082031 645.386719 C 367.917969 645.386719 378.089844 641.1875 385.710938 633.5625 C 389.785156 629.492188 392.878906 624.699219 394.878906 619.464844 L 407.46875 632.054688 C 423.257812 647.839844 448.949219 647.839844 464.738281 632.050781 C 468.988281 627.800781 472.09375 622.832031 474.054688 617.535156 C 481.007812 622.757812 489.445312 625.578125 498.332031 625.578125 C 509.167969 625.578125 519.339844 621.378906 526.964844 613.753906 C 534.542969 606.175781 538.738281 596.085938 538.792969 585.328125 C 549.097656 585.277344 559.386719 581.332031 567.230469 573.488281 C 577.433594 563.285156 581.226562 548.273438 577.71875 534.601562 L 594.886719 517.433594 C 597.847656 526.460938 606.328125 532.539062 615.714844 532.539062 Z M 625.175781 308.765625 L 663.078125 499.015625 L 617.375 508.121094 L 579.472656 317.871094 Z M 394.4375 312.328125 C 406.023438 302.652344 421.789062 303.234375 434.597656 313.800781 C 484.800781 355.21875 527.136719 353.539062 560.113281 343.757812 L 589.089844 489.226562 L 563.828125 514.488281 L 449.082031 398.066406 C 448.929688 397.914062 448.777344 397.765625 448.617188 397.617188 C 423.964844 375.160156 401.296875 365.460938 386.421875 371.015625 C 378.890625 373.824219 374.003906 380.210938 373.019531 388.53125 C 373.007812 388.625 372.996094 388.722656 372.988281 388.816406 C 372.753906 391.324219 372.535156 393.820312 372.3125 396.304688 C 369.582031 427.351562 367.523438 450.726562 338.96875 462.414062 L 321.515625 382.421875 C 320.109375 375.984375 324.058594 371.085938 327.617188 368.113281 Z M 192.34375 508.121094 L 146.640625 499.011719 L 184.542969 308.761719 L 230.246094 317.871094 Z M 550.230469 556.484375 C 543.816406 562.898438 533.382812 562.898438 526.96875 556.484375 L 442.191406 471.707031 C 437.5 467.015625 429.886719 467.015625 425.191406 471.707031 C 420.496094 476.40625 420.496094 484.015625 425.191406 488.710938 L 509.964844 573.488281 C 516.378906 579.902344 516.378906 590.335938 509.964844 596.75 C 506.882812 599.835938 502.75 601.535156 498.335938 601.535156 C 493.917969 601.535156 489.789062 599.835938 486.707031 596.75 L 397.125 507.171875 C 392.433594 502.476562 384.820312 502.476562 380.125 507.171875 C 375.429688 511.867188 375.429688 519.476562 380.125 524.175781 L 447.738281 591.789062 C 454.152344 598.203125 454.152344 608.636719 447.738281 615.050781 C 441.324219 621.46875 430.890625 621.46875 424.476562 615.050781 L 352.058594 542.636719 C 347.363281 537.941406 339.75 537.941406 335.058594 542.636719 C 330.359375 547.332031 330.359375 554.941406 335.058594 559.640625 L 368.714844 593.296875 C 371.800781 596.382812 373.5 600.511719 373.5 604.925781 C 373.5 609.339844 371.800781 613.472656 368.714844 616.558594 C 365.628906 619.640625 361.5 621.34375 357.085938 621.339844 C 352.667969 621.339844 348.539062 619.640625 345.453125 616.558594 L 220.210938 491.316406 L 251.554688 333.996094 L 330.96875 333.996094 L 312.210938 349.65625 C 300.140625 359.734375 294.96875 373.546875 298.027344 387.550781 L 318.292969 480.429688 C 318.984375 483.597656 320.929688 486.355469 323.683594 488.070312 C 326.4375 489.789062 329.761719 490.316406 332.917969 489.542969 C 389.476562 475.605469 393.085938 434.597656 396.273438 398.414062 C 396.414062 396.796875 396.558594 395.171875 396.703125 393.546875 C 402.070312 394.175781 414.9375 399.519531 432.191406 415.179688 L 553.769531 538.53125 C 556.269531 544.613281 554.914062 551.804688 550.230469 556.484375 Z M 550.230469 556.484375 "/></g></g></svg>