<svg xmlns="http://www.w3.org/2000/svg" xmlns:xlink="http://www.w3.org/1999/xlink" width="1080" zoomAndPan="magnify" viewBox="0 0 810 809.999993" height="1080" preserveAspectRatio="xMidYMid meet" version="1.2"><defs><clipPath id="bf62cd744e"><path d="M 11.207031 10.613281 L 795.707031 10.613281 L 795.707031 795.113281 L 11.207031 795.113281 Z M 11.207031 10.613281 "/></clipPath></defs><g id="6a73e01950"><g clip-rule="nonzero" clip-path="url(#bf62cd744e)"><path style=" stroke:none;fill-rule:nonzero;fill:#fffffe;fill-opacity:1;" d="M 780.324219 349.023438 L 726.6875 349.023438 C 718.539062 299.804688 699.164062 253.046875 670.070312 212.398438 L 708.015625 174.453125 C 714.019531 168.445312 714.019531 158.707031 708.015625 152.699219 L 653.621094 98.304688 C 647.613281 92.300781 637.878906 92.300781 631.867188 98.304688 L 593.921875 136.25 C 553.273438 107.15625 506.515625 87.78125 457.296875 79.632812 L 457.296875 25.996094 C 457.296875 17.5 450.40625 10.613281 441.914062 10.613281 L 365 10.613281 C 356.507812 10.613281 349.621094 17.5 349.621094 25.996094 L 349.621094 79.632812 C 300.402344 87.78125 253.644531 107.15625 212.992188 136.25 L 175.046875 98.304688 C 169.039062 92.300781 159.304688 92.300781 153.292969 98.304688 L 98.902344 152.699219 C 92.894531 158.707031 92.894531 168.445312 98.902344 174.453125 L 136.847656 212.398438 C 107.75 253.046875 88.375 299.804688 80.226562 349.023438 L 26.589844 349.023438 C 18.09375 349.023438 11.207031 355.910156 11.207031 364.40625 L 11.207031 441.320312 C 11.207031 449.8125 18.09375 456.703125 26.589844 456.703125 L 80.226562 456.703125 C 88.375 505.921875 107.75 552.679688 136.847656 593.328125 L 98.902344 631.273438 C 92.894531 637.28125 92.894531 647.019531 98.902344 653.027344 L 153.292969 707.421875 C 159.300781 713.425781 169.039062 713.425781 175.046875 707.421875 L 213.527344 668.941406 C 234.667969 681.234375 265.320312 691.410156 289.816406 699.898438 C 295.265625 719.308594 313.109375 733.582031 334.238281 733.582031 L 335.785156 733.582031 C 342.929688 768.648438 374.003906 795.113281 411.148438 795.113281 C 448.292969 795.113281 479.367188 768.648438 486.511719 733.582031 L 488.0625 733.582031 C 507.371094 733.582031 523.9375 721.65625 530.808594 704.789062 C 553.046875 695.414062 574.210938 683.59375 593.921875 669.476562 L 631.867188 707.417969 C 637.878906 713.425781 647.613281 713.425781 653.621094 707.417969 L 708.015625 653.027344 C 714.019531 647.019531 714.019531 637.28125 708.015625 631.273438 L 670.070312 593.328125 C 699.164062 552.675781 718.539062 505.921875 726.6875 456.703125 L 780.324219 456.703125 C 788.820312 456.703125 795.707031 449.8125 795.707031 441.320312 L 795.707031 364.40625 C 795.707031 355.910156 788.820312 349.023438 780.324219 349.023438 Z M 473.804688 641.289062 L 426.53125 641.289062 L 426.53125 485.519531 C 453.039062 478.671875 472.679688 454.554688 472.679688 425.9375 C 472.679688 392.007812 445.078125 364.40625 411.148438 364.40625 C 377.222656 364.40625 349.621094 392.007812 349.621094 425.9375 C 349.621094 454.554688 369.257812 478.671875 395.765625 485.519531 L 395.765625 641.289062 L 348.976562 641.289062 C 344.671875 567.023438 318.789062 495.070312 273.660156 432.3125 C 252.609375 403.027344 241.644531 368.394531 241.941406 332.160156 C 242.730469 240.992188 317.527344 165.757812 408.675781 164.453125 C 454.34375 163.804688 497.425781 181.101562 529.9375 213.152344 C 591.023438 273.378906 595.703125 366.429688 548.90625 431.929688 C 505.144531 493.140625 479.328125 565.242188 473.804688 641.289062 Z M 411.148438 456.703125 C 394.183594 456.703125 380.382812 442.902344 380.382812 425.9375 C 380.382812 408.972656 394.183594 395.171875 411.148438 395.171875 C 428.113281 395.171875 441.914062 408.972656 441.914062 425.9375 C 441.914062 442.902344 428.113281 456.703125 411.148438 456.703125 Z M 411.148438 764.347656 C 391.09375 764.347656 373.988281 751.492188 367.636719 733.582031 L 454.660156 733.582031 C 448.3125 751.492188 431.203125 764.347656 411.148438 764.347656 Z M 488.0625 702.820312 C 476.636719 702.820312 356.484375 702.820312 334.238281 702.820312 C 325.8125 702.820312 318.953125 696.007812 318.863281 687.601562 C 318.464844 680.007812 325.125 672.054688 334.238281 672.054688 C 344.328125 672.054688 478.566406 672.046875 488.351562 672.070312 C 496.699219 672.226562 503.441406 679.054688 503.441406 687.4375 C 503.441406 695.917969 496.542969 702.820312 488.0625 702.820312 Z M 764.941406 425.9375 L 713.367188 425.9375 C 705.59375 425.9375 699.046875 431.734375 698.097656 439.445312 C 691.582031 492.574219 670.679688 543.019531 637.652344 585.320312 C 632.871094 591.445312 633.402344 600.171875 638.898438 605.664062 L 675.382812 642.152344 L 642.746094 674.789062 L 606.261719 638.304688 C 600.765625 632.8125 592.039062 632.277344 585.917969 637.054688 C 568.867188 650.363281 550.503906 661.703125 531.144531 670.933594 C 526.445312 658.703125 516.683594 648.96875 504.4375 644.304688 C 509.433594 573.617188 533.328125 506.625 573.9375 449.816406 C 629.132812 372.554688 623.859375 262.550781 551.535156 191.242188 C 513.804688 154.046875 464.0625 133.667969 411.160156 133.667969 C 301.132812 133.667969 212.117188 223.125 211.175781 331.898438 C 210.824219 374.714844 223.789062 415.644531 248.679688 450.269531 C 290.597656 508.558594 314.53125 575.324219 318.316406 644.121094 C 306.78125 648.375 297.410156 657.113281 292.304688 668.207031 C 266.589844 659.3125 235.523438 648.390625 220.996094 637.054688 C 214.875 632.273438 206.148438 632.8125 200.652344 638.300781 L 164.167969 674.789062 L 131.53125 642.152344 L 168.019531 605.664062 C 173.511719 600.171875 174.046875 591.445312 169.265625 585.320312 C 136.238281 543.019531 115.335938 492.574219 108.820312 439.445312 C 107.871094 431.734375 101.320312 425.9375 93.550781 425.9375 L 41.972656 425.9375 L 41.972656 379.789062 L 93.550781 379.789062 C 101.320312 379.789062 107.871094 373.992188 108.816406 366.28125 C 115.335938 313.152344 136.238281 262.707031 169.265625 220.40625 C 174.046875 214.28125 173.511719 205.554688 168.015625 200.0625 L 131.53125 163.574219 L 164.171875 130.9375 L 200.65625 167.421875 C 206.148438 172.914062 214.875 173.453125 221 168.671875 C 263.304688 135.640625 313.746094 114.738281 366.878906 108.222656 C 374.589844 107.277344 380.386719 100.726562 380.386719 92.953125 L 380.386719 41.378906 L 426.53125 41.378906 L 426.53125 92.953125 C 426.53125 100.726562 432.332031 107.277344 440.042969 108.222656 C 493.171875 114.738281 543.613281 135.640625 585.917969 168.671875 C 592.042969 173.453125 600.765625 172.914062 606.261719 167.421875 L 642.746094 130.9375 L 675.386719 163.574219 L 638.898438 200.0625 C 633.40625 205.554688 632.871094 214.28125 637.652344 220.40625 C 670.679688 262.707031 691.582031 313.152344 698.097656 366.28125 C 699.046875 373.992188 705.597656 379.789062 713.367188 379.789062 L 764.941406 379.789062 Z M 764.941406 425.9375 "/></g></g></svg>