<svg xmlns="http://www.w3.org/2000/svg" xmlns:xlink="http://www.w3.org/1999/xlink" width="1080" zoomAndPan="magnify" viewBox="0 0 810 809.999993" height="1080" preserveAspectRatio="xMidYMid meet" version="1.2"><g id="96251fd970"><path style="fill:none;stroke-width:40;stroke-linecap:butt;stroke-linejoin:miter;stroke:#ffffff;stroke-opacity:1;stroke-miterlimit:4;" d="M 540.002774 0.00204711 C 540.002774 -298.026716 298.025189 -539.998656 0.00207096 -539.998656 C -298.026692 -539.998656 -539.998632 -298.026716 -539.998632 0.00204711 C -539.998632 298.025165 -298.026692 540.00275 0.00207096 540.00275 C 298.025189 540.00275 540.002774 298.025165 540.002774 0.00204711 Z M 540.002774 0.00204711 " transform="matrix(0.69189,0,0,0.69189,404.998567,404.998584)"/><path style="fill:none;stroke-width:40;stroke-linecap:round;stroke-linejoin:round;stroke:#ffffff;stroke-opacity:1;stroke-miterlimit:4;" d="M 110.94328 39.391321 C 110.94328 39.391321 -73.035618 145.613353 -73.035618 145.613353 C -103.359232 163.121497 -141.265611 141.237248 -141.265611 106.22096 C -141.265611 106.22096 -141.265611 -106.21938 -141.265611 -106.21938 C -141.265611 -141.235668 -103.359232 -163.119917 -73.035618 -145.611773 C -73.035618 -145.611773 110.94328 -39.393465 110.94328 -39.393465 C 141.266894 -21.885321 141.266894 21.883177 110.94328 39.391321 Z M 110.94328 39.391321 " transform="matrix(1.048842,0,0,1.048842,435.427062,404.298)"/></g></svg>