<svg xmlns="http://www.w3.org/2000/svg" xmlns:xlink="http://www.w3.org/1999/xlink" width="1080" zoomAndPan="magnify" viewBox="0 0 810 809.999993" height="1080" preserveAspectRatio="xMidYMid meet" version="1.2"><defs><clipPath id="efafc52c27"><path d="M 354 256 L 784.714844 256 L 784.714844 803 L 354 803 Z M 354 256 "/></clipPath><clipPath id="e3923ce222"><path d="M 20.464844 256 L 371 256 L 371 555 L 20.464844 555 Z M 20.464844 256 "/></clipPath><clipPath id="1172c3775b"><path d="M 256 8.226562 L 556 8.226562 L 556 403 L 256 403 Z M 256 8.226562 "/></clipPath></defs><g id="98b82bd993"><g clip-rule="nonzero" clip-path="url(#efafc52c27)"><path style=" stroke:none;fill-rule:nonzero;fill:#ffffff;fill-opacity:1;" d="M 781.144531 397.617188 L 638.78125 259.421875 C 635.539062 256.273438 630.816406 255.441406 626.738281 257.199219 C 622.570312 258.960938 619.980469 262.941406 619.980469 267.480469 L 619.980469 352.511719 C 551.527344 357.605469 487.246094 387.152344 438.527344 435.871094 C 384.25 490.152344 354.332031 562.304688 354.332031 639 L 354.332031 791.828125 C 354.332031 797.941406 359.332031 802.945312 365.445312 802.945312 C 371.558594 802.945312 376.5625 797.941406 376.5625 791.828125 L 376.5625 639 C 376.5625 568.234375 404.164062 501.636719 454.179688 451.527344 C 501.605469 404.101562 564.589844 376.59375 631.464844 374.09375 C 637.484375 373.90625 642.207031 368.996094 642.207031 362.976562 L 642.207031 293.695312 L 757.527344 405.585938 L 642.117188 517.476562 L 642.117188 448.746094 C 642.117188 445.691406 640.820312 442.726562 638.597656 440.6875 C 636.375 438.652344 633.410156 437.539062 630.351562 437.632812 C 578.945312 440.410156 531.058594 462.640625 495.398438 500.152344 C 459.644531 537.757812 439.917969 587.035156 439.917969 638.90625 L 439.917969 791.734375 C 439.917969 797.847656 444.917969 802.851562 451.03125 802.851562 C 457.144531 802.851562 462.144531 797.847656 462.144531 791.734375 L 462.144531 638.90625 C 462.144531 547.484375 529.667969 471.625 619.886719 460.882812 L 619.886719 543.78125 C 619.886719 548.226562 622.570312 552.300781 626.648438 554.0625 C 630.722656 555.820312 635.539062 554.894531 638.6875 551.839844 L 781.050781 413.644531 C 783.183594 411.605469 784.386719 408.640625 784.386719 405.675781 C 784.480469 402.621094 783.277344 399.75 781.144531 397.617188 Z M 781.144531 397.617188 "/></g><g clip-rule="nonzero" clip-path="url(#e3923ce222)"><path style=" stroke:none;fill-rule:nonzero;fill:#ffffff;fill-opacity:1;" d="M 173.714844 374.09375 C 240.589844 376.59375 303.574219 404.101562 350.996094 451.527344 C 355.351562 455.878906 362.390625 455.878906 366.742188 451.527344 C 371.097656 447.171875 371.097656 440.132812 366.742188 435.78125 C 318.023438 387.058594 253.742188 357.511719 185.292969 352.417969 L 185.292969 267.390625 C 185.292969 262.941406 182.605469 258.867188 178.53125 257.109375 C 174.453125 255.347656 169.636719 256.273438 166.488281 259.332031 L 24.03125 397.617188 C 21.902344 399.65625 20.699219 402.621094 20.699219 405.585938 C 20.699219 408.546875 21.902344 411.511719 24.03125 413.550781 L 166.398438 551.746094 C 168.527344 553.785156 171.214844 554.894531 174.175781 554.894531 C 175.660156 554.894531 177.140625 554.617188 178.53125 554.0625 C 182.699219 552.300781 185.292969 548.320312 185.292969 543.78125 L 185.292969 460.882812 C 240.773438 467.644531 290.511719 500.339844 318.855469 549.152344 C 320.339844 551.746094 322.746094 553.597656 325.617188 554.339844 C 328.488281 555.082031 331.453125 554.710938 334.046875 553.226562 C 339.328125 550.171875 341.179688 543.316406 338.03125 538.039062 C 303.667969 478.941406 242.625 441.429688 174.734375 437.726562 C 171.675781 437.539062 168.710938 438.652344 166.488281 440.78125 C 164.265625 442.910156 162.96875 445.785156 162.96875 448.839844 L 162.96875 517.566406 L 47.746094 405.585938 L 163.0625 293.695312 L 163.0625 362.976562 C 162.96875 368.996094 167.691406 373.8125 173.714844 374.09375 Z M 173.714844 374.09375 "/></g><g clip-rule="nonzero" clip-path="url(#1172c3775b)"><path style=" stroke:none;fill-rule:nonzero;fill:#ffffff;fill-opacity:1;" d="M 267.636719 172.726562 L 354.238281 172.726562 L 354.238281 391.414062 C 354.238281 397.527344 359.242188 402.527344 365.355469 402.527344 C 371.46875 402.527344 376.46875 397.527344 376.46875 391.414062 L 376.46875 161.613281 C 376.46875 155.5 371.46875 150.496094 365.355469 150.496094 L 293.941406 150.496094 L 405.832031 35.179688 L 517.722656 150.496094 L 445.660156 150.496094 C 439.546875 150.496094 434.542969 155.5 434.542969 161.613281 L 434.542969 391.414062 C 434.542969 397.527344 439.546875 402.527344 445.660156 402.527344 C 451.773438 402.527344 456.773438 397.527344 456.773438 391.414062 L 456.773438 172.726562 L 544.027344 172.726562 C 548.472656 172.726562 552.546875 170.039062 554.308594 165.964844 C 556.066406 161.890625 555.140625 157.074219 552.085938 153.925781 L 413.796875 11.558594 C 411.757812 9.429688 408.792969 8.226562 405.832031 8.226562 C 402.867188 8.226562 399.902344 9.429688 397.863281 11.558594 L 259.667969 153.925781 C 256.519531 157.164062 255.6875 161.890625 257.445312 165.964844 C 259.207031 170.132812 263.1875 172.726562 267.636719 172.726562 Z M 267.636719 172.726562 "/></g></g></svg>