<svg xmlns="http://www.w3.org/2000/svg" xmlns:xlink="http://www.w3.org/1999/xlink" width="1080" zoomAndPan="magnify" viewBox="0 0 810 809.999993" height="1080" preserveAspectRatio="xMidYMid meet" version="1.2"><defs><clipPath id="66e5251856"><path d="M 10.855469 22.292969 L 799.855469 22.292969 L 799.855469 788 L 10.855469 788 Z M 10.855469 22.292969 "/></clipPath></defs><g id="ae525c8a6b"><g clip-rule="nonzero" clip-path="url(#66e5251856)"><path style=" stroke:none;fill-rule:evenodd;fill:#fffffe;fill-opacity:1;" d="M 674.722656 235.0625 C 730.339844 235.0625 775.585938 280.277344 775.585938 335.964844 C 775.585938 362.851562 764.945312 387.324219 747.675781 405.449219 L 747.675781 397.191406 C 747.675781 369.398438 732.09375 345.230469 709.226562 332.945312 C 716.863281 324.585938 721.535156 313.507812 721.535156 301.324219 C 721.535156 275.542969 700.535156 254.496094 674.726562 254.496094 C 648.917969 254.496094 627.917969 275.542969 627.917969 301.324219 C 627.917969 313.507812 632.589844 324.585938 640.226562 332.945312 C 617.355469 345.230469 601.769531 369.398438 601.769531 397.191406 L 601.769531 405.449219 C 584.503906 387.324219 573.867188 362.851562 573.867188 335.964844 C 573.867188 280.277344 619.109375 235.0625 674.722656 235.0625 Z M 651.820312 301.324219 C 651.820312 314.011719 662.09375 324.285156 674.722656 324.285156 C 687.355469 324.285156 697.636719 314.011719 697.636719 301.324219 C 697.636719 288.734375 687.355469 278.464844 674.722656 278.464844 C 662.09375 278.464844 651.820312 288.734375 651.820312 301.324219 Z M 625.671875 423.980469 C 656.066406 441.042969 693.382812 441.042969 723.777344 423.980469 L 723.777344 397.191406 C 723.777344 370.101562 701.769531 348.148438 674.722656 348.148438 C 647.675781 348.148438 625.671875 370.101562 625.671875 397.191406 Z M 424.542969 741.800781 C 424.542969 752.476562 415.835938 761.238281 405.136719 761.238281 C 394.4375 761.238281 385.730469 752.476562 385.730469 741.800781 C 385.730469 731.128906 394.4375 722.367188 405.136719 722.367188 C 415.835938 722.363281 424.542969 731.125 424.542969 741.800781 Z M 405.136719 382.289062 C 433.695312 382.289062 456.933594 405.449219 456.933594 434.050781 C 456.933594 462.652344 433.695312 485.8125 405.136719 485.8125 C 376.578125 485.8125 353.34375 462.652344 353.34375 434.050781 C 353.34375 405.449219 376.578125 382.289062 405.136719 382.289062 Z M 304.28125 147.148438 C 304.28125 91.558594 349.527344 46.34375 405.136719 46.34375 C 460.753906 46.34375 505.996094 91.558594 505.996094 147.148438 C 505.996094 174.136719 495.355469 198.605469 478.089844 216.734375 L 478.089844 208.472656 C 478.089844 180.679688 462.507812 156.511719 439.636719 144.125 C 447.277344 135.867188 451.945312 124.792969 451.945312 112.605469 C 451.945312 86.726562 430.945312 65.78125 405.136719 65.78125 C 379.328125 65.78125 358.328125 86.726562 358.328125 112.605469 C 358.328125 124.792969 362.996094 135.867188 370.636719 144.125 C 347.765625 156.511719 332.183594 180.679688 332.183594 208.472656 L 332.183594 216.734375 C 314.917969 198.605469 304.28125 174.132812 304.28125 147.148438 Z M 405.136719 159.332031 C 378.089844 159.332031 356.085938 181.386719 356.085938 208.472656 L 356.085938 235.261719 C 386.480469 252.324219 423.796875 252.324219 454.191406 235.261719 L 454.191406 208.472656 C 454.191406 181.386719 432.1875 159.332031 405.136719 159.332031 Z M 382.226562 112.605469 C 382.226562 125.191406 392.507812 135.464844 405.136719 135.464844 C 417.769531 135.464844 428.046875 125.195312 428.046875 112.605469 C 428.046875 99.914062 417.769531 89.644531 405.136719 89.644531 C 392.507812 89.644531 382.226562 99.917969 382.226562 112.605469 Z M 707.144531 502.929688 C 717.847656 502.929688 726.550781 511.691406 726.550781 522.367188 C 726.550781 533.039062 717.847656 541.800781 707.144531 541.800781 C 696.445312 541.800781 687.742188 533.042969 687.742188 522.367188 C 687.742188 511.695312 696.445312 502.929688 707.144531 502.929688 Z M 679.042969 662.847656 C 679.042969 689.839844 668.40625 714.308594 651.136719 732.4375 L 651.136719 724.179688 C 651.136719 696.382812 635.554688 672.214844 612.679688 659.929688 C 640.058594 629.980469 618.847656 581.480469 578.179688 581.480469 C 537.523438 581.480469 516.304688 629.972656 543.6875 659.929688 C 520.8125 672.214844 505.230469 696.386719 505.230469 724.179688 L 505.230469 732.4375 C 487.960938 714.308594 477.324219 689.839844 477.324219 662.847656 C 477.324219 607.261719 522.570312 562.042969 578.183594 562.042969 C 633.796875 562.042969 679.042969 607.261719 679.042969 662.847656 Z M 555.277344 628.308594 C 555.277344 640.894531 565.550781 651.167969 578.183594 651.167969 C 590.820312 651.167969 601.09375 640.898438 601.09375 628.308594 C 601.09375 615.617188 590.820312 605.347656 578.183594 605.347656 C 565.550781 605.347656 555.277344 615.617188 555.277344 628.308594 Z M 529.132812 750.964844 C 559.523438 768.023438 596.847656 768.027344 627.238281 750.964844 L 627.238281 724.179688 C 627.238281 697.089844 605.230469 675.136719 578.183594 675.136719 C 551.136719 675.136719 529.132812 697.089844 529.132812 724.179688 Z M 332.8125 662.75 C 332.8125 689.738281 322.175781 714.207031 304.90625 732.332031 L 304.90625 724.074219 C 304.90625 696.28125 289.324219 672.113281 266.449219 659.726562 C 274.089844 651.46875 278.765625 640.394531 278.765625 628.207031 C 278.765625 602.328125 257.765625 581.382812 231.957031 581.382812 C 206.144531 581.382812 185.148438 602.328125 185.148438 628.207031 C 185.148438 640.394531 189.820312 651.472656 197.457031 659.726562 C 174.585938 672.113281 159 696.28125 159 724.074219 L 159 732.332031 C 141.730469 714.207031 131.09375 689.734375 131.09375 662.75 C 131.09375 607.160156 176.34375 561.945312 231.957031 561.945312 C 287.566406 561.945312 332.8125 607.160156 332.8125 662.75 Z M 209.046875 628.207031 C 209.046875 640.796875 219.320312 651.070312 231.957031 651.070312 C 244.585938 651.070312 254.863281 640.796875 254.863281 628.207031 C 254.863281 615.519531 244.589844 605.246094 231.957031 605.246094 C 219.320312 605.246094 209.046875 615.519531 209.046875 628.207031 Z M 182.902344 750.863281 C 213.296875 767.925781 250.609375 767.929688 281.003906 750.863281 L 281.003906 724.078125 C 281.003906 696.988281 259 674.933594 231.953125 674.933594 C 204.90625 674.933594 182.902344 696.988281 182.902344 724.078125 Z M 103.128906 541.804688 C 92.429688 541.804688 83.726562 533.042969 83.726562 522.367188 C 83.726562 511.695312 92.429688 502.933594 103.128906 502.933594 C 113.832031 502.933594 122.539062 511.695312 122.539062 522.367188 C 122.539062 533.042969 113.832031 541.804688 103.128906 541.804688 Z M 208.5 405.449219 L 208.5 397.191406 C 208.5 369.398438 192.925781 345.230469 170.050781 332.945312 C 197.492188 302.917969 176.066406 254.496094 135.550781 254.496094 C 109.742188 254.496094 88.746094 275.542969 88.746094 301.324219 C 88.746094 313.507812 93.414062 324.585938 101.050781 332.945312 C 78.179688 345.230469 62.601562 369.398438 62.601562 397.191406 L 62.601562 405.449219 C 45.332031 387.324219 34.695312 362.851562 34.695312 335.964844 C 34.695312 280.277344 79.933594 235.0625 135.550781 235.0625 C 191.167969 235.0625 236.414062 280.277344 236.414062 335.964844 C 236.414062 362.851562 225.773438 387.324219 208.5 405.449219 Z M 112.648438 301.324219 C 112.648438 314.011719 122.921875 324.285156 135.550781 324.285156 C 148.183594 324.285156 158.460938 314.011719 158.460938 301.324219 C 158.460938 288.734375 148.183594 278.464844 135.550781 278.464844 C 122.917969 278.464844 112.648438 288.734375 112.648438 301.324219 Z M 86.5 423.980469 C 116.894531 441.042969 154.210938 441.042969 184.605469 423.980469 L 184.605469 397.191406 C 184.605469 370.101562 162.601562 348.148438 135.550781 348.148438 C 108.503906 348.148438 86.5 370.101562 86.5 397.191406 Z M 199.082031 167.285156 C 199.082031 156.613281 207.785156 147.953125 218.484375 147.953125 C 229.191406 147.953125 237.894531 156.613281 237.894531 167.285156 C 237.894531 178.0625 229.191406 186.722656 218.484375 186.722656 C 207.785156 186.722656 199.082031 178.0625 199.082031 167.285156 Z M 591.789062 147.953125 C 602.488281 147.953125 611.195312 156.613281 611.195312 167.285156 C 611.195312 178.0625 602.488281 186.722656 591.789062 186.722656 C 581.089844 186.722656 572.382812 178.0625 572.382812 167.285156 C 572.382812 156.613281 581.089844 147.953125 591.789062 147.953125 Z M 674.722656 460.738281 C 743.515625 460.738281 799.480469 404.746094 799.480469 335.964844 C 799.480469 267.183594 743.515625 211.191406 674.722656 211.191406 C 593.402344 211.191406 533.824219 287.980469 553.84375 366.882812 L 469.136719 393.667969 C 465.292969 387.625 460.613281 382.1875 455.257812 377.355469 L 577.164062 208.070312 C 605.449219 218.042969 635.09375 197.285156 635.09375 167.285156 C 635.09375 143.421875 615.667969 123.984375 591.789062 123.984375 C 555.570312 123.984375 535.546875 165.96875 557.785156 194.074219 L 435.0625 364.566406 C 429.394531 362.046875 423.367188 360.335938 417.085938 359.328125 L 417.085938 271.3125 C 480.289062 265.273438 529.894531 211.898438 529.894531 147.148438 C 529.894531 78.367188 473.929688 22.375 405.136719 22.375 C 336.347656 22.375 280.378906 78.363281 280.378906 147.148438 C 280.378906 211.898438 329.984375 265.273438 393.1875 271.3125 L 393.1875 359.328125 C 386.90625 360.335938 380.882812 362.046875 375.210938 364.566406 L 252.488281 194.074219 C 274.726562 165.972656 254.699219 123.984375 218.484375 123.984375 C 194.605469 123.984375 175.175781 143.421875 175.175781 167.285156 C 175.175781 197.289062 204.828125 218.042969 233.109375 208.070312 L 355.019531 377.355469 C 349.65625 382.1875 344.980469 387.625 341.136719 393.667969 L 256.429688 366.882812 C 276.449219 287.988281 216.875 211.191406 135.550781 211.191406 C 66.757812 211.191406 10.792969 267.183594 10.792969 335.964844 C 10.792969 404.746094 66.757812 460.738281 135.550781 460.738281 C 185.246094 460.738281 228.234375 431.433594 248.28125 389.339844 L 331.679688 415.824219 C 329.902344 422.96875 329.152344 430.382812 329.539062 437.980469 L 139.171875 498.402344 C 131.402344 486.71875 118.144531 479.066406 103.125 479.066406 C 79.25 479.066406 59.820312 498.5 59.820312 522.371094 C 59.820312 546.234375 79.246094 565.671875 103.125 565.671875 C 127.34375 565.671875 146.902344 545.875 146.40625 521.160156 L 334.601562 461.445312 C 337.921875 470.003906 342.726562 477.757812 348.71875 484.503906 L 296.957031 556.308594 C 278.015625 544.726562 255.753906 537.980469 231.953125 537.980469 C 163.160156 537.980469 107.195312 593.96875 107.195312 662.753906 C 107.195312 731.53125 163.160156 787.523438 231.953125 787.523438 C 300.742188 787.523438 356.710938 731.535156 356.710938 662.753906 C 356.710938 626.398438 341.023438 593.570312 316.054688 570.707031 L 367.285156 499.613281 C 375.144531 504.144531 383.875 507.367188 393.183594 508.777344 L 393.183594 700.214844 C 375.101562 705.347656 361.828125 722.066406 361.828125 741.804688 C 361.828125 765.667969 381.253906 785.105469 405.132812 785.105469 C 429.011719 785.105469 448.441406 765.671875 448.441406 741.804688 C 448.441406 722.066406 435.167969 705.347656 417.085938 700.214844 L 417.085938 508.773438 C 426.390625 507.363281 435.128906 504.140625 442.984375 499.609375 L 494.203125 570.707031 C 469.164062 593.566406 453.421875 626.394531 453.421875 662.847656 C 453.421875 731.628906 509.390625 787.621094 578.183594 787.621094 C 646.972656 787.621094 702.941406 731.628906 702.941406 662.847656 C 702.941406 594.070312 646.972656 538.078125 578.183594 538.078125 C 554.4375 538.078125 532.234375 544.824219 513.320312 556.304688 L 461.550781 484.503906 C 467.542969 477.757812 472.351562 470 475.671875 461.441406 L 663.867188 521.160156 C 663.132812 545.488281 682.828125 565.671875 707.140625 565.671875 C 731.019531 565.671875 750.449219 546.234375 750.449219 522.367188 C 750.449219 498.5 731.019531 479.066406 707.140625 479.066406 C 692.125 479.066406 678.871094 486.71875 671.097656 498.398438 L 480.726562 437.976562 C 481.136719 430.414062 480.363281 422.929688 478.585938 415.820312 L 561.992188 389.335938 C 582.039062 431.433594 625.03125 460.738281 674.722656 460.738281 Z M 674.722656 460.738281 "/></g></g></svg>