<svg xmlns="http://www.w3.org/2000/svg" xmlns:xlink="http://www.w3.org/1999/xlink" width="1080" zoomAndPan="magnify" viewBox="0 0 810 809.999993" height="1080" preserveAspectRatio="xMidYMid meet" version="1.2"><g id="f142cd4852"><path style=" stroke:none;fill-rule:nonzero;fill:#ffffff;fill-opacity:1;" d="M 687.742188 409.671875 C 687.207031 401.945312 686.363281 394.25 685.21875 386.589844 C 684.070312 378.929688 682.621094 371.328125 680.867188 363.785156 C 679.117188 356.242188 677.066406 348.777344 674.722656 341.398438 C 672.375 334.015625 669.738281 326.738281 666.816406 319.566406 C 663.890625 312.394531 660.6875 305.351562 657.199219 298.433594 C 653.714844 291.519531 649.960938 284.75 645.9375 278.132812 C 641.914062 271.515625 637.632812 265.066406 633.097656 258.789062 C 628.5625 252.511719 623.78125 246.425781 618.761719 240.527344 C 616.539062 237.882812 614.269531 235.277344 611.957031 232.710938 C 609.640625 230.144531 607.285156 227.621094 604.882812 225.136719 C 602.480469 222.652344 600.035156 220.210938 597.546875 217.8125 C 595.058594 215.417969 592.53125 213.0625 589.960938 210.753906 C 587.390625 208.445312 584.78125 206.179688 582.128906 203.960938 C 579.480469 201.746094 576.792969 199.574219 574.066406 197.449219 C 571.34375 195.328125 568.582031 193.25 565.78125 191.222656 C 562.984375 189.195312 560.152344 187.21875 557.285156 185.292969 C 554.417969 183.363281 551.515625 181.488281 548.582031 179.660156 C 545.648438 177.835938 542.6875 176.058594 539.691406 174.335938 C 536.695312 172.613281 533.671875 170.945312 530.617188 169.328125 C 527.5625 167.710938 524.480469 166.148438 521.375 164.640625 C 518.265625 163.132812 515.132812 161.679688 511.972656 160.28125 C 508.8125 158.878906 505.628906 157.539062 502.421875 156.25 C 499.214844 154.960938 495.988281 153.730469 492.738281 152.558594 C 489.488281 151.382812 486.21875 150.265625 482.929688 149.207031 C 479.644531 148.144531 476.335938 147.144531 473.011719 146.199219 C 469.6875 145.257812 466.351562 144.371094 462.996094 143.542969 C 459.640625 142.714844 456.273438 141.949219 452.890625 141.238281 C 449.507812 140.527344 446.117188 139.878906 442.710938 139.289062 C 439.308594 138.699219 435.894531 138.167969 432.46875 137.695312 C 429.046875 137.226562 425.617188 136.816406 422.179688 136.464844 C 418.742188 136.113281 415.300781 135.824219 411.851562 135.59375 C 408.40625 135.363281 404.953125 135.195312 401.5 135.085938 C 398.046875 134.976562 394.59375 134.925781 391.136719 134.9375 C 387.683594 134.949219 384.226562 135.019531 380.777344 135.152344 C 377.324219 135.285156 373.875 135.480469 370.425781 135.734375 C 366.980469 135.984375 363.542969 136.300781 360.105469 136.671875 C 356.671875 137.046875 353.242188 137.480469 349.824219 137.976562 C 346.402344 138.46875 342.996094 139.023438 339.59375 139.636719 C 336.195312 140.25 332.804688 140.921875 329.429688 141.652344 C 326.050781 142.386719 322.6875 143.175781 319.339844 144.027344 C 317.851562 141.171875 316.28125 138.367188 314.625 135.605469 C 312.972656 132.84375 311.238281 130.136719 309.425781 127.476562 C 307.609375 124.816406 305.71875 122.214844 303.753906 119.667969 C 301.785156 117.121094 299.746094 114.632812 297.632812 112.207031 C 295.519531 109.78125 293.335938 107.417969 291.082031 105.121094 C 288.828125 102.820312 286.511719 100.59375 284.125 98.429688 C 281.742188 96.269531 279.296875 94.179688 276.789062 92.164062 C 274.28125 90.144531 271.714844 88.203125 269.09375 86.335938 C 266.472656 84.472656 263.796875 82.683594 261.070312 80.976562 C 258.34375 79.265625 255.566406 77.640625 252.742188 76.09375 C 249.921875 74.550781 247.054688 73.089844 244.144531 71.714844 C 241.234375 70.339844 238.289062 69.050781 235.304688 67.847656 C 232.316406 66.644531 229.300781 65.53125 226.25 64.507812 C 223.199219 63.484375 220.121094 62.550781 217.011719 61.707031 C 213.90625 60.863281 210.777344 60.113281 207.628906 59.453125 C 204.480469 58.796875 201.3125 58.230469 198.128906 57.757812 C 194.945312 57.289062 191.75 56.910156 188.542969 56.625 C 185.339844 56.34375 182.128906 56.152344 178.910156 56.058594 C 175.695312 55.964844 172.476562 55.964844 169.261719 56.0625 C 166.042969 56.15625 162.832031 56.347656 159.625 56.632812 C 156.421875 56.917969 153.226562 57.296875 150.042969 57.769531 C 146.859375 58.242188 143.691406 58.808594 140.542969 59.46875 C 137.394531 60.128906 134.265625 60.878906 131.160156 61.722656 C 128.054688 62.566406 124.976562 63.503906 121.925781 64.527344 C 118.875 65.554688 115.855469 66.667969 112.871094 67.871094 C 109.886719 69.074219 106.941406 70.363281 104.03125 71.742188 C 101.125 73.117188 98.257812 74.578125 95.433594 76.125 C 92.613281 77.671875 89.835938 79.300781 87.109375 81.007812 C 84.382812 82.71875 81.710938 84.507812 79.089844 86.375 C 76.46875 88.242188 73.902344 90.183594 71.398438 92.203125 C 68.890625 94.21875 66.445312 96.3125 64.0625 98.472656 C 61.679688 100.636719 59.359375 102.867188 57.109375 105.164062 C 54.855469 107.464844 52.671875 109.828125 50.5625 112.253906 C 48.449219 114.683594 46.410156 117.171875 44.441406 119.71875 C 42.476562 122.265625 40.585938 124.871094 38.773438 127.527344 C 36.960938 130.1875 35.230469 132.898438 33.578125 135.660156 C 31.921875 138.421875 30.351562 141.230469 28.867188 144.082031 C 27.378906 146.9375 25.976562 149.832031 24.660156 152.769531 C 23.34375 155.707031 22.113281 158.679688 20.972656 161.6875 C 19.832031 164.695312 18.777344 167.734375 17.816406 170.808594 C 16.855469 173.878906 15.984375 176.976562 15.203125 180.097656 C 14.421875 183.21875 13.738281 186.363281 13.140625 189.523438 C 12.546875 192.6875 12.046875 195.867188 11.640625 199.058594 C 11.230469 202.25 10.917969 205.453125 10.699219 208.664062 C 10.480469 211.875 10.359375 215.089844 10.328125 218.304688 C 10.300781 221.523438 10.367188 224.742188 10.527344 227.953125 C 10.6875 231.167969 10.941406 234.375 11.292969 237.574219 C 11.640625 240.773438 12.085938 243.960938 12.621094 247.132812 C 13.160156 250.308594 13.789062 253.460938 14.511719 256.597656 C 15.238281 259.734375 16.050781 262.84375 16.957031 265.933594 C 17.867188 269.019531 18.863281 272.078125 19.949219 275.109375 C 21.035156 278.136719 22.210938 281.132812 23.476562 284.09375 C 24.738281 287.050781 26.089844 289.972656 27.523438 292.851562 C 28.960938 295.734375 30.480469 298.566406 32.082031 301.359375 C 33.683594 304.148438 35.367188 306.890625 37.132812 309.582031 C 38.898438 312.273438 40.738281 314.910156 42.660156 317.492188 C 44.578125 320.078125 46.574219 322.601562 48.640625 325.066406 C 50.710938 327.53125 52.847656 329.933594 55.058594 332.273438 C 57.269531 334.613281 59.546875 336.882812 61.890625 339.089844 C 64.234375 341.292969 66.640625 343.429688 69.113281 345.492188 C 71.582031 347.554688 74.109375 349.542969 76.699219 351.457031 C 79.285156 353.371094 81.925781 355.207031 84.621094 356.964844 C 87.316406 358.726562 90.0625 360.402344 92.855469 362 C 95.648438 363.597656 98.488281 365.109375 101.371094 366.539062 C 100.578125 370.007812 99.847656 373.492188 99.179688 376.988281 C 98.511719 380.484375 97.90625 383.992188 97.367188 387.511719 C 96.824219 391.03125 96.34375 394.554688 95.929688 398.09375 C 95.515625 401.628906 95.164062 405.167969 94.875 408.71875 C 94.585938 412.265625 94.363281 415.816406 94.203125 419.375 C 94.042969 422.929688 93.945312 426.488281 93.914062 430.046875 C 93.878906 433.609375 93.910156 437.167969 94.007812 440.726562 C 94.101562 444.285156 94.261719 447.839844 94.484375 451.394531 C 94.707031 454.945312 94.996094 458.492188 95.347656 462.035156 C 95.699219 465.578125 96.113281 469.113281 96.589844 472.640625 C 97.066406 476.167969 97.609375 479.6875 98.210938 483.195312 C 98.816406 486.703125 99.484375 490.199219 100.214844 493.683594 C 100.945312 497.167969 101.738281 500.636719 102.589844 504.09375 C 103.445312 507.550781 104.363281 510.988281 105.339844 514.410156 C 106.320312 517.835938 107.359375 521.238281 108.457031 524.625 C 109.558594 528.007812 110.71875 531.375 111.941406 534.71875 C 113.164062 538.0625 114.445312 541.382812 115.785156 544.679688 C 117.125 547.976562 118.527344 551.25 119.984375 554.496094 C 121.441406 557.746094 122.960938 560.964844 124.535156 564.15625 C 126.109375 567.351562 127.738281 570.515625 129.425781 573.648438 C 131.113281 576.78125 132.859375 579.886719 134.65625 582.957031 C 136.457031 586.027344 138.3125 589.066406 140.21875 592.070312 C 142.128906 595.078125 144.089844 598.046875 146.105469 600.980469 C 148.121094 603.914062 150.1875 606.8125 152.308594 609.671875 C 154.429688 612.53125 156.597656 615.355469 158.820312 618.136719 C 161.039062 620.917969 163.308594 623.660156 165.628906 626.359375 C 167.949219 629.058594 170.316406 631.71875 172.730469 634.332031 C 175.144531 636.949219 177.609375 639.519531 180.113281 642.046875 C 182.621094 644.574219 185.175781 647.054688 187.769531 649.492188 C 190.367188 651.925781 193.007812 654.3125 195.6875 656.652344 C 198.371094 658.996094 201.09375 661.285156 203.859375 663.527344 C 206.625 665.769531 209.429688 667.964844 212.273438 670.105469 C 215.117188 672.246094 217.996094 674.335938 220.914062 676.375 C 223.832031 678.414062 226.789062 680.398438 229.777344 682.332031 C 232.769531 684.261719 235.792969 686.140625 238.847656 687.964844 C 241.90625 689.785156 244.996094 691.554688 248.117188 693.265625 C 251.238281 694.980469 254.390625 696.632812 257.570312 698.234375 C 260.75 699.832031 263.957031 701.375 267.195312 702.859375 C 270.429688 704.339844 273.691406 705.765625 276.976562 707.132812 C 280.265625 708.5 283.578125 709.808594 286.910156 711.054688 C 290.246094 712.300781 293.601562 713.488281 296.976562 714.617188 C 300.351562 715.742188 303.75 716.808594 307.164062 717.8125 C 310.578125 718.820312 314.011719 719.761719 317.460938 720.644531 C 320.910156 721.523438 324.375 722.34375 327.851562 723.101562 C 331.328125 723.859375 334.820312 724.554688 338.324219 725.183594 C 341.828125 725.816406 345.339844 726.382812 348.863281 726.890625 C 352.390625 727.394531 355.921875 727.835938 359.460938 728.214844 C 363 728.59375 366.546875 728.910156 370.097656 729.160156 C 373.648438 729.410156 377.203125 729.597656 380.757812 729.71875 C 384.316406 729.84375 387.875 729.902344 391.4375 729.898438 C 394.996094 729.894531 398.554688 729.824219 402.113281 729.691406 C 405.667969 729.558594 409.222656 729.363281 412.773438 729.101562 C 416.324219 728.84375 419.867188 728.519531 423.40625 728.132812 C 426.945312 727.742188 430.476562 727.292969 434 726.777344 C 437.519531 726.261719 441.03125 725.683594 444.535156 725.042969 C 448.035156 724.402344 451.527344 723.699219 455.003906 722.933594 C 458.476562 722.167969 461.941406 721.339844 465.386719 720.449219 C 468.832031 719.558594 472.261719 718.605469 475.675781 717.589844 C 479.085938 716.578125 482.480469 715.503906 485.855469 714.367188 C 489.226562 713.230469 492.582031 712.035156 495.910156 710.777344 C 499.242188 709.523438 502.550781 708.207031 505.832031 706.832031 C 509.117188 705.457031 512.375 704.023438 515.605469 702.53125 C 518.839844 701.039062 522.042969 699.488281 525.21875 697.878906 C 528.394531 696.273438 531.539062 694.609375 534.65625 692.886719 C 536.523438 694.398438 538.421875 695.863281 540.355469 697.289062 C 542.285156 698.714844 544.25 700.097656 546.242188 701.4375 C 548.234375 702.773438 550.257812 704.070312 552.304688 705.316406 C 554.355469 706.566406 556.433594 707.769531 558.535156 708.925781 C 560.640625 710.085938 562.765625 711.195312 564.917969 712.257812 C 567.070312 713.320312 569.246094 714.335938 571.445312 715.300781 C 573.640625 716.269531 575.859375 717.1875 578.097656 718.054688 C 580.335938 718.925781 582.589844 719.742188 584.863281 720.511719 C 587.140625 721.28125 589.429688 722 591.734375 722.667969 C 594.039062 723.335938 596.359375 723.953125 598.691406 724.515625 C 601.027344 725.082031 603.371094 725.59375 605.726562 726.054688 C 608.082031 726.515625 610.449219 726.925781 612.820312 727.28125 C 615.195312 727.640625 617.578125 727.941406 619.964844 728.195312 C 622.351562 728.445312 624.742188 728.644531 627.140625 728.789062 C 629.535156 728.933594 631.933594 729.027344 634.332031 729.066406 C 636.734375 729.105469 639.132812 729.09375 641.535156 729.027344 C 643.933594 728.960938 646.332031 728.839844 648.726562 728.667969 C 651.121094 728.492188 653.507812 728.269531 655.894531 727.988281 C 658.277344 727.710938 660.65625 727.378906 663.023438 726.996094 C 665.394531 726.613281 667.753906 726.175781 670.105469 725.6875 C 672.453125 725.199219 674.792969 724.660156 677.121094 724.070312 C 679.445312 723.476562 681.757812 722.835938 684.058594 722.140625 C 686.355469 721.445312 688.636719 720.703125 690.902344 719.90625 C 693.167969 719.113281 695.414062 718.269531 697.640625 717.375 C 699.871094 716.480469 702.078125 715.535156 704.261719 714.542969 C 706.449219 713.550781 708.613281 712.511719 710.75 711.425781 C 712.890625 710.335938 715.007812 709.203125 717.097656 708.023438 C 719.1875 706.839844 721.25 705.613281 723.285156 704.339844 C 725.320312 703.070312 727.328125 701.753906 729.304688 700.390625 C 731.28125 699.03125 733.226562 697.625 735.144531 696.179688 C 737.058594 694.730469 738.941406 693.242188 740.789062 691.710938 C 742.640625 690.179688 744.453125 688.609375 746.234375 687 C 747.800781 686.074219 749.117188 684.875 750.1875 683.402344 C 752.730469 680.972656 755.195312 678.464844 757.582031 675.875 C 759.964844 673.285156 762.261719 670.625 764.472656 667.886719 C 766.6875 665.148438 768.808594 662.34375 770.835938 659.46875 C 772.867188 656.597656 774.804688 653.660156 776.644531 650.660156 C 778.484375 647.660156 780.226562 644.605469 781.871094 641.496094 C 783.515625 638.382812 785.054688 635.222656 786.496094 632.011719 C 787.933594 628.800781 789.269531 625.542969 790.496094 622.246094 C 791.726562 618.949219 792.847656 615.617188 793.863281 612.246094 C 794.875 608.875 795.78125 605.476562 796.574219 602.050781 C 797.367188 598.621094 798.050781 595.171875 798.621094 591.699219 C 799.195312 588.226562 799.652344 584.738281 800 581.238281 C 800.34375 577.734375 800.578125 574.226562 800.695312 570.710938 C 800.816406 567.191406 800.824219 563.675781 800.714844 560.15625 C 800.609375 556.640625 800.386719 553.128906 800.050781 549.628906 C 799.71875 546.125 799.269531 542.636719 798.710938 539.160156 C 798.152344 535.6875 797.480469 532.234375 796.699219 528.804688 C 795.914062 525.371094 795.023438 521.972656 794.019531 518.597656 C 793.015625 515.222656 791.90625 511.886719 790.691406 508.585938 C 789.472656 505.285156 788.148438 502.023438 786.71875 498.808594 C 785.292969 495.59375 783.761719 492.425781 782.128906 489.308594 C 780.496094 486.191406 778.761719 483.132812 776.933594 480.125 C 775.101562 477.121094 773.175781 474.175781 771.15625 471.296875 C 769.132812 468.414062 767.023438 465.601562 764.820312 462.859375 C 762.617188 460.113281 760.328125 457.441406 757.953125 454.847656 C 755.578125 452.25 753.125 449.730469 750.585938 447.292969 C 748.046875 444.855469 745.433594 442.503906 742.746094 440.234375 C 740.054688 437.964844 737.296875 435.78125 734.464844 433.691406 C 731.636719 431.601562 728.742188 429.605469 725.78125 427.699219 C 722.820312 425.796875 719.804688 423.988281 716.726562 422.28125 C 713.652344 420.570312 710.523438 418.960938 707.34375 417.457031 C 704.164062 415.949219 700.9375 414.546875 697.667969 413.246094 C 694.398438 411.949219 691.089844 410.753906 687.742188 409.671875 Z M 618.828125 402.621094 L 616.734375 402.898438 C 612.648438 403.417969 608.589844 404.082031 604.558594 404.886719 C 603.425781 405.113281 602.320312 405.363281 601.1875 405.601562 C 597.585938 406.398438 594.023438 407.320312 590.503906 408.367188 C 589.183594 408.75 587.867188 409.117188 586.550781 409.527344 C 583.125 410.632812 579.753906 411.871094 576.394531 413.199219 C 575.195312 413.675781 573.96875 414.097656 572.769531 414.597656 C 569.4375 416.019531 566.183594 417.589844 562.941406 419.234375 L 519.597656 419.234375 C 519.152344 391.695312 517.007812 364.289062 513.171875 337.015625 C 531.050781 328.996094 547.972656 319.300781 563.9375 307.933594 C 579.902344 296.566406 594.597656 283.746094 608.023438 269.472656 C 615.390625 279.140625 622.0625 289.269531 628.039062 299.851562 C 634.011719 310.4375 639.238281 321.382812 643.710938 332.6875 C 648.183594 343.988281 651.863281 355.542969 654.75 367.351562 C 657.632812 379.160156 659.699219 391.109375 660.945312 403.203125 C 646.929688 401.183594 632.890625 400.992188 618.828125 402.621094 Z M 474.582031 587.058594 C 454.953125 658.964844 423.203125 703.507812 391.453125 703.507812 C 353.066406 703.507812 315.664062 638.625 298.851562 544.46875 C 305.886719 541.921875 313.015625 539.671875 320.238281 537.714844 C 327.457031 535.757812 334.746094 534.105469 342.101562 532.75 C 349.460938 531.394531 356.863281 530.34375 364.304688 529.601562 C 371.75 528.855469 379.210938 528.421875 386.691406 528.292969 C 394.171875 528.164062 401.644531 528.34375 409.109375 528.832031 C 416.574219 529.320312 424.003906 530.117188 431.40625 531.21875 C 438.804688 532.320312 446.144531 533.726562 453.429688 535.433594 C 460.710938 537.144531 467.914062 539.148438 475.03125 541.453125 C 473.832031 549.308594 473.199219 557.214844 473.132812 565.164062 C 473.132812 569.289062 473.292969 573.242188 473.570312 577.113281 C 473.660156 578.429688 473.84375 579.75 473.976562 581.171875 C 474.175781 583.175781 474.308594 585.230469 474.582031 587.085938 Z M 174.84375 595.214844 C 170.796875 589.835938 166.957031 584.3125 163.324219 578.644531 C 159.691406 572.980469 156.273438 567.1875 153.070312 561.265625 C 149.867188 555.34375 146.890625 549.3125 144.136719 543.167969 C 141.382812 537.027344 138.863281 530.789062 136.578125 524.457031 C 134.289062 518.128906 132.242188 511.71875 130.429688 505.238281 C 128.621094 498.753906 127.054688 492.210938 125.734375 485.609375 C 124.410156 479.011719 123.335938 472.371094 122.507812 465.6875 C 121.683594 459.007812 121.105469 452.308594 120.777344 445.582031 L 263.125 445.582031 C 263.566406 473.132812 265.703125 500.546875 269.539062 527.828125 C 251.710938 535.871094 234.828125 545.5625 218.894531 556.902344 C 202.960938 568.246094 188.277344 581.027344 174.84375 595.242188 Z M 177.347656 258.800781 C 175.316406 258.894531 173.285156 258.886719 171.25 258.785156 C 169.21875 258.679688 167.195312 258.476562 165.183594 258.175781 C 163.171875 257.871094 161.179688 257.472656 159.207031 256.976562 C 157.234375 256.480469 155.289062 255.890625 153.375 255.203125 C 151.457031 254.519531 149.582031 253.738281 147.742188 252.871094 C 145.902344 252 144.109375 251.046875 142.363281 250 C 140.617188 248.957031 138.925781 247.832031 137.289062 246.621094 C 135.652344 245.414062 134.078125 244.125 132.566406 242.765625 C 131.054688 241.402344 129.613281 239.96875 128.242188 238.464844 C 126.871094 236.960938 125.578125 235.394531 124.359375 233.765625 C 123.140625 232.136719 122.003906 230.453125 120.949219 228.710938 C 119.898438 226.96875 118.929688 225.183594 118.050781 223.347656 C 117.171875 221.511719 116.382812 219.640625 115.6875 217.730469 C 114.988281 215.816406 114.386719 213.875 113.878906 211.90625 C 113.371094 209.933594 112.960938 207.945312 112.648438 205.933594 C 112.335938 203.925781 112.121094 201.902344 112.003906 199.871094 C 111.898438 197.835938 111.894531 195.800781 111.988281 193.765625 C 112.085938 191.730469 112.277344 189.707031 112.574219 187.691406 C 112.867188 185.675781 113.257812 183.675781 113.75 181.699219 C 114.238281 179.722656 114.824219 177.773438 115.507812 175.851562 C 116.1875 173.933594 116.960938 172.050781 117.828125 170.207031 C 118.695312 168.363281 119.648438 166.566406 120.691406 164.816406 C 121.734375 163.066406 122.859375 161.371094 124.070312 159.730469 C 125.28125 158.089844 126.566406 156.515625 127.929688 155 C 129.296875 153.488281 130.730469 152.046875 132.238281 150.671875 C 133.742188 149.300781 135.3125 148.003906 136.945312 146.789062 C 138.578125 145.570312 140.269531 144.433594 142.011719 143.382812 C 143.757812 142.332031 145.550781 141.367188 147.390625 140.488281 C 149.230469 139.613281 151.105469 138.832031 153.023438 138.136719 C 154.941406 137.445312 156.886719 136.851562 158.859375 136.351562 C 160.835938 135.851562 162.832031 135.449219 164.84375 135.144531 C 166.859375 134.839844 168.882812 134.632812 170.917969 134.527344 C 172.027344 134.476562 173.117188 134.449219 174.199219 134.449219 C 176.199219 134.457031 178.195312 134.558594 180.183594 134.761719 C 182.175781 134.960938 184.152344 135.253906 186.113281 135.644531 C 188.074219 136.035156 190.011719 136.519531 191.925781 137.097656 C 193.84375 137.675781 195.726562 138.34375 197.574219 139.101562 C 199.425781 139.859375 201.234375 140.707031 203.003906 141.640625 C 204.773438 142.574219 206.496094 143.589844 208.164062 144.6875 C 209.835938 145.789062 211.449219 146.964844 213.007812 148.21875 C 214.566406 149.472656 216.058594 150.800781 217.488281 152.199219 C 218.917969 153.597656 220.277344 155.0625 221.566406 156.59375 C 222.851562 158.125 224.066406 159.710938 225.199219 161.359375 C 226.335938 163.003906 227.386719 164.703125 228.359375 166.453125 C 229.332031 168.199219 230.214844 169.992188 231.015625 171.824219 C 231.8125 173.660156 232.523438 175.527344 233.140625 177.429688 C 233.757812 179.332031 234.285156 181.257812 234.71875 183.210938 C 235.148438 185.164062 235.488281 187.132812 235.730469 189.117188 C 235.972656 191.101562 236.121094 193.097656 236.171875 195.09375 C 236.222656 197.09375 236.175781 199.09375 236.035156 201.085938 C 235.890625 203.082031 235.652344 205.066406 235.320312 207.039062 C 234.988281 209.011719 234.558594 210.960938 234.039062 212.894531 C 233.515625 214.824219 232.902344 216.726562 232.199219 218.597656 C 231.496094 220.46875 230.703125 222.300781 229.820312 224.097656 C 228.9375 225.894531 227.972656 227.640625 226.921875 229.34375 C 225.871094 231.046875 224.742188 232.695312 223.53125 234.285156 C 222.324219 235.878906 221.039062 237.410156 219.683594 238.882812 C 218.328125 240.351562 216.902344 241.75 215.410156 243.082031 C 213.917969 244.414062 212.367188 245.671875 210.753906 246.855469 C 209.140625 248.039062 207.472656 249.140625 205.753906 250.160156 C 204.035156 251.183594 202.269531 252.121094 200.460938 252.972656 C 198.648438 253.824219 196.804688 254.585938 194.917969 255.257812 C 193.035156 255.933594 191.125 256.511719 189.183594 257.003906 C 187.246094 257.492188 185.289062 257.886719 183.308594 258.1875 C 181.332031 258.488281 179.34375 258.691406 177.347656 258.800781 Z M 174.082031 285.253906 L 174.542969 285.253906 C 178.011719 285.257812 181.472656 285.433594 184.921875 285.777344 C 188.375 286.121094 191.800781 286.636719 195.203125 287.316406 C 198.605469 287.996094 201.964844 288.839844 205.285156 289.851562 C 208.605469 290.859375 211.867188 292.027344 215.070312 293.359375 C 218.273438 294.6875 221.40625 296.167969 224.464844 297.804688 C 227.523438 299.441406 230.496094 301.222656 233.382812 303.148438 C 236.265625 305.078125 239.050781 307.140625 241.730469 309.339844 C 244.414062 311.539062 246.984375 313.867188 249.4375 316.320312 C 252.929688 319.898438 256.167969 323.691406 259.160156 327.699219 C 253.152344 332.460938 246.785156 336.683594 240.066406 340.371094 C 233.347656 344.054688 226.367188 347.15625 219.121094 349.664062 C 211.878906 352.175781 204.480469 354.058594 196.917969 355.324219 C 189.359375 356.585938 181.746094 357.207031 174.082031 357.183594 C 166.429688 357.207031 158.832031 356.589844 151.285156 355.332031 C 143.738281 354.074219 136.347656 352.191406 129.121094 349.6875 C 121.890625 347.179688 114.921875 344.085938 108.214844 340.40625 C 101.507812 336.722656 95.15625 332.507812 89.160156 327.753906 C 91.609375 324.464844 94.238281 321.332031 97.050781 318.351562 C 99.863281 315.367188 102.839844 312.558594 105.976562 309.925781 C 109.117188 307.292969 112.398438 304.847656 115.824219 302.597656 C 119.25 300.34375 122.792969 298.296875 126.457031 296.460938 C 130.117188 294.621094 133.875 293 137.726562 291.597656 C 141.578125 290.199219 145.5 289.023438 149.488281 288.078125 C 153.476562 287.136719 157.503906 286.425781 161.574219 285.949219 C 165.648438 285.476562 169.730469 285.238281 173.832031 285.242188 Z M 310.339844 310.457031 C 311.566406 308.613281 312.859375 306.792969 314.003906 304.910156 C 315.464844 302.523438 316.757812 300.074219 318.085938 297.625 C 319.128906 295.714844 320.222656 293.832031 321.183594 291.867188 C 322.433594 289.335938 323.515625 286.730469 324.621094 284.132812 C 325.464844 282.171875 326.375 280.183594 327.136719 278.257812 C 328.164062 275.625 329.007812 272.789062 329.90625 270.039062 C 330.539062 268.074219 331.222656 266.085938 331.816406 264.136719 C 332.632812 261.238281 333.25 258.285156 333.898438 255.335938 C 334.332031 253.425781 334.84375 251.542969 335.214844 249.617188 C 335.808594 246.351562 336.1875 243.03125 336.53125 239.722656 C 336.730469 238.0625 337.046875 236.429688 337.203125 234.757812 C 337.667969 229.75 337.902344 224.714844 337.902344 219.644531 C 337.902344 214.917969 337.675781 210.121094 337.214844 205.15625 C 353.816406 176.84375 372.957031 161.324219 391.386719 161.324219 C 429.699219 161.324219 467.046875 226.195312 483.859375 320.335938 C 476.597656 322.96875 469.238281 325.285156 461.78125 327.285156 C 454.324219 329.289062 446.796875 330.972656 439.195312 332.332031 C 431.59375 333.691406 423.949219 334.726562 416.261719 335.433594 C 408.570312 336.144531 400.867188 336.523438 393.144531 336.574219 C 385.421875 336.625 377.714844 336.347656 370.015625 335.738281 C 362.320312 335.132812 354.660156 334.199219 347.042969 332.941406 C 339.425781 331.679688 331.875 330.097656 324.390625 328.195312 C 316.90625 326.289062 309.519531 324.070312 302.226562 321.535156 C 303.34375 320.140625 304.492188 318.753906 305.558594 317.332031 C 307.285156 315.066406 308.800781 312.761719 310.339844 310.457031 Z M 485.792969 502.796875 C 484.925781 504.933594 483.84375 506.988281 483.054688 509.148438 C 482.265625 511.308594 481.738281 513.613281 481.027344 515.828125 C 473.492188 513.457031 465.878906 511.386719 458.183594 509.621094 C 450.488281 507.851562 442.734375 506.390625 434.921875 505.238281 C 427.109375 504.085938 419.265625 503.246094 411.386719 502.714844 C 403.507812 502.1875 395.621094 501.96875 387.722656 502.0625 C 379.828125 502.160156 371.949219 502.566406 364.085938 503.289062 C 356.222656 504.007812 348.398438 505.039062 340.617188 506.378906 C 332.835938 507.722656 325.117188 509.367188 317.46875 511.320312 C 309.816406 513.273438 302.253906 515.527344 294.78125 518.082031 C 291.667969 494.027344 289.910156 469.875 289.511719 445.621094 L 493.265625 445.621094 C 492.972656 461.246094 492.300781 476.503906 490.957031 490.835938 C 488.996094 494.671875 487.453125 498.726562 485.792969 502.734375 Z M 289.472656 419.234375 C 289.863281 394.984375 291.621094 370.832031 294.742188 346.777344 C 302.488281 349.496094 310.339844 351.882812 318.285156 353.9375 C 326.234375 355.992188 334.257812 357.710938 342.351562 359.089844 C 350.445312 360.46875 358.582031 361.503906 366.761719 362.195312 C 374.941406 362.886719 383.140625 363.230469 391.347656 363.230469 C 399.558594 363.230469 407.753906 362.886719 415.9375 362.195312 C 424.117188 361.503906 432.253906 360.46875 440.347656 359.089844 C 448.441406 357.710938 456.460938 355.992188 464.410156 353.9375 C 472.359375 351.882812 480.207031 349.496094 487.953125 346.777344 C 491.070312 370.832031 492.824219 394.984375 493.226562 419.234375 Z M 126.523438 376.472656 C 127.207031 376.683594 127.90625 376.828125 128.589844 377.023438 C 132.570312 378.167969 136.566406 379.160156 140.578125 380.003906 C 142.054688 380.304688 143.53125 380.570312 145.003906 380.832031 C 148.441406 381.457031 151.890625 381.960938 155.359375 382.347656 C 156.796875 382.519531 158.230469 382.703125 159.667969 382.835938 C 164.449219 383.257812 169.257812 383.53125 174.082031 383.53125 C 182.355469 383.546875 190.585938 382.929688 198.769531 381.683594 C 206.953125 380.441406 214.992188 378.582031 222.890625 376.109375 C 230.789062 373.636719 238.453125 370.578125 245.886719 366.9375 C 253.316406 363.292969 260.429688 359.109375 267.222656 354.378906 C 264.835938 375.378906 263.519531 397.089844 263.125 419.234375 L 120.84375 419.234375 C 121.414062 404.796875 123.128906 390.5 125.996094 376.339844 Z M 519.597656 445.582031 L 525.238281 445.582031 C 523.273438 447.402344 521.285156 449.246094 519.480469 451.15625 C 519.519531 449.3125 519.574219 447.453125 519.597656 445.582031 Z M 591.015625 249 C 579.390625 261.699219 566.667969 273.191406 552.855469 283.476562 C 539.039062 293.757812 524.378906 302.644531 508.875 310.140625 C 497.019531 246.902344 477.101562 198.039062 452.042969 168.148438 C 458.675781 169.667969 465.242188 171.433594 471.742188 173.449219 C 478.242188 175.464844 484.65625 177.722656 490.988281 180.222656 C 497.316406 182.71875 503.542969 185.453125 509.667969 188.421875 C 515.789062 191.390625 521.792969 194.585938 527.675781 198.007812 C 533.558594 201.429688 539.300781 205.070312 544.910156 208.925781 C 550.515625 212.78125 555.972656 216.84375 561.273438 221.109375 C 566.574219 225.378906 571.707031 229.839844 576.671875 234.492188 C 581.636719 239.148438 586.417969 243.984375 591.015625 249 Z M 331.0625 168.148438 C 330.707031 168.582031 330.328125 168.925781 329.96875 169.359375 C 329.867188 169.058594 329.8125 168.726562 329.707031 168.425781 C 330.15625 168.320312 330.617188 168.253906 331.0625 168.148438 Z M 174.082031 82.238281 C 177.40625 82.238281 180.722656 82.355469 184.039062 82.59375 C 187.355469 82.832031 190.65625 83.1875 193.945312 83.667969 C 197.238281 84.144531 200.503906 84.738281 203.75 85.453125 C 206.996094 86.167969 210.210938 87 213.398438 87.949219 C 216.585938 88.898438 219.730469 89.960938 222.839844 91.136719 C 225.949219 92.3125 229.011719 93.601562 232.027344 95 C 235.042969 96.398438 238 97.90625 240.90625 99.519531 C 243.8125 101.132812 246.65625 102.851562 249.4375 104.671875 C 252.21875 106.492188 254.929688 108.410156 257.574219 110.425781 C 260.214844 112.441406 262.78125 114.554688 265.269531 116.757812 C 267.757812 118.960938 270.164062 121.25 272.488281 123.628906 C 274.808594 126.003906 277.042969 128.464844 279.1875 131.003906 C 281.332031 133.542969 283.382812 136.160156 285.335938 138.847656 C 287.289062 141.535156 289.144531 144.292969 290.898438 147.113281 C 292.652344 149.9375 294.304688 152.820312 295.847656 155.765625 C 297.394531 158.707031 298.828125 161.703125 300.15625 164.75 C 305.648438 177.222656 309.160156 190.230469 310.695312 203.773438 C 311.324219 209.042969 311.644531 214.335938 311.660156 219.644531 C 311.660156 223.71875 311.476562 227.78125 311.113281 231.839844 C 310.75 235.894531 310.207031 239.925781 309.484375 243.933594 C 308.761719 247.941406 307.863281 251.910156 306.785156 255.835938 C 305.707031 259.765625 304.457031 263.636719 303.035156 267.453125 C 301.609375 271.269531 300.019531 275.011719 298.261719 278.6875 C 296.507812 282.359375 294.589844 285.949219 292.511719 289.449219 C 290.433594 292.953125 288.203125 296.355469 285.820312 299.660156 C 283.441406 302.960938 280.914062 306.152344 278.25 309.230469 C 275.089844 305.210938 271.726562 301.375 268.15625 297.714844 C 261.980469 291.566406 255.269531 286.070312 248.019531 281.234375 C 240.765625 276.398438 233.117188 272.308594 225.066406 268.96875 C 226.335938 268.074219 227.585938 267.148438 228.808594 266.1875 C 230.03125 265.226562 231.226562 264.234375 232.398438 263.210938 C 233.570312 262.183594 234.714844 261.132812 235.828125 260.046875 C 236.945312 258.960938 238.03125 257.851562 239.085938 256.707031 C 240.144531 255.566406 241.167969 254.398438 242.164062 253.203125 C 243.160156 252.007812 244.121094 250.785156 245.054688 249.539062 C 245.984375 248.292969 246.882812 247.023438 247.746094 245.730469 C 248.609375 244.4375 249.4375 243.121094 250.234375 241.785156 C 251.027344 240.449219 251.789062 239.089844 252.511719 237.714844 C 253.234375 236.335938 253.921875 234.941406 254.570312 233.527344 C 255.21875 232.113281 255.832031 230.683594 256.40625 229.238281 C 256.980469 227.792969 257.515625 226.332031 258.011719 224.859375 C 258.511719 223.386719 258.96875 221.898438 259.386719 220.402344 C 259.808594 218.90625 260.1875 217.398438 260.527344 215.878906 C 260.867188 214.359375 261.164062 212.835938 261.425781 211.300781 C 261.683594 209.765625 261.902344 208.226562 262.082031 206.683594 C 262.257812 205.136719 262.394531 203.589844 262.492188 202.035156 C 262.589844 200.484375 262.644531 198.929688 262.660156 197.375 C 262.675781 195.820312 262.648438 194.265625 262.582031 192.710938 C 262.515625 191.15625 262.40625 189.605469 262.257812 188.054688 C 262.109375 186.507812 261.917969 184.964844 261.6875 183.425781 C 261.457031 181.886719 261.1875 180.355469 260.875 178.832031 C 260.566406 177.308594 260.214844 175.792969 259.824219 174.289062 C 259.433594 172.78125 259.003906 171.289062 258.535156 169.804688 C 258.0625 168.320312 257.554688 166.851562 257.007812 165.394531 C 256.460938 163.941406 255.878906 162.5 255.253906 161.074219 C 254.632812 159.648438 253.972656 158.242188 253.273438 156.851562 C 252.578125 155.460938 251.84375 154.089844 251.074219 152.734375 C 250.304688 151.382812 249.5 150.054688 248.664062 148.742188 C 247.824219 147.433594 246.949219 146.148438 246.042969 144.882812 C 245.136719 143.621094 244.195312 142.382812 243.222656 141.167969 C 242.25 139.953125 241.246094 138.765625 240.210938 137.605469 C 239.175781 136.445312 238.113281 135.308594 237.015625 134.207031 C 235.921875 133.101562 234.800781 132.023438 233.648438 130.980469 C 232.496094 129.933594 231.320312 128.917969 230.113281 127.933594 C 228.910156 126.949219 227.679688 126 226.425781 125.078125 C 225.167969 124.160156 223.890625 123.277344 222.589844 122.421875 C 221.289062 121.570312 219.964844 120.753906 218.621094 119.972656 C 217.277344 119.191406 215.910156 118.445312 214.527344 117.734375 C 213.144531 117.023438 211.742188 116.351562 210.324219 115.714844 C 208.902344 115.078125 207.46875 114.480469 206.015625 113.921875 C 204.566406 113.359375 203.101562 112.835938 201.621094 112.355469 C 200.144531 111.871094 198.652344 111.425781 197.152344 111.019531 C 195.652344 110.617188 194.140625 110.25 192.617188 109.925781 C 191.097656 109.601562 189.566406 109.316406 188.03125 109.070312 C 186.496094 108.824219 184.953125 108.621094 183.40625 108.457031 C 181.859375 108.292969 180.3125 108.171875 178.757812 108.089844 C 177.203125 108.007812 175.648438 107.96875 174.09375 107.96875 C 172.539062 107.96875 170.984375 108.007812 169.429688 108.089844 C 167.878906 108.171875 166.328125 108.292969 164.78125 108.457031 C 163.234375 108.621094 161.691406 108.824219 160.15625 109.070312 C 158.621094 109.316406 157.089844 109.601562 155.570312 109.925781 C 154.050781 110.25 152.539062 110.617188 151.035156 111.019531 C 149.535156 111.425781 148.042969 111.871094 146.566406 112.355469 C 145.085938 112.835938 143.621094 113.359375 142.171875 113.921875 C 140.71875 114.480469 139.285156 115.078125 137.867188 115.714844 C 136.445312 116.351562 135.042969 117.023438 133.660156 117.734375 C 132.277344 118.445312 130.914062 119.191406 129.566406 119.972656 C 128.222656 120.753906 126.898438 121.570312 125.597656 122.421875 C 124.296875 123.277344 123.019531 124.160156 121.761719 125.078125 C 120.507812 126 119.277344 126.949219 118.074219 127.933594 C 116.867188 128.917969 115.691406 129.933594 114.539062 130.980469 C 113.386719 132.023438 112.265625 133.101562 111.171875 134.207031 C 110.074219 135.308594 109.011719 136.445312 107.976562 137.605469 C 106.941406 138.765625 105.9375 139.953125 104.964844 141.167969 C 103.992188 142.382812 103.050781 143.621094 102.144531 144.882812 C 101.238281 146.148438 100.363281 147.433594 99.527344 148.742188 C 98.6875 150.054688 97.882812 151.382812 97.113281 152.734375 C 96.34375 154.089844 95.609375 155.460938 94.914062 156.851562 C 94.214844 158.242188 93.554688 159.648438 92.933594 161.074219 C 92.3125 162.5 91.726562 163.941406 91.179688 165.394531 C 90.632812 166.851562 90.125 168.320312 89.65625 169.804688 C 89.183594 171.289062 88.753906 172.78125 88.363281 174.289062 C 87.972656 175.792969 87.621094 177.308594 87.3125 178.832031 C 87 180.355469 86.730469 181.886719 86.5 183.425781 C 86.269531 184.964844 86.082031 186.507812 85.929688 188.054688 C 85.78125 189.605469 85.675781 191.15625 85.605469 192.710938 C 85.539062 194.265625 85.511719 195.820312 85.527344 197.375 C 85.542969 198.929688 85.597656 200.484375 85.695312 202.035156 C 85.792969 203.589844 85.929688 205.136719 86.105469 206.683594 C 86.285156 208.226562 86.503906 209.765625 86.761719 211.300781 C 87.023438 212.835938 87.320312 214.359375 87.660156 215.878906 C 88 217.398438 88.382812 218.90625 88.800781 220.402344 C 89.21875 221.898438 89.675781 223.386719 90.175781 224.859375 C 90.671875 226.332031 91.207031 227.792969 91.78125 229.238281 C 92.355469 230.683594 92.96875 232.113281 93.617188 233.527344 C 94.269531 234.941406 94.953125 236.335938 95.675781 237.714844 C 96.402344 239.089844 97.160156 240.449219 97.953125 241.785156 C 98.75 243.121094 99.578125 244.4375 100.441406 245.730469 C 101.304688 247.023438 102.203125 248.292969 103.132812 249.539062 C 104.066406 250.785156 105.027344 252.007812 106.023438 253.203125 C 107.019531 254.398438 108.042969 255.566406 109.101562 256.707031 C 110.15625 257.851562 111.246094 258.960938 112.359375 260.046875 C 113.476562 261.132812 114.617188 262.183594 115.789062 263.210938 C 116.960938 264.234375 118.15625 265.226562 119.378906 266.1875 C 120.601562 267.148438 121.851562 268.074219 123.125 268.96875 C 117.914062 271.125 112.863281 273.605469 107.972656 276.410156 C 103.082031 279.21875 98.390625 282.324219 93.898438 285.730469 C 89.40625 289.140625 85.152344 292.820312 81.132812 296.773438 C 77.113281 300.730469 73.367188 304.925781 69.886719 309.363281 C 67.753906 306.886719 65.714844 304.335938 63.765625 301.710938 C 61.8125 299.089844 59.960938 296.402344 58.203125 293.644531 C 56.445312 290.890625 54.785156 288.078125 53.230469 285.203125 C 51.671875 282.332031 50.21875 279.40625 48.871094 276.429688 C 47.519531 273.453125 46.28125 270.429688 45.148438 267.367188 C 44.011719 264.300781 42.992188 261.199219 42.078125 258.0625 C 41.167969 254.921875 40.367188 251.757812 39.679688 248.5625 C 38.996094 245.367188 38.421875 242.148438 37.964844 238.914062 C 37.511719 235.679688 37.167969 232.429688 36.945312 229.167969 C 36.71875 225.910156 36.609375 222.644531 36.617188 219.375 C 36.625 216.109375 36.75 212.84375 36.988281 209.585938 C 37.230469 206.328125 37.585938 203.078125 38.058594 199.847656 C 38.53125 196.613281 39.117188 193.398438 39.816406 190.207031 C 40.519531 187.015625 41.332031 183.851562 42.261719 180.71875 C 43.1875 177.585938 44.222656 174.488281 45.371094 171.429688 C 46.519531 168.367188 47.773438 165.351562 49.136719 162.382812 C 50.5 159.410156 51.964844 156.492188 53.539062 153.628906 C 55.109375 150.761719 56.777344 147.957031 58.550781 145.210938 C 60.320312 142.460938 62.1875 139.78125 64.148438 137.167969 C 66.113281 134.554688 68.164062 132.015625 70.308594 129.546875 C 72.453125 127.082031 74.679688 124.695312 76.992188 122.386719 C 79.308594 120.078125 81.699219 117.855469 84.171875 115.71875 C 86.644531 113.578125 89.191406 111.53125 91.808594 109.578125 C 94.425781 107.621094 97.109375 105.761719 99.863281 103.996094 C 102.613281 102.230469 105.421875 100.566406 108.292969 99.003906 C 111.160156 97.441406 114.082031 95.980469 117.058594 94.625 C 120.03125 93.269531 123.046875 92.019531 126.109375 90.878906 C 129.175781 89.738281 132.273438 88.710938 135.410156 87.789062 C 138.546875 86.871094 141.710938 86.066406 144.902344 85.371094 C 148.097656 84.675781 151.3125 84.097656 154.546875 83.632812 C 157.78125 83.171875 161.027344 82.820312 164.289062 82.589844 C 167.546875 82.355469 170.8125 82.238281 174.082031 82.238281 Z M 191.761719 615.792969 C 203.410156 603.117188 216.140625 591.644531 229.957031 581.371094 C 243.769531 571.101562 258.421875 562.210938 273.914062 554.703125 C 285.769531 617.863281 305.703125 666.75 330.789062 696.628906 C 324.152344 695.113281 317.582031 693.351562 311.082031 691.339844 C 304.578125 689.328125 298.160156 687.074219 291.828125 684.574219 C 285.496094 682.078125 279.269531 679.347656 273.140625 676.378906 C 267.015625 673.414062 261.011719 670.21875 255.128906 666.800781 C 249.242188 663.378906 243.496094 659.742188 237.886719 655.886719 C 232.277344 652.03125 226.820312 647.972656 221.515625 643.707031 C 216.210938 639.4375 211.078125 634.980469 206.113281 630.324219 C 201.144531 625.671875 196.363281 620.835938 191.761719 615.820312 Z M 451.976562 696.578125 C 459.613281 686.898438 466.414062 676.664062 472.382812 665.875 C 478.351562 655.085938 483.40625 643.886719 487.546875 632.273438 C 488.707031 634.910156 489.957031 637.386719 491.25 639.902344 C 491.933594 641.21875 492.566406 642.535156 493.316406 643.855469 C 495.042969 647.003906 496.886719 650.074219 498.8125 653.074219 C 499.21875 653.707031 499.574219 654.394531 499.996094 655.011719 C 502.359375 658.597656 504.867188 662.109375 507.519531 665.550781 C 508.363281 666.632812 509.269531 667.648438 510.152344 668.714844 C 511.589844 670.453125 512.972656 672.230469 514.476562 673.984375 C 494.574219 684.105469 473.742188 691.644531 451.976562 696.605469 Z M 552.101562 673.152344 C 554.546875 669.875 557.179688 666.75 559.992188 663.78125 C 562.804688 660.808594 565.777344 658.011719 568.914062 655.386719 C 572.050781 652.761719 575.332031 650.328125 578.753906 648.082031 C 582.171875 645.839844 585.710938 643.800781 589.371094 641.96875 C 593.027344 640.136719 596.78125 638.523438 600.625 637.128906 C 604.472656 635.730469 608.382812 634.5625 612.367188 633.625 C 616.347656 632.683594 620.371094 631.976562 624.433594 631.503906 C 628.496094 631.03125 632.574219 630.796875 636.664062 630.796875 L 637.414062 630.796875 C 640.882812 630.804688 644.34375 630.976562 647.792969 631.320312 C 651.246094 631.664062 654.671875 632.175781 658.074219 632.855469 C 661.472656 633.535156 664.832031 634.378906 668.152344 635.386719 C 671.46875 636.398438 674.730469 637.566406 677.933594 638.894531 C 681.136719 640.222656 684.269531 641.703125 687.328125 643.335938 C 690.386719 644.972656 693.359375 646.753906 696.242188 648.679688 C 699.125 650.605469 701.910156 652.664062 704.59375 654.863281 C 707.273438 657.0625 709.84375 659.386719 712.296875 661.835938 C 715.753906 665.386719 718.96875 669.148438 721.941406 673.113281 C 720.445312 674.300781 718.925781 675.453125 717.382812 676.578125 C 715.839844 677.699219 714.269531 678.789062 712.683594 679.847656 C 711.09375 680.902344 709.480469 681.925781 707.847656 682.917969 C 706.214844 683.90625 704.5625 684.859375 702.890625 685.78125 C 701.21875 686.699219 699.527344 687.585938 697.816406 688.433594 C 696.109375 689.285156 694.382812 690.097656 692.636719 690.875 C 690.894531 691.652344 689.136719 692.390625 687.359375 693.09375 C 685.585938 693.796875 683.796875 694.460938 681.996094 695.089844 C 680.191406 695.71875 678.375 696.308594 676.550781 696.859375 C 674.722656 697.414062 672.882812 697.925781 671.035156 698.402344 C 669.1875 698.875 667.328125 699.3125 665.460938 699.710938 C 663.59375 700.105469 661.71875 700.464844 659.835938 700.78125 C 657.953125 701.101562 656.066406 701.378906 654.171875 701.621094 C 652.277344 701.859375 650.382812 702.058594 648.480469 702.21875 C 646.578125 702.378906 644.671875 702.5 642.765625 702.578125 C 640.855469 702.660156 638.949219 702.699219 637.039062 702.699219 C 635.132812 702.699219 633.222656 702.660156 631.316406 702.578125 C 629.410156 702.5 627.503906 702.378906 625.601562 702.21875 C 623.699219 702.058594 621.800781 701.859375 619.90625 701.621094 C 618.015625 701.378906 616.125 701.101562 614.242188 700.78125 C 612.363281 700.464844 610.488281 700.105469 608.621094 699.710938 C 606.753906 699.3125 604.894531 698.875 603.046875 698.402344 C 601.195312 697.925781 599.359375 697.414062 597.53125 696.859375 C 595.703125 696.308594 593.890625 695.71875 592.085938 695.089844 C 590.285156 694.460938 588.496094 693.796875 586.71875 693.09375 C 584.945312 692.390625 583.1875 691.652344 581.441406 690.875 C 579.699219 690.097656 577.972656 689.285156 576.261719 688.433594 C 574.554688 687.585938 572.863281 686.699219 571.191406 685.78125 C 569.515625 684.859375 567.863281 683.90625 566.230469 682.917969 C 564.601562 681.925781 562.988281 680.902344 561.398438 679.847656 C 559.808594 678.789062 558.242188 677.699219 556.699219 676.578125 C 555.15625 675.453125 553.636719 674.300781 552.140625 673.113281 Z M 640.183594 604.371094 C 638.148438 604.476562 636.113281 604.484375 634.078125 604.390625 C 632.042969 604.292969 630.015625 604.101562 628 603.808594 C 625.984375 603.515625 623.984375 603.121094 622.007812 602.632812 C 620.027344 602.144531 618.078125 601.558594 616.160156 600.875 C 614.238281 600.195312 612.355469 599.421875 610.511719 598.554688 C 608.667969 597.691406 606.871094 596.734375 605.121094 595.691406 C 603.371094 594.648438 601.675781 593.523438 600.035156 592.3125 C 598.394531 591.105469 596.816406 589.816406 595.304688 588.453125 C 593.789062 587.085938 592.347656 585.652344 590.976562 584.144531 C 589.601562 582.640625 588.308594 581.070312 587.089844 579.4375 C 585.871094 577.800781 584.738281 576.113281 583.683594 574.367188 C 582.632812 572.621094 581.667969 570.832031 580.792969 568.992188 C 579.917969 567.152344 579.132812 565.273438 578.445312 563.355469 C 577.753906 561.4375 577.15625 559.492188 576.65625 557.515625 C 576.15625 555.542969 575.753906 553.546875 575.453125 551.53125 C 575.148438 549.515625 574.945312 547.492188 574.839844 545.457031 C 574.734375 543.421875 574.730469 541.386719 574.828125 539.351562 C 574.925781 537.316406 575.121094 535.292969 575.414062 533.277344 C 575.710938 531.261719 576.105469 529.265625 576.59375 527.289062 C 577.085938 525.3125 577.671875 523.363281 578.355469 521.445312 C 579.035156 519.523438 579.8125 517.644531 580.679688 515.800781 C 581.546875 513.957031 582.5 512.160156 583.542969 510.410156 C 584.585938 508.660156 585.710938 506.96875 586.921875 505.328125 C 588.132812 503.6875 589.417969 502.113281 590.78125 500.601562 C 592.144531 499.085938 593.582031 497.644531 595.085938 496.273438 C 596.59375 494.902344 598.160156 493.605469 599.792969 492.386719 C 601.425781 491.167969 603.113281 490.035156 604.859375 488.980469 C 606.601562 487.929688 608.394531 486.964844 610.234375 486.089844 C 612.070312 485.210938 613.949219 484.425781 615.863281 483.734375 C 617.78125 483.042969 619.726562 482.445312 621.699219 481.945312 C 623.671875 481.441406 625.667969 481.039062 627.679688 480.730469 C 629.695312 480.425781 631.71875 480.21875 633.753906 480.113281 C 634.859375 480.113281 635.953125 480.019531 637.035156 480.019531 C 639.035156 480.027344 641.027344 480.132812 643.019531 480.332031 C 645.007812 480.53125 646.984375 480.828125 648.945312 481.214844 C 650.910156 481.605469 652.847656 482.089844 654.761719 482.667969 C 656.675781 483.246094 658.558594 483.914062 660.410156 484.671875 C 662.261719 485.429688 664.070312 486.277344 665.839844 487.210938 C 667.609375 488.144531 669.328125 489.160156 671 490.257812 C 672.671875 491.359375 674.285156 492.535156 675.84375 493.789062 C 677.398438 495.046875 678.894531 496.371094 680.324219 497.769531 C 681.753906 499.171875 683.109375 500.636719 684.398438 502.164062 C 685.6875 503.695312 686.898438 505.285156 688.035156 506.929688 C 689.167969 508.578125 690.222656 510.273438 691.195312 512.023438 C 692.164062 513.769531 693.050781 515.5625 693.847656 517.394531 C 694.648438 519.230469 695.355469 521.097656 695.976562 523 C 696.59375 524.902344 697.117188 526.828125 697.550781 528.78125 C 697.984375 530.734375 698.320312 532.703125 698.566406 534.6875 C 698.808594 536.675781 698.953125 538.667969 699.003906 540.667969 C 699.054688 542.664062 699.007812 544.664062 698.867188 546.660156 C 698.726562 548.652344 698.488281 550.636719 698.15625 552.609375 C 697.820312 554.582031 697.394531 556.53125 696.871094 558.464844 C 696.351562 560.394531 695.738281 562.296875 695.035156 564.167969 C 694.328125 566.039062 693.535156 567.875 692.652344 569.667969 C 691.773438 571.464844 690.804688 573.210938 689.753906 574.914062 C 688.707031 576.617188 687.574219 578.265625 686.367188 579.859375 C 685.15625 581.453125 683.875 582.984375 682.515625 584.453125 C 681.160156 585.921875 679.734375 587.324219 678.242188 588.65625 C 676.753906 589.988281 675.199219 591.242188 673.585938 592.425781 C 671.972656 593.609375 670.308594 594.710938 668.585938 595.734375 C 666.867188 596.753906 665.101562 597.691406 663.292969 598.542969 C 661.484375 599.394531 659.636719 600.15625 657.753906 600.828125 C 655.871094 601.503906 653.960938 602.085938 652.019531 602.574219 C 650.082031 603.0625 648.121094 603.457031 646.144531 603.757812 C 644.167969 604.058594 642.179688 604.261719 640.183594 604.371094 Z M 741.042969 654.789062 C 737.886719 650.769531 734.523438 646.933594 730.953125 643.273438 C 724.789062 637.128906 718.089844 631.636719 710.851562 626.796875 C 703.613281 621.960938 695.976562 617.871094 687.9375 614.527344 C 689.210938 613.632812 690.460938 612.703125 691.6875 611.742188 C 692.910156 610.78125 694.109375 609.789062 695.28125 608.765625 C 696.453125 607.742188 697.597656 606.6875 698.714844 605.601562 C 699.832031 604.515625 700.917969 603.402344 701.976562 602.261719 C 703.03125 601.117188 704.058594 599.949219 705.054688 598.753906 C 706.050781 597.558594 707.015625 596.335938 707.949219 595.089844 C 708.878906 593.839844 709.777344 592.570312 710.644531 591.277344 C 711.507812 589.980469 712.339844 588.664062 713.132812 587.328125 C 713.929688 585.988281 714.6875 584.628906 715.414062 583.253906 C 716.136719 581.875 716.824219 580.476562 717.472656 579.0625 C 718.125 577.648438 718.734375 576.21875 719.3125 574.769531 C 719.886719 573.324219 720.421875 571.863281 720.917969 570.386719 C 721.417969 568.914062 721.875 567.425781 722.296875 565.925781 C 722.714844 564.429688 723.09375 562.917969 723.433594 561.398438 C 723.773438 559.878906 724.074219 558.351562 724.332031 556.816406 C 724.589844 555.285156 724.808594 553.742188 724.988281 552.195312 C 725.167969 550.648438 725.304688 549.097656 725.398438 547.546875 C 725.496094 545.992188 725.550781 544.4375 725.566406 542.878906 C 725.578125 541.324219 725.554688 539.765625 725.484375 538.210938 C 725.417969 536.65625 725.308594 535.105469 725.160156 533.554688 C 725.007812 532.003906 724.820312 530.460938 724.589844 528.921875 C 724.355469 527.382812 724.085938 525.847656 723.773438 524.324219 C 723.460938 522.800781 723.109375 521.28125 722.71875 519.777344 C 722.328125 518.269531 721.894531 516.773438 721.425781 515.289062 C 720.953125 513.804688 720.445312 512.335938 719.898438 510.878906 C 719.347656 509.421875 718.761719 507.980469 718.140625 506.554688 C 717.515625 505.128906 716.855469 503.71875 716.15625 502.328125 C 715.457031 500.9375 714.722656 499.566406 713.953125 498.210938 C 713.179688 496.859375 712.375 495.527344 711.535156 494.21875 C 710.695312 492.90625 709.820312 491.621094 708.910156 490.355469 C 708 489.09375 707.058594 487.855469 706.085938 486.640625 C 705.113281 485.425781 704.105469 484.238281 703.070312 483.074219 C 702.035156 481.914062 700.964844 480.78125 699.871094 479.675781 C 698.773438 478.570312 697.648438 477.496094 696.496094 476.449219 C 695.34375 475.402344 694.164062 474.390625 692.957031 473.40625 C 691.75 472.421875 690.519531 471.472656 689.261719 470.550781 C 688.003906 469.632812 686.722656 468.75 685.421875 467.898438 C 684.117188 467.046875 682.792969 466.230469 681.445312 465.449219 C 680.097656 464.667969 678.734375 463.921875 677.347656 463.210938 C 675.960938 462.503906 674.558594 461.832031 673.136719 461.195312 C 671.714844 460.558594 670.277344 459.964844 668.828125 459.402344 C 667.375 458.84375 665.90625 458.324219 664.425781 457.839844 C 662.945312 457.359375 661.457031 456.914062 659.953125 456.511719 C 658.449219 456.109375 656.933594 455.746094 655.414062 455.421875 C 653.890625 455.097656 652.359375 454.8125 650.820312 454.570312 C 649.285156 454.328125 647.742188 454.125 646.191406 453.964844 C 644.644531 453.800781 643.09375 453.679688 641.539062 453.601562 C 639.984375 453.519531 638.429688 453.480469 636.871094 453.484375 C 635.316406 453.484375 633.757812 453.527344 632.203125 453.613281 C 630.648438 453.695312 629.097656 453.820312 627.550781 453.988281 C 626.003906 454.152344 624.460938 454.359375 622.921875 454.605469 C 621.386719 454.855469 619.855469 455.140625 618.335938 455.46875 C 616.8125 455.796875 615.300781 456.164062 613.800781 456.570312 C 612.296875 456.980469 610.804688 457.425781 609.328125 457.914062 C 607.847656 458.398438 606.382812 458.921875 604.933594 459.484375 C 603.480469 460.050781 602.046875 460.652344 600.625 461.289062 C 599.207031 461.929688 597.804688 462.605469 596.421875 463.316406 C 595.035156 464.03125 593.671875 464.78125 592.328125 465.5625 C 590.984375 466.347656 589.660156 467.167969 588.359375 468.023438 C 587.058594 468.878906 585.78125 469.765625 584.527344 470.6875 C 583.269531 471.609375 582.042969 472.5625 580.839844 473.550781 C 579.632812 474.539062 578.457031 475.554688 577.304688 476.605469 C 576.15625 477.652344 575.035156 478.730469 573.941406 479.839844 C 572.847656 480.949219 571.785156 482.082031 570.75 483.246094 C 569.714844 484.410156 568.714844 485.601562 567.742188 486.820312 C 566.773438 488.035156 565.832031 489.277344 564.929688 490.542969 C 564.023438 491.808594 563.152344 493.097656 562.3125 494.410156 C 561.476562 495.722656 560.675781 497.058594 559.90625 498.410156 C 559.140625 499.765625 558.410156 501.140625 557.714844 502.53125 C 557.019531 503.925781 556.363281 505.335938 555.742188 506.765625 C 555.121094 508.191406 554.539062 509.636719 553.992188 511.09375 C 553.449219 512.550781 552.945312 514.023438 552.476562 515.507812 C 552.011719 516.996094 551.582031 518.492188 551.195312 520 C 550.808594 521.507812 550.460938 523.023438 550.152344 524.550781 C 549.84375 526.074219 549.578125 527.609375 549.351562 529.148438 C 549.125 530.6875 548.9375 532.234375 548.792969 533.785156 C 548.644531 535.332031 548.539062 536.886719 548.476562 538.441406 C 548.414062 539.996094 548.390625 541.550781 548.410156 543.109375 C 548.425781 544.664062 548.488281 546.222656 548.585938 547.773438 C 548.6875 549.328125 548.828125 550.878906 549.011719 552.425781 C 549.191406 553.96875 549.414062 555.511719 549.679688 557.042969 C 549.941406 558.578125 550.246094 560.105469 550.589844 561.625 C 550.933594 563.140625 551.316406 564.648438 551.738281 566.148438 C 552.164062 567.644531 552.625 569.132812 553.125 570.605469 C 553.628906 572.078125 554.167969 573.539062 554.746094 574.984375 C 555.324219 576.429688 555.941406 577.859375 556.59375 579.269531 C 557.25 580.683594 557.9375 582.078125 558.667969 583.453125 C 559.394531 584.832031 560.15625 586.1875 560.957031 587.523438 C 561.753906 588.859375 562.589844 590.175781 563.457031 591.464844 C 564.324219 592.757812 565.226562 594.027344 566.160156 595.273438 C 567.097656 596.515625 568.0625 597.734375 569.0625 598.929688 C 570.0625 600.121094 571.09375 601.289062 572.152344 602.429688 C 573.214844 603.566406 574.304688 604.679688 575.421875 605.761719 C 576.542969 606.84375 577.691406 607.894531 578.863281 608.914062 C 580.039062 609.9375 581.238281 610.925781 582.46875 611.886719 C 583.695312 612.84375 584.945312 613.769531 586.222656 614.660156 C 581.023438 616.820312 575.976562 619.296875 571.089844 622.089844 C 566.203125 624.882812 561.511719 627.972656 557.011719 631.359375 C 552.511719 634.742188 548.246094 638.398438 544.207031 642.320312 C 540.167969 646.242188 536.394531 650.402344 532.878906 654.800781 C 528.664062 649.941406 524.8125 644.808594 521.324219 639.40625 C 517.832031 634 514.742188 628.375 512.046875 622.535156 C 509.351562 616.691406 507.082031 610.691406 505.234375 604.527344 C 503.390625 598.367188 501.984375 592.105469 501.023438 585.742188 C 499.957031 578.929688 499.445312 572.074219 499.484375 565.179688 C 499.453125 555.089844 500.527344 545.121094 502.710938 535.273438 C 505.445312 523.207031 509.695312 511.703125 515.460938 500.757812 C 518.660156 494.753906 522.285156 489.019531 526.332031 483.550781 C 530.378906 478.085938 534.808594 472.949219 539.621094 468.136719 C 544.429688 463.328125 549.570312 458.902344 555.035156 454.855469 C 560.503906 450.808594 566.238281 447.183594 572.242188 443.988281 C 576.617188 441.679688 581.105469 439.621094 585.707031 437.808594 C 587.617188 437.046875 589.566406 436.386719 591.503906 435.714844 C 594.140625 434.808594 596.773438 433.976562 599.410156 433.226562 C 602.042969 432.476562 604.414062 431.910156 606.945312 431.277344 C 609.011719 430.816406 611.09375 430.484375 613.175781 430.117188 C 618.089844 429.257812 623.03125 428.660156 628.007812 428.324219 C 630.234375 428.179688 632.449219 427.957031 634.6875 427.917969 C 636.929688 427.878906 639.3125 427.996094 641.632812 428.0625 C 644.871094 428.179688 648.101562 428.351562 651.300781 428.695312 C 653.183594 428.878906 655.070312 429.074219 656.941406 429.339844 C 662.023438 430.070312 667.046875 431.09375 672.011719 432.410156 C 674.816406 433.144531 677.59375 433.96875 680.34375 434.878906 C 683.09375 435.789062 685.816406 436.785156 688.503906 437.871094 C 691.191406 438.953125 693.839844 440.121094 696.457031 441.371094 C 699.070312 442.625 701.640625 443.957031 704.171875 445.371094 C 706.703125 446.785156 709.183594 448.277344 711.617188 449.847656 C 714.054688 451.421875 716.4375 453.066406 718.769531 454.789062 C 721.097656 456.511719 723.371094 458.308594 725.589844 460.175781 C 727.804688 462.042969 729.960938 463.976562 732.058594 465.980469 C 734.152344 467.984375 736.179688 470.050781 738.144531 472.183594 C 740.105469 474.3125 742 476.507812 743.824219 478.757812 C 745.648438 481.007812 747.402344 483.316406 749.078125 485.679688 C 750.757812 488.042969 752.359375 490.457031 753.886719 492.921875 C 755.410156 495.386719 756.855469 497.894531 758.222656 500.449219 C 759.589844 503.007812 760.875 505.601562 762.074219 508.242188 C 763.277344 510.878906 764.394531 513.550781 765.425781 516.257812 C 766.460938 518.96875 767.40625 521.703125 768.265625 524.472656 C 769.125 527.242188 769.894531 530.035156 770.574219 532.851562 C 771.257812 535.667969 771.851562 538.503906 772.351562 541.355469 C 772.855469 544.210938 773.265625 547.078125 773.585938 549.960938 C 773.90625 552.839844 774.136719 555.726562 774.273438 558.621094 C 774.414062 561.515625 774.457031 564.414062 774.414062 567.3125 C 774.367188 570.210938 774.230469 573.101562 774 575.992188 C 773.769531 578.882812 773.449219 581.761719 773.039062 584.628906 C 772.628906 587.496094 772.125 590.351562 771.535156 593.1875 C 770.941406 596.023438 770.261719 598.839844 769.488281 601.632812 C 768.71875 604.429688 767.859375 607.195312 766.914062 609.933594 C 765.96875 612.671875 764.9375 615.378906 763.820312 618.054688 C 762.703125 620.730469 761.5 623.363281 760.214844 625.964844 C 758.929688 628.5625 757.566406 631.117188 756.121094 633.628906 C 754.671875 636.136719 753.148438 638.601562 751.546875 641.015625 C 749.945312 643.433594 748.265625 645.792969 746.515625 648.101562 C 744.761719 650.410156 742.9375 652.660156 741.042969 654.855469 Z M 741.042969 654.789062 "/></g></svg>