<svg xmlns="http://www.w3.org/2000/svg" xmlns:xlink="http://www.w3.org/1999/xlink" width="1080" zoomAndPan="magnify" viewBox="0 0 810 809.999993" height="1080" preserveAspectRatio="xMidYMid meet" version="1.2"><defs><clipPath id="2397a067b4"><path d="M 294.136719 81.144531 L 797.105469 81.144531 L 797.105469 754.179688 L 294.136719 754.179688 Z M 294.136719 81.144531 "/></clipPath><clipPath id="6bb17b612b"><path d="M 9.605469 496 L 45 496 L 45 521 L 9.605469 521 Z M 9.605469 496 "/></clipPath></defs><g id="dc724b68c5"><path style=" stroke:none;fill-rule:nonzero;fill:#ffffff;fill-opacity:1;" d="M 622.527344 283.199219 C 606.945312 274.914062 590.382812 268.53125 573.296875 264.214844 C 555.710938 259.777344 537.511719 257.527344 519.207031 257.527344 C 489.460938 257.527344 460.597656 263.359375 433.417969 274.851562 C 407.171875 285.953125 383.605469 301.84375 363.367188 322.078125 C 343.128906 342.316406 327.242188 365.882812 316.140625 392.132812 C 304.644531 419.308594 298.816406 448.171875 298.816406 477.917969 C 298.816406 507.664062 304.644531 536.53125 316.140625 563.707031 C 327.242188 589.957031 343.128906 613.523438 363.367188 633.761719 C 383.605469 653.996094 407.171875 669.886719 433.417969 680.988281 C 460.597656 692.484375 489.460938 698.3125 519.207031 698.3125 C 548.957031 698.3125 577.820312 692.484375 605 680.988281 C 631.246094 669.886719 654.808594 653.996094 675.046875 633.761719 C 695.285156 613.523438 711.171875 589.957031 722.273438 563.707031 C 733.769531 536.53125 739.597656 507.664062 739.597656 477.917969 C 739.597656 448.171875 733.769531 419.308594 722.273438 392.132812 C 719.734375 386.117188 712.792969 383.304688 706.78125 385.847656 C 700.769531 388.390625 697.953125 395.328125 700.496094 401.339844 C 710.753906 425.589844 715.953125 451.351562 715.953125 477.917969 C 715.953125 586.410156 627.695312 674.667969 519.207031 674.667969 C 410.722656 674.667969 322.460938 586.410156 322.460938 477.917969 C 322.460938 369.433594 410.722656 281.171875 519.207031 281.171875 C 551.355469 281.171875 583.246094 289.09375 611.425781 304.078125 C 617.195312 307.144531 624.351562 304.953125 627.417969 299.1875 C 630.480469 293.425781 628.292969 286.265625 622.527344 283.199219 "/><path style=" stroke:none;fill-rule:nonzero;fill:#ffffff;fill-opacity:1;" d="M 267.636719 439.777344 C 268.582031 433.316406 264.113281 427.3125 257.652344 426.367188 C 251.191406 425.421875 245.1875 429.894531 244.242188 436.355469 C 236.382812 490.058594 244.402344 544.488281 267.4375 593.765625 C 269.445312 598.066406 273.707031 600.589844 278.152344 600.589844 C 279.832031 600.589844 281.535156 600.230469 283.152344 599.472656 C 289.070312 596.707031 291.621094 589.671875 288.859375 583.757812 C 267.789062 538.679688 260.449219 488.894531 267.636719 439.777344 "/><g clip-rule="nonzero" clip-path="url(#2397a067b4)"><path style=" stroke:none;fill-rule:nonzero;fill:#ffffff;fill-opacity:1;" d="M 750.621094 264.300781 L 761.722656 276.898438 L 734.628906 300.769531 C 731.09375 296.417969 727.433594 292.183594 723.644531 288.0625 Z M 593.285156 208.386719 L 578.1875 204.660156 L 587.617188 166.421875 L 602.71875 170.148438 Z M 409.589844 220.964844 L 396.976562 187.945312 L 414.269531 181.339844 L 426.828125 214.21875 C 425.820312 214.574219 424.816406 214.9375 423.804688 215.300781 C 419.011719 217.058594 414.273438 218.953125 409.589844 220.964844 Z M 558.242188 107.28125 L 656.230469 131.449219 L 649.824219 157.414062 L 585.09375 141.445312 L 581.804688 140.636719 L 551.832031 133.246094 Z M 793.648438 432.570312 C 787.984375 397.09375 775.652344 363.453125 756.988281 332.574219 C 754.363281 328.226562 751.628906 323.972656 748.792969 319.800781 L 786.222656 286.820312 C 791.121094 282.507812 791.59375 275.035156 787.277344 270.136719 L 760.546875 239.792969 C 758.472656 237.441406 755.554688 236.011719 752.425781 235.816406 C 749.292969 235.617188 746.214844 236.667969 743.863281 238.742188 L 706.882812 271.324219 C 700.078125 265.09375 692.953125 259.1875 685.511719 253.625 C 664.109375 237.625 640.769531 224.945312 615.824219 215.742188 L 625.671875 175.8125 L 655.640625 183.203125 C 656.589844 183.4375 657.546875 183.546875 658.484375 183.546875 C 663.796875 183.546875 668.625 179.945312 669.953125 174.554688 L 682.019531 125.632812 C 682.773438 122.585938 682.277344 119.371094 680.65625 116.6875 C 679.035156 114.003906 676.414062 112.070312 673.371094 111.324219 L 552.421875 81.492188 C 546.082031 79.925781 539.675781 83.800781 538.109375 90.136719 L 526.046875 139.0625 C 525.292969 142.105469 525.78125 145.324219 527.40625 148.007812 C 529.027344 150.691406 531.648438 152.621094 534.695312 153.371094 L 564.664062 160.765625 L 554.8125 200.707031 C 519.53125 196.105469 483.871094 198.324219 449.488281 207.273438 L 432.136719 161.855469 C 429.808594 155.761719 422.972656 152.703125 416.875 155.035156 L 377.496094 170.078125 C 374.566406 171.195312 372.203125 173.433594 370.921875 176.296875 C 369.640625 179.15625 369.550781 182.410156 370.671875 185.339844 L 388.214844 231.261719 C 376.21875 237.679688 364.6875 244.96875 353.714844 253.097656 C 332.101562 269.105469 312.984375 288.089844 296.898438 309.519531 C 292.976562 314.742188 294.03125 322.15625 299.253906 326.074219 C 304.476562 329.992188 311.886719 328.9375 315.804688 323.714844 C 340.375 290.988281 371.746094 265.4375 406.898438 248.132812 C 407.023438 248.089844 407.144531 248.050781 407.265625 248.003906 C 408.050781 247.703125 408.785156 247.328125 409.460938 246.890625 C 420.851562 241.445312 432.621094 236.855469 444.675781 233.164062 C 445.296875 233.035156 445.910156 232.859375 446.519531 232.625 C 446.578125 232.601562 446.632812 232.578125 446.691406 232.554688 C 489.167969 219.929688 535.089844 218.382812 580.074219 229.480469 C 716.152344 263.042969 799.558594 401.058594 765.996094 537.140625 C 732.433594 673.214844 594.421875 756.621094 458.339844 723.0625 C 429.617188 715.976562 402.6875 704.148438 378.300781 687.914062 C 372.867188 684.292969 365.527344 685.765625 361.90625 691.199219 C 358.289062 696.632812 359.761719 703.976562 365.195312 707.59375 C 391.863281 725.351562 421.296875 738.277344 452.675781 746.015625 C 474.730469 751.453125 497.027344 754.179688 519.347656 754.179688 C 533.878906 754.179688 548.425781 753.023438 562.910156 750.710938 C 598.382812 745.046875 632.023438 732.710938 662.90625 714.050781 C 693.78125 695.394531 720.34375 671.339844 741.855469 642.574219 C 764.125 612.777344 779.976562 579.207031 788.953125 542.800781 C 797.933594 506.390625 799.515625 469.300781 793.648438 432.570312 "/></g><path style=" stroke:none;fill-rule:nonzero;fill:#ffffff;fill-opacity:1;" d="M 446.046875 409.320312 C 441.445312 404.691406 433.960938 404.667969 429.332031 409.265625 C 424.695312 413.871094 424.671875 421.355469 429.277344 425.988281 L 510.820312 508.054688 C 510.863281 508.09375 510.90625 508.136719 510.945312 508.175781 C 510.988281 508.21875 511.027344 508.261719 511.070312 508.300781 C 511.101562 508.332031 511.136719 508.359375 511.171875 508.386719 C 511.242188 508.457031 511.316406 508.519531 511.390625 508.585938 C 511.460938 508.652344 511.539062 508.714844 511.609375 508.777344 C 511.691406 508.84375 511.769531 508.910156 511.851562 508.972656 C 511.921875 509.03125 511.996094 509.089844 512.070312 509.144531 C 512.152344 509.207031 512.234375 509.269531 512.316406 509.328125 C 512.390625 509.378906 512.46875 509.4375 512.542969 509.488281 C 512.628906 509.542969 512.710938 509.601562 512.796875 509.65625 C 512.875 509.707031 512.953125 509.753906 513.03125 509.800781 C 513.117188 509.851562 513.199219 509.910156 513.289062 509.957031 C 513.367188 510.003906 513.453125 510.050781 513.535156 510.09375 C 513.617188 510.140625 513.703125 510.1875 513.789062 510.230469 C 513.875 510.273438 513.964844 510.316406 514.050781 510.359375 C 514.132812 510.402344 514.21875 510.441406 514.296875 510.480469 C 514.390625 510.519531 514.484375 510.5625 514.578125 510.601562 C 514.65625 510.632812 514.738281 510.667969 514.816406 510.703125 C 514.914062 510.738281 515.015625 510.773438 515.113281 510.816406 C 515.195312 510.84375 515.269531 510.871094 515.34375 510.898438 C 515.449219 510.933594 515.554688 510.96875 515.664062 511 C 515.734375 511.023438 515.808594 511.046875 515.878906 511.066406 C 515.992188 511.097656 516.105469 511.128906 516.214844 511.160156 C 516.285156 511.175781 516.355469 511.195312 516.421875 511.210938 C 516.542969 511.238281 516.660156 511.265625 516.777344 511.292969 C 516.84375 511.304688 516.90625 511.320312 516.976562 511.332031 C 517.097656 511.355469 517.21875 511.375 517.34375 511.394531 C 517.40625 511.40625 517.46875 511.417969 517.527344 511.425781 C 517.65625 511.445312 517.785156 511.457031 517.917969 511.472656 C 517.972656 511.476562 518.027344 511.484375 518.085938 511.492188 C 518.230469 511.503906 518.375 511.511719 518.515625 511.523438 C 518.558594 511.523438 518.601562 511.527344 518.644531 511.53125 C 518.832031 511.539062 519.019531 511.542969 519.207031 511.542969 C 519.207031 511.542969 519.207031 511.542969 519.210938 511.542969 C 519.398438 511.542969 519.59375 511.539062 519.785156 511.53125 C 519.828125 511.527344 519.875 511.523438 519.917969 511.519531 C 520.066406 511.511719 520.214844 511.5 520.359375 511.488281 C 520.417969 511.480469 520.476562 511.472656 520.535156 511.46875 C 520.667969 511.453125 520.804688 511.4375 520.9375 511.417969 C 521 511.410156 521.066406 511.394531 521.128906 511.386719 C 521.253906 511.363281 521.382812 511.34375 521.507812 511.320312 C 521.574219 511.304688 521.644531 511.289062 521.710938 511.277344 C 521.832031 511.246094 521.953125 511.21875 522.070312 511.195312 C 522.144531 511.175781 522.21875 511.152344 522.289062 511.132812 C 522.402344 511.101562 522.515625 511.074219 522.628906 511.039062 C 522.707031 511.015625 522.78125 510.992188 522.855469 510.964844 C 522.964844 510.933594 523.070312 510.898438 523.183594 510.859375 C 523.261719 510.832031 523.339844 510.800781 523.417969 510.765625 C 523.519531 510.730469 523.621094 510.691406 523.722656 510.648438 C 523.804688 510.613281 523.886719 510.578125 523.972656 510.542969 C 524.066406 510.5 524.160156 510.460938 524.253906 510.414062 C 524.339844 510.375 524.421875 510.332031 524.507812 510.289062 C 524.597656 510.242188 524.6875 510.199219 524.777344 510.152344 C 524.863281 510.105469 524.953125 510.054688 525.039062 510.007812 C 525.121094 509.960938 525.203125 509.914062 525.285156 509.859375 C 525.378906 509.808594 525.464844 509.753906 525.550781 509.699219 C 525.628906 509.648438 525.707031 509.597656 525.789062 509.546875 C 525.875 509.488281 525.964844 509.421875 526.050781 509.359375 C 526.125 509.308594 526.203125 509.253906 526.273438 509.199219 C 526.363281 509.136719 526.445312 509.070312 526.53125 509 C 526.605469 508.941406 526.675781 508.882812 526.75 508.824219 C 526.832031 508.753906 526.914062 508.6875 526.996094 508.613281 C 527.066406 508.550781 527.144531 508.484375 527.214844 508.417969 C 527.289062 508.347656 527.367188 508.277344 527.441406 508.203125 C 527.472656 508.171875 527.511719 508.144531 527.539062 508.105469 C 527.582031 508.0625 527.625 508.019531 527.667969 507.976562 C 527.707031 507.9375 527.746094 507.898438 527.785156 507.855469 L 679.117188 348.246094 C 683.609375 343.511719 683.414062 336.027344 678.675781 331.535156 C 673.933594 327.039062 666.453125 327.242188 661.960938 331.980469 L 519.007812 482.746094 L 446.046875 409.320312 "/><path style=" stroke:none;fill-rule:nonzero;fill:#ffffff;fill-opacity:1;" d="M 148.710938 368.386719 C 148.710938 361.855469 143.417969 356.5625 136.886719 356.5625 L 59.234375 356.5625 C 52.707031 356.5625 47.414062 361.855469 47.414062 368.386719 C 47.414062 374.914062 52.707031 380.207031 59.234375 380.207031 L 136.886719 380.207031 C 143.417969 380.207031 148.710938 374.914062 148.710938 368.386719 "/><path style=" stroke:none;fill-rule:nonzero;fill:#ffffff;fill-opacity:1;" d="M 260.875 368.386719 C 260.875 361.855469 255.582031 356.5625 249.050781 356.5625 L 238.265625 356.5625 C 231.738281 356.5625 226.445312 361.855469 226.445312 368.386719 C 226.445312 374.914062 231.738281 380.207031 238.265625 380.207031 L 249.050781 380.207031 C 255.582031 380.207031 260.875 374.914062 260.875 368.386719 "/><path style=" stroke:none;fill-rule:nonzero;fill:#ffffff;fill-opacity:1;" d="M 166.007812 496.539062 L 88.355469 496.539062 C 81.824219 496.539062 76.535156 501.828125 76.535156 508.359375 C 76.535156 514.890625 81.824219 520.183594 88.355469 520.183594 L 166.007812 520.183594 C 172.535156 520.183594 177.832031 514.890625 177.832031 508.359375 C 177.832031 501.828125 172.535156 496.539062 166.007812 496.539062 "/><g clip-rule="nonzero" clip-path="url(#6bb17b612b)"><path style=" stroke:none;fill-rule:nonzero;fill:#ffffff;fill-opacity:1;" d="M 32.214844 496.539062 L 21.429688 496.539062 C 14.898438 496.539062 9.605469 501.828125 9.605469 508.359375 C 9.605469 514.890625 14.898438 520.183594 21.429688 520.183594 L 32.214844 520.183594 C 38.742188 520.183594 44.035156 514.890625 44.035156 508.359375 C 44.035156 501.828125 38.742188 496.539062 32.214844 496.539062 "/></g><path style=" stroke:none;fill-rule:nonzero;fill:#ffffff;fill-opacity:1;" d="M 151.988281 643.445312 L 121.789062 643.445312 C 115.261719 643.445312 109.964844 648.742188 109.964844 655.265625 C 109.964844 661.796875 115.261719 667.089844 121.789062 667.089844 L 151.988281 667.089844 C 158.515625 667.089844 163.808594 661.796875 163.808594 655.265625 C 163.808594 648.742188 158.515625 643.445312 151.988281 643.445312 "/><path style=" stroke:none;fill-rule:nonzero;fill:#ffffff;fill-opacity:1;" d="M 306.351562 643.445312 L 229.636719 643.445312 C 223.109375 643.445312 217.816406 648.742188 217.816406 655.265625 C 217.816406 661.796875 223.109375 667.089844 229.636719 667.089844 L 306.351562 667.089844 C 312.882812 667.089844 318.171875 661.796875 318.171875 655.265625 C 318.171875 648.742188 312.882812 643.445312 306.351562 643.445312 "/><path style=" stroke:none;fill-rule:nonzero;fill:#ffffff;fill-opacity:1;" d="M 229.636719 252.460938 L 268.464844 252.460938 C 274.996094 252.460938 280.289062 247.167969 280.289062 240.636719 C 280.289062 234.113281 274.996094 228.816406 268.464844 228.816406 L 229.636719 228.816406 C 223.109375 228.816406 217.816406 234.113281 217.816406 240.636719 C 217.816406 247.167969 223.109375 252.460938 229.636719 252.460938 "/><path style=" stroke:none;fill-rule:nonzero;fill:#ffffff;fill-opacity:1;" d="M 141.203125 252.460938 L 151.988281 252.460938 C 158.515625 252.460938 163.808594 247.167969 163.808594 240.636719 C 163.808594 234.113281 158.515625 228.816406 151.988281 228.816406 L 141.203125 228.816406 C 134.671875 228.816406 129.378906 234.113281 129.378906 240.636719 C 129.378906 247.167969 134.671875 252.460938 141.203125 252.460938 "/></g></svg>