<svg xmlns="http://www.w3.org/2000/svg" xmlns:xlink="http://www.w3.org/1999/xlink" width="1080" zoomAndPan="magnify" viewBox="0 0 810 809.999993" height="1080" preserveAspectRatio="xMidYMid meet" version="1.2"><defs><clipPath id="446dcd2fbf"><path d="M 17 20 L 793 20 L 793 796.792969 L 17 796.792969 Z M 17 20 "/></clipPath></defs><g id="01f1da88ed"><g clip-rule="nonzero" clip-path="url(#446dcd2fbf)"><path style=" stroke:none;fill-rule:evenodd;fill:#ffffff;fill-opacity:1;" d="M 456.894531 331.660156 C 476.53125 336.730469 495.121094 344.46875 512.554688 354.777344 L 528.210938 339.117188 C 537.558594 329.769531 552.738281 329.769531 562.082031 339.117188 L 604.703125 381.734375 C 614.046875 391.082031 614.046875 406.257812 604.703125 415.605469 L 589.058594 431.246094 C 599.367188 448.679688 607.105469 467.289062 612.175781 486.925781 L 634.246094 486.925781 C 647.453125 486.925781 658.207031 497.746094 658.207031 510.882812 L 658.207031 571.152344 C 658.207031 584.359375 647.46875 595.113281 634.246094 595.113281 L 612.175781 595.113281 C 607.121094 614.746094 599.367188 633.339844 589.058594 650.773438 L 604.71875 666.429688 C 614.0625 675.777344 614.0625 690.953125 604.71875 700.300781 L 562.097656 742.917969 C 552.753906 752.265625 537.574219 752.265625 528.230469 742.917969 L 512.585938 727.277344 C 495.15625 737.582031 476.546875 745.320312 456.910156 750.390625 L 456.910156 772.464844 C 456.910156 785.671875 446.089844 796.425781 432.949219 796.425781 L 372.683594 796.425781 C 359.476562 796.425781 348.722656 785.6875 348.722656 772.464844 L 348.722656 750.390625 C 329.085938 745.320312 310.496094 737.582031 293.0625 727.277344 L 277.402344 742.9375 C 268.058594 752.28125 252.878906 752.28125 243.535156 742.9375 L 200.914062 700.300781 C 191.570312 690.953125 191.570312 675.777344 200.914062 666.429688 L 216.558594 650.789062 C 206.25 633.355469 198.511719 614.746094 193.441406 595.113281 L 171.371094 595.113281 C 158.164062 595.113281 147.410156 584.375 147.410156 571.152344 L 147.410156 510.882812 C 147.410156 504.324219 150.109375 498.339844 154.46875 493.984375 L 154.433594 493.949219 C 158.777344 489.609375 164.757812 486.925781 171.371094 486.925781 L 193.441406 486.925781 C 198.511719 467.289062 206.25 448.695312 216.558594 431.265625 L 200.914062 415.621094 C 191.570312 406.277344 191.570312 391.097656 200.914062 381.753906 L 243.535156 339.132812 C 252.878906 329.789062 268.058594 329.789062 277.402344 339.132812 L 293.0625 354.792969 C 310.496094 344.484375 329.085938 336.746094 348.722656 331.675781 L 348.722656 309.605469 C 348.722656 303.042969 351.421875 297.0625 355.78125 292.703125 L 355.75 292.667969 C 360.089844 288.328125 366.070312 285.644531 372.683594 285.644531 L 432.949219 285.644531 C 446.074219 285.644531 456.910156 296.464844 456.910156 309.605469 L 456.910156 331.660156 Z M 375.648438 207.464844 C 375.648438 215.699219 368.972656 222.378906 360.734375 222.378906 C 352.5 222.378906 345.824219 215.699219 345.824219 207.464844 L 345.824219 158.070312 L 297.503906 158.070312 C 284.230469 158.070312 277.554688 141.929688 287.0625 132.515625 L 394.289062 25.289062 C 400.105469 19.476562 409.550781 19.476562 415.386719 25.289062 L 522.710938 132.617188 C 532.121094 142.027344 525.347656 158.070312 512.171875 158.070312 L 463.871094 158.070312 L 463.871094 262.644531 C 463.871094 270.878906 457.191406 277.558594 448.957031 277.558594 C 440.722656 277.558594 434.042969 270.878906 434.042969 262.644531 L 434.042969 143.15625 C 434.042969 134.921875 440.722656 128.242188 448.957031 128.242188 L 476.179688 128.242188 L 404.828125 56.921875 L 333.511719 128.242188 L 360.734375 128.242188 C 368.972656 128.242188 375.648438 134.921875 375.648438 143.15625 Z M 198.332031 357.210938 L 198.332031 247.53125 L 246.648438 247.53125 C 259.921875 247.53125 266.601562 231.394531 257.089844 221.980469 L 149.863281 114.753906 C 144.046875 108.9375 134.601562 108.9375 128.769531 114.753906 L 21.457031 222.082031 C 12.046875 231.492188 18.824219 247.53125 31.996094 247.53125 L 80.316406 247.53125 L 80.316406 515.34375 C 80.316406 523.578125 86.992188 530.253906 95.230469 530.253906 C 103.464844 530.253906 110.144531 523.578125 110.144531 515.34375 L 110.144531 232.636719 C 110.144531 224.398438 103.464844 217.722656 95.230469 217.722656 L 68.003906 217.722656 L 139.324219 146.402344 L 210.640625 217.722656 L 183.417969 217.722656 C 175.179688 217.722656 168.503906 224.398438 168.503906 232.636719 L 168.503906 357.226562 C 168.503906 365.464844 175.179688 372.140625 183.417969 372.140625 C 191.652344 372.125 198.332031 365.464844 198.332031 357.210938 Z M 641.15625 357.210938 L 641.15625 232.617188 C 641.15625 224.382812 634.476562 217.707031 626.242188 217.707031 L 599.015625 217.707031 L 670.335938 146.386719 L 741.65625 217.707031 L 714.429688 217.707031 C 706.195312 217.707031 699.515625 224.382812 699.515625 232.617188 L 699.515625 515.34375 C 699.515625 523.578125 706.195312 530.253906 714.429688 530.253906 C 722.664062 530.253906 729.34375 523.578125 729.34375 515.34375 L 729.34375 247.546875 L 777.644531 247.546875 C 790.820312 247.546875 797.597656 231.507812 788.183594 222.097656 L 680.890625 114.769531 C 675.074219 108.953125 665.628906 108.953125 659.796875 114.769531 L 552.570312 221.996094 C 543.058594 231.425781 549.753906 247.546875 563.011719 247.546875 L 611.328125 247.546875 L 611.328125 357.226562 C 611.328125 365.464844 618.007812 372.140625 626.242188 372.140625 C 634.476562 372.125 641.15625 365.445312 641.15625 357.210938 Z M 402.808594 469.425781 C 446.453125 469.425781 471.574219 519.085938 446.089844 554.214844 C 463.324219 560.28125 479.082031 569.941406 492.355469 582.816406 C 522.746094 517.8125 475.371094 442.21875 402.808594 442.21875 C 330.246094 442.21875 282.871094 517.8125 313.261719 582.816406 C 326.535156 569.941406 342.308594 560.265625 359.511719 554.199219 C 334.058594 519.070312 359.179688 469.425781 402.808594 469.425781 Z M 419.511719 506.179688 C 404.679688 491.347656 379.195312 501.886719 379.195312 522.882812 C 379.195312 543.859375 404.679688 554.414062 419.511719 539.585938 C 428.722656 530.355469 428.722656 515.390625 419.511719 506.179688 Z M 475.402344 608.035156 C 456.496094 587.554688 430.164062 576.554688 402.808594 576.554688 L 402.808594 576.621094 C 375.382812 576.621094 349.121094 587.570312 330.214844 608.035156 C 369.351562 650.40625 436.28125 650.40625 475.402344 608.035156 Z M 402.808594 412.390625 C 331.769531 412.390625 274.1875 469.972656 274.1875 541.007812 C 274.1875 612.046875 331.769531 669.628906 402.808594 669.628906 C 473.84375 669.628906 531.425781 612.046875 531.425781 541.007812 C 531.425781 469.988281 473.84375 412.390625 402.808594 412.390625 Z M 474.109375 368.746094 C 464.964844 364.949219 455.433594 361.867188 445.578125 359.546875 C 434.6875 356.996094 427.066406 347.351562 427.066406 336.234375 L 427.066406 315.453125 L 378.550781 315.453125 L 378.550781 336.234375 C 378.550781 347.300781 370.828125 357.011719 360.039062 359.546875 C 340.421875 364.15625 321.613281 371.976562 304.695312 382.464844 C 295.167969 388.378906 283.039062 386.9375 275.183594 379.085938 L 260.46875 364.371094 L 226.152344 398.6875 L 240.867188 413.402344 L 240.832031 413.433594 C 248.703125 421.058594 250.144531 433.402344 244.246094 442.914062 C 233.757812 459.832031 225.9375 478.640625 221.328125 498.257812 C 220.054688 503.691406 217.039062 508.300781 212.910156 511.5625 L 212.894531 511.53125 C 208.835938 514.828125 203.46875 516.75 198.03125 516.75 L 177.253906 516.75 L 177.253906 565.269531 L 198.03125 565.269531 C 203.582031 565.269531 208.769531 567.175781 212.929688 570.472656 L 212.910156 570.503906 C 217.054688 573.800781 220.085938 578.410156 221.347656 583.792969 C 225.953125 603.414062 233.773438 622.222656 244.261719 639.140625 C 250.144531 648.617188 248.71875 660.796875 240.882812 668.652344 L 226.167969 683.367188 L 260.484375 717.683594 L 275.199219 702.96875 C 283.054688 695.113281 295.183594 693.671875 304.710938 699.585938 C 321.628906 710.078125 340.4375 717.898438 360.054688 722.503906 C 370.84375 725.039062 378.566406 734.683594 378.566406 745.820312 L 378.566406 766.582031 L 427.082031 766.582031 L 427.082031 745.800781 C 427.082031 734.71875 434.753906 725.039062 445.59375 722.488281 C 465.210938 717.882812 484.019531 710.058594 500.9375 699.570312 C 510.433594 693.6875 522.59375 695.113281 530.449219 702.953125 L 545.164062 717.664062 L 579.480469 683.347656 L 564.765625 668.632812 C 556.914062 660.78125 555.46875 648.667969 561.386719 639.121094 C 571.875 622.203125 579.695312 603.398438 584.304688 583.777344 C 585.578125 578.34375 588.59375 573.734375 592.722656 570.472656 L 592.738281 570.503906 C 596.863281 567.191406 602.117188 565.285156 607.601562 565.285156 L 628.378906 565.285156 L 628.378906 516.765625 L 607.601562 516.765625 C 596.515625 516.765625 586.839844 509.09375 584.285156 498.257812 C 579.679688 478.640625 571.859375 459.832031 561.371094 442.914062 C 555.453125 433.386719 556.894531 421.253906 564.75 413.402344 L 579.464844 398.6875 L 545.148438 364.371094 L 530.433594 379.085938 C 522.578125 386.9375 510.464844 388.378906 500.921875 382.464844 C 492.519531 377.261719 483.554688 372.65625 474.109375 368.746094 Z M 474.109375 368.746094 "/></g></g></svg>