<svg xmlns="http://www.w3.org/2000/svg" xmlns:xlink="http://www.w3.org/1999/xlink" width="1080" zoomAndPan="magnify" viewBox="0 0 810 809.999993" height="1080" preserveAspectRatio="xMidYMid meet" version="1.2"><g id="8619e17e30"><path style=" stroke:none;fill-rule:evenodd;fill:#545454;fill-opacity:1;" d="M 47.675781 376.480469 C 51.90625 378.589844 56.960938 378.128906 60.738281 375.289062 L 92.238281 351.601562 L 123.738281 375.289062 C 125.941406 376.945312 128.578125 377.792969 131.234375 377.792969 C 133.132812 377.792969 135.039062 377.359375 136.800781 376.480469 C 141.03125 374.371094 143.703125 370.050781 143.703125 365.324219 L 143.703125 265.65625 C 143.703125 261.203125 141.324219 257.085938 137.46875 254.859375 L 104.707031 235.945312 L 104.707031 144.300781 L 166.515625 160.71875 L 166.515625 336.441406 C 166.515625 342.460938 170.820312 347.625 176.742188 348.707031 C 216.25 355.929688 248.824219 362.226562 274.996094 367.289062 C 342.339844 380.304688 376.644531 386.816406 410.949219 386.816406 C 445.257812 386.816406 479.5625 380.304688 546.902344 367.289062 C 573.074219 362.226562 605.648438 355.929688 645.160156 348.707031 C 651.082031 347.625 655.386719 342.464844 655.386719 336.441406 L 655.386719 160.722656 L 753.390625 134.6875 C 758.851562 133.238281 762.65625 128.292969 762.65625 122.636719 C 762.65625 116.984375 758.851562 112.039062 753.390625 110.585938 L 414.15625 20.472656 C 412.054688 19.917969 409.851562 19.917969 407.753906 20.472656 L 68.515625 110.585938 C 63.054688 112.039062 59.25 116.984375 59.25 122.636719 C 59.25 128.292969 63.054688 133.238281 68.515625 134.6875 L 79.773438 137.675781 L 79.773438 235.945312 L 47.011719 254.859375 C 43.15625 257.085938 40.777344 261.203125 40.777344 265.65625 L 40.777344 365.324219 C 40.777344 370.050781 43.449219 374.371094 47.675781 376.480469 Z M 630.449219 326.054688 C 595.390625 332.515625 566.109375 338.175781 542.171875 342.804688 C 410.953125 368.171875 410.953125 368.167969 279.734375 342.804688 C 255.796875 338.175781 226.515625 332.515625 191.457031 326.054688 L 191.457031 167.34375 L 407.753906 224.800781 C 408.800781 225.078125 409.878906 225.21875 410.953125 225.21875 C 412.03125 225.21875 413.105469 225.078125 414.15625 224.800781 L 630.449219 167.34375 Z M 410.953125 45.425781 L 701.621094 122.636719 L 410.953125 199.851562 L 120.285156 122.636719 Z M 65.714844 272.855469 L 92.242188 257.542969 L 118.769531 272.855469 L 118.769531 340.347656 L 99.734375 326.035156 C 97.515625 324.367188 94.878906 323.53125 92.242188 323.53125 C 89.605469 323.53125 86.96875 324.367188 84.75 326.035156 L 65.714844 340.347656 Z M 780.324219 486.523438 C 772.964844 474.242188 742.777344 437.78125 663.085938 484.195312 L 522.574219 566.035156 C 515.527344 570.140625 508.363281 573.035156 500.886719 574.765625 C 503.65625 570.320312 505.828125 565.292969 507.320312 559.730469 C 514.503906 532.921875 498.566406 504.933594 471.042969 496.007812 C 470.507812 495.835938 469.964844 495.699219 469.410156 495.597656 C 429.027344 488.316406 389.171875 473.90625 357.144531 462.328125 C 346.015625 458.304688 335.507812 454.503906 326.570312 451.609375 C 290.59375 439.9375 258.074219 454.386719 231.007812 470.054688 L 126.464844 530.582031 L 116.609375 513.167969 C 112.257812 505.480469 105.15625 499.941406 96.605469 497.570312 C 88.054688 495.199219 79.109375 496.289062 71.425781 500.640625 L 32 522.953125 C 24.3125 527.304688 18.773438 534.410156 16.402344 542.960938 C 14.03125 551.511719 15.125 560.453125 19.476562 568.140625 L 135.382812 772.941406 C 141.476562 783.707031 152.726562 789.761719 164.292969 789.761719 C 169.824219 789.761719 175.425781 788.378906 180.570312 785.46875 L 219.992188 763.15625 C 227.679688 758.804688 233.21875 751.699219 235.589844 743.148438 C 237.960938 734.597656 236.871094 725.65625 232.519531 717.96875 L 220.570312 696.851562 L 244.398438 683.09375 L 424.367188 731.316406 C 434.53125 734.042969 444.507812 735.402344 454.269531 735.402344 C 473.734375 735.402344 492.339844 729.996094 509.851562 719.214844 L 764.851562 562.199219 C 788.097656 547.886719 795.472656 511.816406 780.324219 486.523438 Z M 211.558594 736.488281 C 210.96875 738.621094 209.601562 740.382812 207.710938 741.453125 L 168.285156 763.765625 C 166.398438 764.835938 164.183594 765.101562 162.046875 764.511719 C 159.917969 763.917969 158.152344 762.550781 157.085938 760.664062 L 41.175781 555.859375 C 40.105469 553.96875 39.84375 551.753906 40.433594 549.625 C 41.023438 547.492188 42.390625 545.726562 44.28125 544.660156 L 83.707031 522.347656 C 84.9375 521.648438 86.304688 521.292969 87.699219 521.292969 C 88.445312 521.292969 89.199219 521.394531 89.945312 521.601562 C 92.074219 522.195312 93.839844 523.558594 94.90625 525.449219 L 210.816406 730.25 C 211.886719 732.140625 212.152344 734.355469 211.558594 736.488281 Z M 751.777344 540.960938 L 496.777344 697.980469 C 476.554688 710.429688 454.367188 713.542969 430.820312 707.230469 L 245.863281 657.671875 C 242.667969 656.816406 239.265625 657.265625 236.402344 658.914062 L 208.285156 675.148438 L 138.75 552.285156 L 243.5 491.636719 C 266.933594 478.070312 292.289062 466.707031 318.875 475.328125 C 327.417969 478.097656 337.261719 481.65625 348.664062 485.78125 C 381.339844 497.59375 421.949219 512.273438 464.082031 519.976562 C 478.765625 525.109375 486.976562 539.292969 483.230469 553.277344 C 478.300781 571.675781 462.972656 573.964844 450.777344 572.566406 C 430.082031 568.3125 410.414062 562.699219 389.605469 556.753906 C 379.734375 553.9375 369.527344 551.019531 359.035156 548.210938 C 352.382812 546.433594 345.546875 550.375 343.765625 557.027344 C 341.984375 563.679688 345.929688 570.515625 352.582031 572.300781 C 362.875 575.058594 372.980469 577.941406 382.753906 580.734375 C 404.203125 586.859375 424.457031 592.644531 446.269531 597.101562 C 446.351562 597.121094 446.4375 597.125 446.519531 597.140625 C 446.601562 597.15625 446.679688 597.179688 446.765625 597.195312 L 464.238281 600.035156 C 490.371094 604.21875 513.554688 600.144531 535.121094 587.585938 L 675.636719 505.746094 C 716.085938 482.1875 747.222656 479.789062 758.929688 499.335938 C 766.996094 512.804688 763.390625 533.8125 751.777344 540.960938 Z M 95.144531 561.898438 C 96.269531 569.589844 90.945312 576.738281 83.253906 577.863281 C 75.5625 578.988281 68.414062 573.664062 67.289062 565.972656 C 66.164062 558.28125 71.488281 551.132812 79.179688 550.007812 C 86.871094 548.882812 94.019531 554.207031 95.144531 561.898438 Z M 95.144531 561.898438 "/></g></svg>