<svg xmlns="http://www.w3.org/2000/svg" xmlns:xlink="http://www.w3.org/1999/xlink" width="1080" zoomAndPan="magnify" viewBox="0 0 810 809.999993" height="1080" preserveAspectRatio="xMidYMid meet" version="1.2"><defs><clipPath id="5a061e3871"><path d="M 59.902344 68.121094 L 311.957031 68.121094 L 311.957031 320.175781 L 59.902344 320.175781 Z M 59.902344 68.121094 "/></clipPath><clipPath id="e5a3f7e611"><path d="M 185.929688 68.121094 C 116.328125 68.121094 59.902344 124.546875 59.902344 194.148438 C 59.902344 263.75 116.328125 320.175781 185.929688 320.175781 C 255.53125 320.175781 311.957031 263.75 311.957031 194.148438 C 311.957031 124.546875 255.53125 68.121094 185.929688 68.121094 Z M 185.929688 68.121094 "/></clipPath><clipPath id="fe2272ad1e"><path d="M 59.902344 62.476562 L 323 62.476562 L 323 325.726562 L 59.902344 325.726562 Z M 59.902344 62.476562 "/></clipPath></defs><g id="2e7f71c911"><path style=" stroke:none;fill-rule:nonzero;fill:#ffffff;fill-opacity:1;" d="M 427.109375 100.855469 C 415.492188 100.863281 403.910156 101.523438 392.363281 102.828125 C 380.820312 104.132812 369.382812 106.078125 358.054688 108.664062 C 346.726562 111.25 335.578125 114.460938 324.613281 118.296875 C 313.644531 122.128906 302.925781 126.5625 292.453125 131.597656 C 291.269531 129.617188 290.027344 127.671875 288.730469 125.761719 C 287.433594 123.851562 286.078125 121.984375 284.675781 120.152344 C 283.269531 118.324219 281.808594 116.535156 280.300781 114.789062 C 278.789062 113.042969 277.230469 111.339844 275.625 109.6875 C 274.015625 108.03125 272.359375 106.421875 270.660156 104.863281 C 268.957031 103.304688 267.210938 101.796875 265.421875 100.335938 C 263.632812 98.878906 261.804688 97.472656 259.933594 96.121094 C 258.0625 94.769531 256.15625 93.472656 254.207031 92.230469 C 252.261719 90.988281 250.28125 89.804688 248.269531 88.679688 C 246.253906 87.550781 244.207031 86.484375 242.132812 85.476562 C 240.054688 84.46875 237.953125 83.519531 235.820312 82.636719 C 233.691406 81.75 231.535156 80.925781 229.355469 80.164062 C 227.175781 79.402344 224.976562 78.707031 222.757812 78.074219 C 220.539062 77.4375 218.300781 76.871094 216.050781 76.367188 C 213.796875 75.863281 211.53125 75.425781 209.253906 75.050781 C 206.976562 74.679688 204.691406 74.375 202.394531 74.132812 C 200.097656 73.894531 197.796875 73.722656 195.492188 73.613281 C 193.1875 73.507812 190.878906 73.46875 188.570312 73.496094 C 186.261719 73.523438 183.957031 73.617188 181.65625 73.777344 C 179.351562 73.941406 177.058594 74.167969 174.769531 74.460938 C 172.480469 74.757812 170.199219 75.117188 167.929688 75.542969 C 165.664062 75.96875 163.410156 76.460938 161.167969 77.019531 C 158.929688 77.574219 156.707031 78.195312 154.503906 78.882812 C 152.300781 79.570312 150.117188 80.320312 147.957031 81.132812 C 145.796875 81.945312 143.660156 82.816406 141.550781 83.753906 C 139.441406 84.691406 137.363281 85.6875 135.308594 86.746094 C 133.257812 87.800781 131.238281 88.917969 129.25 90.089844 C 127.265625 91.265625 125.3125 92.496094 123.398438 93.785156 C 121.480469 95.070312 119.605469 96.414062 117.765625 97.808594 C 115.929688 99.207031 114.132812 100.652344 112.378906 102.15625 C 110.625 103.65625 108.917969 105.203125 107.253906 106.804688 C 105.589844 108.402344 103.972656 110.050781 102.402344 111.742188 C 100.835938 113.4375 99.316406 115.175781 97.847656 116.957031 C 96.382812 118.738281 94.964844 120.558594 93.605469 122.421875 C 92.242188 124.285156 90.933594 126.1875 89.683594 128.125 C 88.429688 130.066406 87.238281 132.039062 86.097656 134.046875 C 84.960938 136.054688 83.882812 138.09375 82.863281 140.167969 C 81.84375 142.238281 80.886719 144.335938 79.988281 146.460938 C 79.09375 148.589844 78.257812 150.738281 77.484375 152.914062 C 76.710938 155.089844 76.003906 157.285156 75.359375 159.5 C 74.714844 161.71875 74.132812 163.949219 73.617188 166.199219 C 73.101562 168.449219 72.652344 170.714844 72.265625 172.988281 C 71.882812 175.265625 71.5625 177.550781 71.3125 179.84375 C 71.058594 182.136719 70.875 184.4375 70.753906 186.742188 C 70.636719 189.046875 70.585938 191.355469 70.601562 193.664062 C 70.617188 195.972656 70.699219 198.277344 70.847656 200.578125 C 70.996094 202.882812 71.210938 205.179688 71.492188 207.472656 C 71.773438 209.761719 72.125 212.042969 72.539062 214.3125 C 72.953125 216.585938 73.433594 218.839844 73.976562 221.082031 C 74.523438 223.328125 75.132812 225.550781 75.804688 227.757812 C 76.480469 229.964844 77.21875 232.152344 78.019531 234.316406 C 78.820312 236.480469 79.683594 238.621094 80.609375 240.734375 C 81.535156 242.851562 82.519531 244.9375 83.566406 246.992188 C 84.613281 249.050781 85.71875 251.078125 86.878906 253.070312 C 88.042969 255.0625 89.265625 257.019531 90.542969 258.945312 C 91.820312 260.867188 93.152344 262.75 94.539062 264.59375 C 95.921875 266.441406 97.363281 268.246094 98.855469 270.007812 C 100.34375 271.769531 101.886719 273.484375 103.476562 275.15625 C 105.066406 276.832031 106.703125 278.457031 108.390625 280.03125 C 110.074219 281.609375 111.804688 283.136719 113.578125 284.613281 C 115.351562 286.09375 117.164062 287.515625 119.019531 288.890625 C 120.878906 290.261719 122.773438 291.578125 124.703125 292.839844 C 126.636719 294.101562 128.605469 295.308594 130.605469 296.457031 C 132.609375 297.601562 134.644531 298.691406 136.707031 299.722656 C 135.175781 303.660156 133.726562 307.625 132.359375 311.621094 C 130.988281 315.617188 129.699219 319.636719 128.496094 323.6875 C 127.289062 327.734375 126.167969 331.804688 125.125 335.898438 C 124.085938 339.992188 123.128906 344.105469 122.257812 348.238281 C 121.386719 352.371094 120.597656 356.519531 119.894531 360.683594 C 119.191406 364.847656 118.570312 369.027344 118.039062 373.214844 C 117.503906 377.40625 117.054688 381.605469 116.691406 385.8125 C 116.328125 390.023438 116.054688 394.234375 115.863281 398.457031 C 115.671875 402.675781 115.566406 406.894531 115.546875 411.121094 C 115.527344 415.34375 115.59375 419.566406 115.746094 423.785156 C 115.898438 428.007812 116.136719 432.222656 116.460938 436.433594 C 116.785156 440.648438 117.195312 444.851562 117.6875 449.042969 C 118.183594 453.238281 118.765625 457.421875 119.429688 461.59375 C 120.09375 465.765625 120.84375 469.917969 121.679688 474.058594 C 122.515625 478.199219 123.433594 482.324219 124.433594 486.425781 C 125.4375 490.527344 126.523438 494.609375 127.691406 498.667969 C 128.859375 502.726562 130.109375 506.761719 131.441406 510.769531 C 132.773438 514.777344 134.1875 518.757812 135.683594 522.707031 C 137.179688 526.65625 138.753906 530.574219 140.40625 534.460938 C 142.058594 538.347656 143.792969 542.199219 145.601562 546.015625 C 147.414062 549.832031 149.300781 553.609375 151.265625 557.347656 C 153.230469 561.085938 155.269531 564.785156 157.386719 568.441406 C 159.5 572.097656 161.691406 575.707031 163.953125 579.277344 C 166.214844 582.84375 168.546875 586.363281 170.953125 589.835938 C 173.359375 593.304688 175.832031 596.726562 178.378906 600.097656 C 180.921875 603.46875 183.535156 606.789062 186.214844 610.054688 C 188.894531 613.316406 191.640625 616.527344 194.449219 619.679688 C 197.257812 622.832031 200.132812 625.929688 203.070312 628.964844 C 206.003906 632 209 634.976562 212.058594 637.890625 C 215.117188 640.804688 218.230469 643.65625 221.40625 646.441406 C 224.578125 649.230469 227.808594 651.953125 231.089844 654.609375 C 234.375 657.265625 237.710938 659.851562 241.101562 662.371094 C 243.980469 664.515625 246.894531 666.605469 249.84375 668.648438 C 252.792969 670.6875 255.78125 672.679688 258.796875 674.617188 C 261.816406 676.554688 264.867188 678.441406 267.953125 680.273438 C 271.039062 682.105469 274.152344 683.882812 277.296875 685.609375 C 280.445312 687.335938 283.617188 689.003906 286.820312 690.621094 C 290.023438 692.234375 293.253906 693.792969 296.511719 695.296875 C 299.769531 696.800781 303.050781 698.25 306.359375 699.640625 C 309.664062 701.03125 312.996094 702.363281 316.347656 703.640625 C 319.703125 704.914062 323.078125 706.132812 326.472656 707.289062 C 329.867188 708.449219 333.28125 709.550781 336.714844 710.589844 C 340.148438 711.628906 343.597656 712.613281 347.066406 713.535156 C 350.53125 714.457031 354.015625 715.316406 357.511719 716.117188 C 361.007812 716.917969 364.519531 717.660156 368.039062 718.339844 C 371.5625 719.019531 375.097656 719.640625 378.640625 720.199219 C 382.183594 720.757812 385.734375 721.253906 389.296875 721.6875 C 392.859375 722.125 396.425781 722.496094 400 722.808594 C 403.574219 723.121094 407.152344 723.371094 410.734375 723.5625 C 414.316406 723.75 417.902344 723.875 421.488281 723.941406 C 425.074219 724.003906 428.664062 724.007812 432.25 723.949219 C 435.835938 723.890625 439.421875 723.769531 443.003906 723.585938 C 446.589844 723.402344 450.167969 723.15625 453.742188 722.851562 C 457.316406 722.542969 460.882812 722.175781 464.445312 721.746094 C 468.007812 721.316406 471.558594 720.824219 475.105469 720.273438 C 478.648438 719.71875 482.183594 719.105469 485.707031 718.429688 C 489.230469 717.757812 492.742188 717.019531 496.238281 716.226562 C 499.738281 715.429688 503.222656 714.574219 506.691406 713.65625 C 510.160156 712.738281 513.609375 711.765625 517.046875 710.726562 C 520.480469 709.691406 523.894531 708.597656 527.292969 707.445312 C 530.691406 706.289062 534.066406 705.078125 537.421875 703.808594 C 540.777344 702.539062 544.109375 701.210938 547.417969 699.824219 C 550.726562 698.441406 554.011719 696.996094 557.269531 695.5 C 560.53125 694 563.761719 692.445312 566.96875 690.835938 C 570.175781 689.226562 573.351562 687.558594 576.5 685.839844 C 579.648438 684.117188 582.765625 682.34375 585.851562 680.515625 C 588.941406 678.6875 591.996094 676.808594 595.015625 674.875 C 598.039062 672.941406 601.027344 670.957031 603.980469 668.917969 C 606.933594 666.882812 609.851562 664.796875 612.730469 662.660156 C 615.613281 660.519531 618.457031 658.335938 621.261719 656.097656 C 624.066406 653.863281 626.835938 651.578125 629.5625 649.25 C 632.289062 646.917969 634.972656 644.539062 637.617188 642.117188 C 640.261719 639.691406 642.867188 637.222656 645.425781 634.707031 C 647.984375 632.195312 650.5 629.636719 652.972656 627.035156 C 655.441406 624.4375 657.867188 621.792969 660.246094 619.109375 C 662.628906 616.421875 664.960938 613.699219 667.246094 610.933594 C 669.53125 608.167969 671.769531 605.363281 673.957031 602.523438 C 676.144531 599.679688 678.285156 596.800781 680.375 593.882812 C 682.464844 590.96875 684.503906 588.015625 686.488281 585.027344 C 688.476562 582.042969 690.414062 579.023438 692.296875 575.96875 C 694.179688 572.914062 696.007812 569.828125 697.785156 566.714844 C 699.5625 563.597656 701.285156 560.449219 702.953125 557.273438 C 704.621094 554.097656 706.230469 550.894531 707.789062 547.660156 C 709.347656 544.429688 710.847656 541.171875 712.292969 537.886719 C 713.734375 534.601562 715.125 531.296875 716.453125 527.964844 C 717.785156 524.632812 719.054688 521.277344 720.269531 517.902344 C 721.484375 514.527344 722.640625 511.128906 723.738281 507.714844 C 724.835938 504.300781 725.875 500.863281 726.851562 497.414062 C 727.832031 493.960938 728.75 490.496094 729.609375 487.011719 C 730.464844 483.527344 731.265625 480.03125 732.003906 476.519531 C 732.742188 473.007812 733.417969 469.488281 734.035156 465.953125 C 734.648438 462.417969 735.207031 458.875 735.699219 455.320312 C 736.191406 451.769531 736.625 448.207031 736.996094 444.636719 C 737.367188 441.070312 737.675781 437.496094 737.921875 433.917969 C 738.171875 430.339844 738.355469 426.757812 738.480469 423.171875 C 738.601562 419.585938 738.664062 416 738.664062 412.410156 C 738.660156 407.3125 738.527344 402.21875 738.273438 397.128906 C 738.015625 392.039062 737.636719 386.957031 737.132812 381.882812 C 736.628906 376.8125 736 371.753906 735.246094 366.714844 C 734.492188 361.671875 733.617188 356.652344 732.621094 351.652344 C 731.621094 346.65625 730.5 341.683594 729.257812 336.742188 C 728.015625 331.796875 726.652344 326.886719 725.167969 322.011719 C 723.6875 317.132812 722.085938 312.296875 720.363281 307.5 C 718.644531 302.699219 716.808594 297.945312 714.855469 293.238281 C 712.902344 288.53125 710.832031 283.875 708.652344 279.265625 C 706.46875 274.660156 704.175781 270.109375 701.773438 265.613281 C 699.367188 261.121094 696.855469 256.6875 694.230469 252.316406 C 691.609375 247.945312 688.882812 243.640625 686.050781 239.402344 C 683.214844 235.167969 680.28125 231 677.242188 226.90625 C 674.207031 222.8125 671.070312 218.796875 667.835938 214.859375 C 664.601562 210.917969 661.273438 207.058594 657.847656 203.285156 C 654.425781 199.507812 650.914062 195.816406 647.308594 192.210938 C 643.703125 188.609375 640.011719 185.09375 636.238281 181.671875 C 632.460938 178.246094 628.601562 174.917969 624.664062 171.683594 C 620.722656 168.449219 616.707031 165.3125 612.613281 162.277344 C 608.519531 159.238281 604.351562 156.304688 600.117188 153.472656 C 595.878906 150.636719 591.574219 147.910156 587.203125 145.289062 C 582.832031 142.667969 578.398438 140.152344 573.90625 137.75 C 569.410156 135.34375 564.859375 133.050781 560.253906 130.867188 C 555.648438 128.6875 550.988281 126.621094 546.28125 124.667969 C 541.574219 122.710938 536.820312 120.875 532.023438 119.15625 C 527.222656 117.433594 522.386719 115.832031 517.507812 114.351562 C 512.632812 112.867188 507.722656 111.503906 502.777344 110.261719 C 497.835938 109.019531 492.863281 107.898438 487.867188 106.902344 C 482.867188 105.902344 477.847656 105.027344 472.804688 104.273438 C 467.765625 103.519531 462.707031 102.890625 457.636719 102.386719 C 452.5625 101.882812 447.480469 101.503906 442.390625 101.246094 C 437.300781 100.992188 432.207031 100.859375 427.109375 100.855469 Z M 92.882812 192.980469 C 92.878906 190.246094 92.992188 187.519531 93.21875 184.796875 C 93.445312 182.074219 93.785156 179.367188 94.238281 176.675781 C 94.695312 173.980469 95.261719 171.3125 95.941406 168.664062 C 96.621094 166.019531 97.414062 163.40625 98.3125 160.828125 C 99.214844 158.25 100.222656 155.714844 101.335938 153.21875 C 102.449219 150.726562 103.667969 148.28125 104.988281 145.890625 C 106.308594 143.5 107.726562 141.167969 109.242188 138.898438 C 110.761719 136.625 112.371094 134.421875 114.074219 132.285156 C 115.777344 130.148438 117.566406 128.089844 119.445312 126.105469 C 121.320312 124.121094 123.277344 122.21875 125.316406 120.398438 C 127.351562 118.578125 129.460938 116.847656 131.644531 115.207031 C 133.828125 113.5625 136.078125 112.015625 138.390625 110.566406 C 140.703125 109.113281 143.074219 107.761719 145.503906 106.507812 C 147.929688 105.257812 150.40625 104.109375 152.933594 103.066406 C 155.457031 102.023438 158.019531 101.085938 160.625 100.261719 C 163.226562 99.433594 165.863281 98.71875 168.527344 98.113281 C 171.191406 97.507812 173.875 97.015625 176.578125 96.640625 C 179.285156 96.261719 182 95.996094 184.730469 95.847656 C 187.457031 95.699219 190.1875 95.664062 192.917969 95.746094 C 195.648438 95.828125 198.367188 96.023438 201.082031 96.335938 C 203.796875 96.644531 206.492188 97.070312 209.171875 97.609375 C 211.847656 98.144531 214.5 98.796875 217.121094 99.558594 C 219.746094 100.320312 222.332031 101.191406 224.882812 102.171875 C 227.433594 103.152344 229.9375 104.238281 232.394531 105.429688 C 234.851562 106.621094 237.257812 107.910156 239.605469 109.304688 C 241.953125 110.699219 244.242188 112.191406 246.464844 113.777344 C 248.6875 115.363281 250.839844 117.042969 252.921875 118.8125 C 255.003906 120.578125 257.007812 122.433594 258.933594 124.371094 C 260.859375 126.308594 262.699219 128.324219 264.457031 130.414062 C 266.210938 132.507812 267.875 134.671875 269.449219 136.90625 C 271.023438 139.136719 272.5 141.433594 273.878906 143.789062 C 275.257812 146.148438 276.535156 148.558594 277.710938 151.027344 C 277.777344 151.191406 277.710938 151.359375 277.84375 151.515625 C 277.976562 151.671875 278.011719 151.683594 278.066406 151.78125 C 278.835938 153.425781 279.558594 155.085938 280.234375 156.765625 C 280.910156 158.449219 281.539062 160.148438 282.117188 161.863281 C 282.699219 163.582031 283.230469 165.3125 283.714844 167.058594 C 284.199219 168.808594 284.632812 170.566406 285.019531 172.335938 C 285.40625 174.109375 285.742188 175.886719 286.027344 177.675781 C 286.3125 179.46875 286.546875 181.261719 286.734375 183.066406 C 286.917969 184.871094 287.054688 186.675781 287.136719 188.484375 C 287.222656 190.296875 287.253906 192.109375 287.238281 193.921875 C 287.21875 195.734375 287.152344 197.542969 287.035156 199.351562 C 286.914062 201.160156 286.746094 202.964844 286.527344 204.761719 C 286.308594 206.5625 286.039062 208.351562 285.71875 210.136719 C 285.398438 211.921875 285.03125 213.695312 284.613281 215.457031 C 284.191406 217.222656 283.726562 218.972656 283.207031 220.710938 C 282.691406 222.445312 282.125 224.167969 281.511719 225.875 C 280.902344 227.578125 280.242188 229.265625 279.53125 230.933594 C 278.824219 232.601562 278.070312 234.25 277.273438 235.875 C 276.472656 237.503906 275.628906 239.105469 274.738281 240.683594 C 273.847656 242.265625 272.917969 243.816406 271.941406 245.34375 C 270.964844 246.871094 269.945312 248.371094 268.886719 249.839844 C 267.828125 251.308594 266.726562 252.75 265.585938 254.15625 C 264.445312 255.566406 263.265625 256.941406 262.046875 258.285156 C 260.832031 259.628906 259.578125 260.933594 258.285156 262.207031 C 256.996094 263.480469 255.671875 264.714844 254.308594 265.914062 C 252.949219 267.109375 251.558594 268.269531 250.132812 269.390625 C 248.707031 270.511719 247.253906 271.589844 245.769531 272.628906 C 244.285156 273.667969 242.769531 274.664062 241.230469 275.617188 C 239.691406 276.574219 238.125 277.484375 236.53125 278.351562 C 234.941406 279.21875 233.324219 280.039062 231.6875 280.816406 C 230.050781 281.589844 228.390625 282.320312 226.710938 283.003906 C 225.035156 283.6875 223.339844 284.324219 221.625 284.914062 C 219.910156 285.5 218.179688 286.042969 216.4375 286.535156 C 214.691406 287.023438 212.933594 287.46875 211.164062 287.863281 C 209.398438 288.253906 207.617188 288.597656 205.828125 288.894531 C 204.042969 289.1875 202.246094 289.429688 200.445312 289.625 C 198.640625 289.816406 196.835938 289.960938 195.027344 290.054688 C 193.214844 290.144531 191.40625 290.1875 189.59375 290.179688 C 187.78125 290.171875 185.96875 290.109375 184.160156 290 C 182.351562 289.890625 180.546875 289.730469 178.746094 289.519531 C 176.945312 289.308594 175.152344 289.046875 173.367188 288.734375 C 171.582031 288.425781 169.808594 288.0625 168.042969 287.652344 C 166.277344 287.242188 164.523438 286.78125 162.785156 286.273438 C 161.046875 285.765625 159.320312 285.207031 157.613281 284.601562 C 155.90625 283.996094 154.214844 283.34375 152.542969 282.644531 C 150.871094 281.945312 149.21875 281.199219 147.589844 280.40625 C 145.960938 279.617188 144.355469 278.777344 142.769531 277.894531 C 141.1875 277.015625 139.628906 276.089844 138.097656 275.121094 C 136.566406 274.152344 135.0625 273.140625 133.589844 272.085938 C 132.113281 271.03125 130.667969 269.9375 129.253906 268.804688 C 127.84375 267.671875 126.460938 266.5 125.113281 265.285156 C 123.765625 264.074219 122.453125 262.828125 121.171875 261.542969 C 119.894531 260.257812 118.652344 258.9375 117.449219 257.585938 C 116.246094 256.230469 115.078125 254.84375 113.953125 253.421875 C 112.824219 252.003906 111.738281 250.554688 110.691406 249.074219 C 109.648438 247.59375 108.644531 246.085938 107.683594 244.550781 C 106.722656 243.011719 105.804688 241.449219 104.929688 239.863281 C 104.054688 238.273438 103.226562 236.664062 102.441406 235.03125 C 101.660156 233.394531 100.921875 231.742188 100.230469 230.066406 C 99.539062 228.390625 98.894531 226.699219 98.296875 224.984375 C 97.703125 223.273438 97.152344 221.546875 96.652344 219.804688 C 96.152344 218.0625 95.703125 216.308594 95.300781 214.542969 C 94.898438 212.773438 94.546875 210.996094 94.246094 209.210938 C 93.941406 207.421875 93.691406 205.628906 93.488281 203.828125 C 93.289062 202.027344 93.136719 200.222656 93.035156 198.414062 C 92.933594 196.601562 92.882812 194.792969 92.882812 192.980469 Z M 261.34375 649.246094 C 262.90625 645.078125 264.628906 640.976562 266.5 636.9375 C 268.375 632.902344 270.398438 628.941406 272.574219 625.054688 C 274.746094 621.171875 277.0625 617.375 279.523438 613.664062 C 281.984375 609.957031 284.582031 606.34375 287.316406 602.832031 C 290.050781 599.316406 292.910156 595.914062 295.902344 592.617188 C 298.894531 589.320312 302.003906 586.140625 305.234375 583.078125 C 308.46875 580.019531 311.808594 577.082031 315.261719 574.273438 C 318.714844 571.464844 322.269531 568.792969 325.925781 566.25 C 329.582031 563.710938 333.324219 561.3125 337.164062 559.054688 C 341 556.796875 344.914062 554.6875 348.910156 552.726562 C 352.90625 550.769531 356.972656 548.960938 361.105469 547.304688 C 365.238281 545.652344 369.425781 544.15625 373.671875 542.820312 C 377.917969 541.484375 382.207031 540.308594 386.542969 539.296875 C 390.878906 538.285156 395.242188 537.4375 399.640625 536.753906 C 404.039062 536.070312 408.457031 535.554688 412.894531 535.207031 C 417.332031 534.855469 421.777344 534.675781 426.230469 534.664062 C 426.53125 534.664062 426.808594 534.664062 427.109375 534.664062 C 427.410156 534.664062 427.742188 534.664062 428.066406 534.609375 C 432.519531 534.628906 436.960938 534.8125 441.398438 535.167969 C 445.835938 535.523438 450.253906 536.042969 454.652344 536.730469 C 459.050781 537.417969 463.417969 538.269531 467.75 539.285156 C 472.082031 540.304688 476.371094 541.480469 480.617188 542.824219 C 484.863281 544.164062 489.050781 545.660156 493.183594 547.316406 C 497.3125 548.972656 501.378906 550.78125 505.371094 552.746094 C 509.367188 554.707031 513.285156 556.820312 517.121094 559.078125 C 520.957031 561.335938 524.703125 563.734375 528.355469 566.277344 C 532.011719 568.816406 535.566406 571.492188 539.019531 574.300781 C 542.472656 577.109375 545.816406 580.042969 549.046875 583.105469 C 552.277344 586.164062 555.390625 589.34375 558.382812 592.640625 C 561.375 595.933594 564.238281 599.339844 566.976562 602.851562 C 569.710938 606.363281 572.308594 609.972656 574.773438 613.679688 C 577.234375 617.386719 579.554688 621.183594 581.734375 625.066406 C 583.910156 628.949219 585.9375 632.90625 587.816406 636.941406 C 589.691406 640.980469 591.417969 645.078125 592.984375 649.246094 C 589.972656 651.363281 586.921875 653.421875 583.832031 655.421875 C 580.742188 657.421875 577.617188 659.363281 574.453125 661.246094 C 571.289062 663.125 568.089844 664.945312 564.855469 666.703125 C 561.621094 668.460938 558.351562 670.15625 555.054688 671.789062 C 551.753906 673.421875 548.425781 674.992188 545.066406 676.496094 C 541.707031 678.003906 538.320312 679.445312 534.90625 680.820312 C 531.492188 682.195312 528.050781 683.503906 524.585938 684.75 C 521.121094 685.992188 517.636719 687.171875 514.125 688.28125 C 510.617188 689.390625 507.085938 690.433594 503.535156 691.410156 C 499.988281 692.382812 496.421875 693.289062 492.835938 694.128906 C 489.25 694.96875 485.652344 695.738281 482.039062 696.4375 C 478.425781 697.140625 474.796875 697.769531 471.160156 698.332031 C 467.523438 698.894531 463.875 699.386719 460.21875 699.808594 C 456.5625 700.230469 452.898438 700.582031 449.226562 700.863281 C 445.558594 701.144531 441.882812 701.355469 438.203125 701.496094 C 434.527344 701.636719 430.847656 701.710938 427.164062 701.710938 C 423.484375 701.710938 419.804688 701.636719 416.125 701.496094 C 412.445312 701.355469 408.773438 701.144531 405.101562 700.863281 C 401.433594 700.582031 397.769531 700.230469 394.109375 699.808594 C 390.453125 699.386719 386.808594 698.894531 383.167969 698.332031 C 379.53125 697.769531 375.90625 697.140625 372.289062 696.4375 C 368.675781 695.738281 365.078125 694.96875 361.492188 694.128906 C 357.910156 693.289062 354.34375 692.382812 350.792969 691.410156 C 347.242188 690.433594 343.714844 689.390625 340.203125 688.28125 C 336.695312 687.171875 333.207031 685.992188 329.742188 684.75 C 326.277344 683.503906 322.839844 682.195312 319.421875 680.820312 C 316.007812 679.445312 312.621094 678.003906 309.261719 676.496094 C 305.902344 674.992188 302.574219 673.421875 299.277344 671.789062 C 295.976562 670.15625 292.710938 668.460938 289.476562 666.703125 C 286.242188 664.945312 283.042969 663.125 279.878906 661.246094 C 276.714844 659.363281 273.585938 657.421875 270.496094 655.421875 C 267.40625 653.421875 264.355469 651.363281 261.34375 649.246094 Z M 427.109375 512.296875 C 426.808594 512.296875 426.519531 512.296875 426.230469 512.296875 C 424.042969 512.277344 421.855469 512.183594 419.675781 512.023438 C 417.492188 511.859375 415.316406 511.625 413.152344 511.320312 C 410.984375 511.015625 408.828125 510.640625 406.6875 510.195312 C 404.546875 509.75 402.417969 509.234375 400.3125 508.652344 C 398.203125 508.066406 396.113281 507.414062 394.046875 506.695312 C 391.980469 505.976562 389.941406 505.1875 387.925781 504.335938 C 385.914062 503.480469 383.925781 502.5625 381.972656 501.582031 C 380.019531 500.597656 378.097656 499.550781 376.210938 498.441406 C 374.324219 497.335938 372.476562 496.164062 370.664062 494.9375 C 368.855469 493.707031 367.085938 492.421875 365.359375 491.074219 C 363.632812 489.730469 361.953125 488.332031 360.320312 486.878906 C 358.683594 485.421875 357.097656 483.917969 355.5625 482.359375 C 354.023438 480.800781 352.539062 479.195312 351.109375 477.539062 C 349.675781 475.886719 348.300781 474.1875 346.980469 472.441406 C 345.660156 470.699219 344.398438 468.910156 343.191406 467.085938 C 341.988281 465.257812 340.84375 463.394531 339.761719 461.492188 C 338.679688 459.589844 337.660156 457.65625 336.703125 455.6875 C 335.75 453.71875 334.855469 451.722656 334.03125 449.695312 C 333.207031 447.667969 332.445312 445.617188 331.753906 443.542969 C 331.0625 441.46875 330.441406 439.371094 329.882812 437.253906 C 329.328125 435.136719 328.84375 433.003906 328.429688 430.855469 C 328.011719 428.707031 327.667969 426.550781 327.390625 424.378906 C 327.117188 422.207031 326.914062 420.03125 326.78125 417.847656 C 326.648438 415.660156 326.585938 413.476562 326.597656 411.289062 C 326.605469 409.101562 326.6875 406.914062 326.839844 404.730469 C 326.992188 402.546875 327.21875 400.375 327.511719 398.207031 C 327.804688 396.035156 328.171875 393.878906 328.605469 391.738281 C 329.042969 389.59375 329.546875 387.464844 330.121094 385.351562 C 330.695312 383.242188 331.339844 381.152344 332.050781 379.082031 C 332.761719 377.011719 333.539062 374.96875 334.382812 372.949219 C 335.226562 370.929688 336.136719 368.941406 337.109375 366.980469 C 338.082031 365.023438 339.121094 363.097656 340.21875 361.207031 C 341.320312 359.3125 342.480469 357.460938 343.703125 355.644531 C 344.921875 353.828125 346.199219 352.054688 347.539062 350.324219 C 348.875 348.589844 350.265625 346.902344 351.714844 345.261719 C 353.160156 343.621094 354.660156 342.027344 356.210938 340.484375 C 357.761719 338.941406 359.359375 337.449219 361.007812 336.007812 C 362.65625 334.570312 364.347656 333.1875 366.085938 331.855469 C 367.824219 330.527344 369.605469 329.257812 371.425781 328.046875 C 373.25 326.832031 375.109375 325.679688 377.003906 324.589844 C 378.902344 323.5 380.832031 322.46875 382.796875 321.503906 C 384.757812 320.539062 386.75 319.640625 388.773438 318.804688 C 390.796875 317.96875 392.84375 317.203125 394.917969 316.5 C 396.988281 315.800781 399.082031 315.164062 401.195312 314.601562 C 403.3125 314.035156 405.441406 313.542969 407.585938 313.117188 C 409.734375 312.691406 411.890625 312.335938 414.0625 312.050781 C 416.230469 311.765625 418.40625 311.550781 420.589844 311.410156 C 422.773438 311.265625 424.960938 311.195312 427.148438 311.195312 C 429.335938 311.195312 431.523438 311.265625 433.707031 311.410156 C 435.890625 311.550781 438.066406 311.765625 440.234375 312.050781 C 442.40625 312.335938 444.5625 312.691406 446.707031 313.117188 C 448.855469 313.542969 450.984375 314.035156 453.097656 314.601562 C 455.214844 315.164062 457.304688 315.800781 459.378906 316.5 C 461.453125 317.203125 463.5 317.96875 465.523438 318.804688 C 467.542969 319.640625 469.539062 320.539062 471.5 321.503906 C 473.464844 322.46875 475.394531 323.5 477.292969 324.589844 C 479.1875 325.679688 481.046875 326.832031 482.867188 328.046875 C 484.691406 329.257812 486.46875 330.527344 488.207031 331.855469 C 489.945312 333.1875 491.640625 334.570312 493.289062 336.007812 C 494.9375 337.449219 496.535156 338.941406 498.085938 340.484375 C 499.636719 342.027344 501.136719 343.621094 502.582031 345.261719 C 504.03125 346.902344 505.421875 348.589844 506.757812 350.324219 C 508.09375 352.054688 509.375 353.828125 510.59375 355.644531 C 511.816406 357.460938 512.976562 359.3125 514.074219 361.207031 C 515.175781 363.097656 516.210938 365.023438 517.1875 366.984375 C 518.160156 368.941406 519.070312 370.929688 519.914062 372.949219 C 520.757812 374.96875 521.535156 377.011719 522.246094 379.082031 C 522.957031 381.152344 523.601562 383.242188 524.175781 385.351562 C 524.75 387.464844 525.253906 389.59375 525.6875 391.738281 C 526.125 393.878906 526.488281 396.035156 526.785156 398.207031 C 527.078125 400.375 527.304688 402.546875 527.457031 404.730469 C 527.609375 406.914062 527.691406 409.101562 527.699219 411.289062 C 527.710938 413.476562 527.648438 415.660156 527.515625 417.847656 C 527.382812 420.03125 527.179688 422.207031 526.902344 424.378906 C 526.628906 426.550781 526.285156 428.707031 525.867188 430.855469 C 525.453125 433.003906 524.964844 435.136719 524.410156 437.253906 C 523.855469 439.371094 523.234375 441.46875 522.542969 443.542969 C 521.847656 445.617188 521.089844 447.667969 520.265625 449.695312 C 519.4375 451.722656 518.546875 453.71875 517.589844 455.6875 C 516.636719 457.65625 515.617188 459.589844 514.535156 461.492188 C 513.449219 463.394531 512.308594 465.257812 511.105469 467.085938 C 509.898438 468.910156 508.636719 470.699219 507.316406 472.441406 C 505.996094 474.1875 504.617188 475.886719 503.1875 477.539062 C 501.753906 479.195312 500.269531 480.800781 498.734375 482.359375 C 497.199219 483.917969 495.613281 485.421875 493.976562 486.878906 C 492.34375 488.332031 490.664062 489.730469 488.9375 491.074219 C 487.210938 492.421875 485.441406 493.707031 483.632812 494.9375 C 481.820312 496.164062 479.972656 497.335938 478.085938 498.441406 C 476.199219 499.550781 474.277344 500.597656 472.324219 501.582031 C 470.367188 502.5625 468.382812 503.480469 466.371094 504.335938 C 464.355469 505.1875 462.3125 505.976562 460.246094 506.695312 C 458.179688 507.414062 456.09375 508.066406 453.984375 508.652344 C 451.875 509.234375 449.75 509.75 447.609375 510.195312 C 445.464844 510.640625 443.3125 511.015625 441.144531 511.320312 C 438.976562 511.625 436.804688 511.859375 434.621094 512.023438 C 432.441406 512.183594 430.253906 512.277344 428.066406 512.296875 C 427.742188 512.382812 427.433594 512.351562 427.109375 512.351562 Z M 611.523438 635.226562 C 610.105469 631.816406 608.589844 628.445312 606.984375 625.117188 C 605.378906 621.789062 603.679688 618.507812 601.890625 615.273438 C 600.097656 612.039062 598.21875 608.859375 596.253906 605.726562 C 594.285156 602.597656 592.234375 599.527344 590.097656 596.511719 C 587.957031 593.496094 585.738281 590.542969 583.433594 587.652344 C 581.132812 584.761719 578.75 581.9375 576.292969 579.175781 C 573.832031 576.417969 571.296875 573.730469 568.6875 571.113281 C 566.078125 568.496094 563.398438 565.953125 560.648438 563.484375 C 557.894531 561.015625 555.078125 558.625 552.195312 556.316406 C 549.308594 554.003906 546.363281 551.773438 543.355469 549.625 C 540.347656 547.480469 537.28125 545.417969 534.15625 543.441406 C 531.035156 541.464844 527.859375 539.578125 524.628906 537.777344 C 521.402344 535.976562 518.125 534.269531 514.804688 532.652344 C 511.480469 531.035156 508.113281 529.511719 504.707031 528.078125 C 501.296875 526.648438 497.851562 525.316406 494.371094 524.078125 C 490.886719 522.839844 487.371094 521.699219 483.828125 520.65625 C 485.828125 519.609375 487.796875 518.507812 489.734375 517.351562 C 491.675781 516.195312 493.582031 514.984375 495.453125 513.722656 C 497.324219 512.460938 499.160156 511.148438 500.960938 509.785156 C 502.757812 508.421875 504.519531 507.007812 506.242188 505.546875 C 507.960938 504.085938 509.640625 502.578125 511.277344 501.023438 C 512.917969 499.46875 514.507812 497.871094 516.058594 496.226562 C 517.609375 494.582031 519.109375 492.898438 520.566406 491.171875 C 522.019531 489.449219 523.429688 487.683594 524.785156 485.878906 C 526.144531 484.074219 527.449219 482.234375 528.707031 480.359375 C 529.964844 478.480469 531.167969 476.574219 532.316406 474.628906 C 533.464844 472.6875 534.5625 470.714844 535.601562 468.710938 C 536.644531 466.707031 537.628906 464.675781 538.558594 462.617188 C 539.484375 460.558594 540.355469 458.476562 541.167969 456.371094 C 541.980469 454.265625 542.734375 452.136719 543.429688 449.988281 C 544.125 447.839844 544.761719 445.675781 545.335938 443.492188 C 545.910156 441.308594 546.425781 439.109375 546.878906 436.898438 C 547.332031 434.6875 547.726562 432.464844 548.054688 430.230469 C 548.386719 427.996094 548.652344 425.753906 548.859375 423.507812 C 549.066406 421.257812 549.210938 419.007812 549.289062 416.75 C 549.371094 414.492188 549.390625 412.234375 549.347656 409.980469 C 549.304688 407.722656 549.195312 405.46875 549.027344 403.214844 C 548.859375 400.964844 548.628906 398.71875 548.335938 396.480469 C 548.042969 394.242188 547.6875 392.011719 547.273438 389.792969 C 546.855469 387.574219 546.378906 385.367188 545.839844 383.175781 C 545.300781 380.984375 544.703125 378.804688 544.042969 376.648438 C 543.382812 374.488281 542.664062 372.347656 541.886719 370.226562 C 541.109375 368.109375 540.273438 366.011719 539.378906 363.9375 C 538.484375 361.867188 537.535156 359.820312 536.527344 357.796875 C 535.519531 355.777344 534.457031 353.785156 533.339844 351.824219 C 532.222656 349.863281 531.050781 347.933594 529.828125 346.035156 C 528.601562 344.140625 527.324219 342.277344 525.996094 340.449219 C 524.671875 338.625 523.292969 336.835938 521.867188 335.085938 C 520.4375 333.335938 518.964844 331.628906 517.445312 329.960938 C 515.921875 328.292969 514.355469 326.667969 512.746094 325.085938 C 511.132812 323.503906 509.480469 321.96875 507.78125 320.476562 C 506.085938 318.988281 504.347656 317.546875 502.574219 316.152344 C 500.796875 314.757812 498.984375 313.414062 497.132812 312.121094 C 495.28125 310.828125 493.394531 309.589844 491.476562 308.398438 C 489.558594 307.210938 487.605469 306.074219 485.625 304.996094 C 483.640625 303.914062 481.628906 302.890625 479.589844 301.921875 C 477.550781 300.949219 475.488281 300.039062 473.398438 299.183594 C 471.308594 298.328125 469.195312 297.53125 467.0625 296.796875 C 464.925781 296.058594 462.773438 295.378906 460.601562 294.761719 C 458.433594 294.140625 456.246094 293.582031 454.042969 293.085938 C 451.839844 292.589844 449.625 292.152344 447.398438 291.777344 C 445.171875 291.402344 442.9375 291.089844 440.695312 290.839844 C 438.449219 290.589844 436.199219 290.398438 433.945312 290.273438 C 431.691406 290.148438 429.4375 290.082031 427.179688 290.082031 C 424.921875 290.082031 422.664062 290.140625 420.410156 290.265625 C 418.15625 290.390625 415.90625 290.574219 413.660156 290.824219 C 411.417969 291.070312 409.179688 291.382812 406.953125 291.753906 C 404.726562 292.125 402.511719 292.558594 400.308594 293.054688 C 398.105469 293.550781 395.917969 294.105469 393.746094 294.722656 C 391.574219 295.335938 389.421875 296.011719 387.285156 296.75 C 385.152344 297.484375 383.039062 298.277344 380.949219 299.128906 C 378.855469 299.980469 376.792969 300.890625 374.75 301.859375 C 372.710938 302.824219 370.699219 303.847656 368.714844 304.925781 C 366.730469 306.003906 364.777344 307.136719 362.859375 308.324219 C 360.9375 309.511719 359.050781 310.75 357.199219 312.039062 C 355.34375 313.332031 353.53125 314.671875 351.753906 316.0625 C 349.972656 317.457031 348.234375 318.894531 346.539062 320.382812 C 344.839844 321.871094 343.183594 323.40625 341.570312 324.984375 C 339.957031 326.5625 338.386719 328.1875 336.863281 329.851562 C 335.339844 331.519531 333.867188 333.226562 332.4375 334.976562 C 331.007812 336.722656 329.628906 338.511719 328.300781 340.335938 C 326.96875 342.160156 325.691406 344.019531 324.464844 345.914062 C 323.238281 347.808594 322.0625 349.738281 320.945312 351.699219 C 319.824219 353.660156 318.757812 355.648438 317.75 357.667969 C 316.738281 359.6875 315.785156 361.734375 314.890625 363.808594 C 313.992188 365.878906 313.15625 367.976562 312.375 370.09375 C 311.59375 372.210938 310.875 374.351562 310.210938 376.507812 C 309.550781 378.667969 308.949219 380.84375 308.40625 383.035156 C 307.867188 385.226562 307.386719 387.433594 306.964844 389.652344 C 306.546875 391.871094 306.191406 394.097656 305.894531 396.335938 C 305.597656 398.574219 305.367188 400.820312 305.195312 403.070312 C 305.023438 405.324219 304.914062 407.578125 304.867188 409.835938 C 304.820312 412.09375 304.835938 414.347656 304.917969 416.605469 C 304.996094 418.863281 305.136719 421.113281 305.339844 423.363281 C 305.542969 425.613281 305.808594 427.855469 306.136719 430.085938 C 306.464844 432.320312 306.851562 434.542969 307.304688 436.757812 C 307.753906 438.96875 308.265625 441.167969 308.839844 443.351562 C 309.410156 445.535156 310.042969 447.703125 310.738281 449.851562 C 311.429688 452 312.179688 454.128906 312.992188 456.234375 C 313.800781 458.34375 314.671875 460.425781 315.597656 462.484375 C 316.523438 464.546875 317.503906 466.578125 318.542969 468.582031 C 319.582031 470.585938 320.675781 472.5625 321.824219 474.507812 C 322.96875 476.449219 324.171875 478.363281 325.425781 480.238281 C 326.679688 482.117188 327.984375 483.957031 329.339844 485.765625 C 330.695312 487.570312 332.101562 489.335938 333.554688 491.0625 C 335.007812 492.792969 336.507812 494.476562 338.054688 496.121094 C 339.601562 497.765625 341.191406 499.367188 342.828125 500.921875 C 344.464844 502.480469 346.140625 503.988281 347.863281 505.453125 C 349.582031 506.917969 351.339844 508.332031 353.136719 509.695312 C 354.933594 511.0625 356.769531 512.378906 358.640625 513.640625 C 360.511719 514.90625 362.414062 516.117188 364.351562 517.277344 C 366.289062 518.4375 368.257812 519.539062 370.257812 520.589844 C 366.71875 521.644531 363.210938 522.796875 359.734375 524.046875 C 356.257812 525.292969 352.820312 526.636719 349.417969 528.078125 C 346.015625 529.515625 342.65625 531.050781 339.339844 532.675781 C 336.019531 534.300781 332.753906 536.015625 329.53125 537.820312 C 326.308594 539.628906 323.136719 541.523438 320.019531 543.503906 C 316.902344 545.484375 313.84375 547.550781 310.839844 549.703125 C 307.839844 551.855469 304.898438 554.085938 302.019531 556.402344 C 299.140625 558.714844 296.328125 561.105469 293.582031 563.578125 C 290.832031 566.046875 288.15625 568.589844 285.550781 571.207031 C 282.945312 573.824219 280.414062 576.515625 277.957031 579.273438 C 275.5 582.03125 273.121094 584.855469 270.820312 587.742188 C 268.519531 590.632812 266.300781 593.585938 264.164062 596.597656 C 262.027344 599.609375 259.972656 602.679688 258.007812 605.804688 C 256.039062 608.933594 254.160156 612.109375 252.367188 615.339844 C 250.578125 618.570312 248.875 621.847656 247.265625 625.171875 C 245.65625 628.496094 244.140625 631.863281 242.714844 635.273438 C 239.8125 632.871094 236.960938 630.417969 234.152344 627.90625 C 231.34375 625.398438 228.589844 622.832031 225.882812 620.214844 C 223.175781 617.59375 220.519531 614.925781 217.917969 612.203125 C 215.316406 609.480469 212.769531 606.707031 210.277344 603.886719 C 207.78125 601.0625 205.34375 598.195312 202.960938 595.277344 C 200.582031 592.359375 198.257812 589.398438 195.992188 586.390625 C 193.726562 583.382812 191.519531 580.332031 189.371094 577.234375 C 187.226562 574.140625 185.140625 571.007812 183.117188 567.832031 C 181.09375 564.65625 179.132812 561.441406 177.234375 558.1875 C 175.335938 554.9375 173.5 551.648438 171.730469 548.324219 C 169.960938 545 168.257812 541.640625 166.621094 538.25 C 164.980469 534.859375 163.410156 531.4375 161.90625 527.988281 C 160.398438 524.535156 158.964844 521.054688 157.59375 517.546875 C 156.226562 514.039062 154.925781 510.503906 153.695312 506.945312 C 152.464844 503.386719 151.304688 499.804688 150.214844 496.199219 C 149.125 492.59375 148.105469 488.96875 147.15625 485.324219 C 146.207031 481.683594 145.328125 478.019531 144.523438 474.339844 C 143.71875 470.664062 142.984375 466.96875 142.324219 463.261719 C 141.660156 459.554688 141.074219 455.835938 140.558594 452.105469 C 140.039062 448.375 139.597656 444.636719 139.226562 440.890625 C 138.859375 437.140625 138.5625 433.386719 138.339844 429.628906 C 138.117188 425.867188 137.964844 422.105469 137.890625 418.339844 C 137.816406 414.578125 137.8125 410.8125 137.882812 407.046875 C 137.953125 403.28125 138.097656 399.519531 138.316406 395.757812 C 138.535156 392 138.828125 388.246094 139.191406 384.496094 C 139.558594 380.75 139.996094 377.011719 140.507812 373.277344 C 141.019531 369.546875 141.601562 365.828125 142.257812 362.121094 C 142.914062 358.410156 143.644531 354.71875 144.445312 351.039062 C 145.246094 347.359375 146.121094 343.695312 147.0625 340.050781 C 148.007812 336.40625 149.023438 332.777344 150.109375 329.171875 C 151.195312 325.566406 152.351562 321.984375 153.578125 318.421875 C 154.804688 314.863281 156.097656 311.328125 157.460938 307.816406 C 160.097656 308.578125 162.757812 309.246094 165.4375 309.824219 C 168.117188 310.398438 170.816406 310.882812 173.53125 311.273438 C 176.246094 311.664062 178.972656 311.960938 181.707031 312.164062 C 184.441406 312.363281 187.179688 312.472656 189.921875 312.484375 C 192.667969 312.5 195.40625 312.417969 198.144531 312.242188 C 200.878906 312.066406 203.609375 311.792969 206.328125 311.429688 C 209.046875 311.066406 211.746094 310.609375 214.433594 310.058594 C 217.121094 309.503906 219.785156 308.863281 222.429688 308.128906 C 225.070312 307.390625 227.683594 306.566406 230.269531 305.652344 C 232.855469 304.734375 235.40625 303.730469 237.921875 302.640625 C 240.4375 301.546875 242.914062 300.371094 245.347656 299.105469 C 247.78125 297.84375 250.171875 296.5 252.511719 295.070312 C 254.855469 293.644531 257.144531 292.136719 259.382812 290.550781 C 261.621094 288.964844 263.800781 287.304688 265.921875 285.566406 C 268.046875 283.828125 270.105469 282.023438 272.105469 280.144531 C 274.101562 278.265625 276.035156 276.320312 277.898438 274.304688 C 279.761719 272.292969 281.554688 270.21875 283.273438 268.085938 C 284.996094 265.949219 286.640625 263.753906 288.207031 261.503906 C 289.777344 259.257812 291.265625 256.953125 292.675781 254.601562 C 294.085938 252.25 295.414062 249.851562 296.660156 247.40625 C 297.902344 244.964844 299.0625 242.480469 300.136719 239.953125 C 301.207031 237.429688 302.191406 234.871094 303.089844 232.28125 C 303.984375 229.6875 304.789062 227.066406 305.503906 224.421875 C 306.222656 221.773438 306.84375 219.101562 307.375 216.414062 C 307.90625 213.722656 308.34375 211.015625 308.6875 208.292969 C 309.03125 205.574219 309.28125 202.84375 309.4375 200.105469 C 309.59375 197.367188 309.652344 194.625 309.617188 191.882812 C 309.585938 189.140625 309.457031 186.402344 309.234375 183.667969 C 309.011719 180.9375 308.695312 178.214844 308.28125 175.5 C 307.871094 172.789062 307.367188 170.09375 306.769531 167.417969 C 306.175781 164.742188 305.484375 162.089844 304.707031 159.457031 C 303.925781 156.828125 303.054688 154.230469 302.09375 151.660156 C 306.03125 149.769531 310.007812 147.972656 314.023438 146.261719 C 318.042969 144.554688 322.097656 142.9375 326.1875 141.410156 C 330.277344 139.886719 334.402344 138.453125 338.554688 137.117188 C 342.710938 135.777344 346.894531 134.53125 351.109375 133.382812 C 355.320312 132.234375 359.554688 131.179688 363.816406 130.222656 C 368.074219 129.265625 372.351562 128.40625 376.652344 127.644531 C 380.949219 126.878906 385.265625 126.214844 389.59375 125.644531 C 393.921875 125.078125 398.261719 124.605469 402.609375 124.234375 C 406.960938 123.863281 411.316406 123.589844 415.679688 123.417969 C 420.042969 123.242188 424.40625 123.167969 428.769531 123.191406 C 433.136719 123.214844 437.5 123.335938 441.859375 123.554688 C 446.222656 123.777344 450.574219 124.097656 454.917969 124.515625 C 459.265625 124.933594 463.597656 125.449219 467.921875 126.0625 C 472.242188 126.675781 476.550781 127.390625 480.839844 128.199219 C 485.128906 129.007812 489.398438 129.914062 493.648438 130.917969 C 497.898438 131.917969 502.121094 133.019531 506.320312 134.210938 C 510.523438 135.40625 514.691406 136.695312 518.832031 138.078125 C 522.972656 139.460938 527.082031 140.9375 531.15625 142.503906 C 535.230469 144.074219 539.265625 145.734375 543.265625 147.488281 C 547.265625 149.238281 551.222656 151.078125 555.136719 153.011719 C 559.050781 154.941406 562.921875 156.960938 566.746094 159.066406 C 570.570312 161.171875 574.34375 163.363281 578.070312 165.640625 C 581.792969 167.917969 585.464844 170.28125 589.085938 172.722656 C 592.703125 175.167969 596.261719 177.691406 599.765625 180.296875 C 603.269531 182.902344 606.714844 185.582031 610.09375 188.34375 C 613.476562 191.105469 616.796875 193.941406 620.050781 196.851562 C 623.300781 199.761719 626.488281 202.746094 629.609375 205.800781 C 632.726562 208.855469 635.773438 211.980469 638.75 215.175781 C 641.726562 218.367188 644.632812 221.625 647.460938 224.953125 C 650.289062 228.277344 653.042969 231.664062 655.71875 235.113281 C 658.394531 238.5625 660.992188 242.070312 663.507812 245.636719 C 666.027344 249.203125 668.460938 252.828125 670.816406 256.503906 C 673.167969 260.183594 675.4375 263.910156 677.621094 267.691406 C 679.804688 271.472656 681.902344 275.296875 683.914062 279.175781 C 685.925781 283.050781 687.847656 286.96875 689.679688 290.929688 C 691.511719 294.890625 693.257812 298.894531 694.90625 302.933594 C 696.558594 306.976562 698.121094 311.050781 699.585938 315.164062 C 701.054688 319.277344 702.429688 323.417969 703.707031 327.59375 C 704.988281 331.765625 706.171875 335.96875 707.261719 340.195312 C 708.351562 344.421875 709.347656 348.671875 710.242188 352.945312 C 711.140625 357.21875 711.941406 361.507812 712.644531 365.816406 C 713.347656 370.128906 713.949219 374.449219 714.457031 378.785156 C 714.964844 383.121094 715.375 387.46875 715.683594 391.824219 C 715.996094 396.175781 716.207031 400.535156 716.320312 404.902344 C 716.429688 409.265625 716.445312 413.628906 716.359375 417.996094 C 716.277344 422.359375 716.09375 426.722656 715.808594 431.078125 C 715.527344 435.433594 715.144531 439.78125 714.667969 444.121094 C 714.1875 448.460938 713.609375 452.789062 712.933594 457.101562 C 712.261719 461.414062 711.488281 465.710938 710.617188 469.988281 C 709.746094 474.265625 708.78125 478.523438 707.71875 482.757812 C 706.65625 486.992188 705.5 491.199219 704.246094 495.382812 C 702.992188 499.566406 701.644531 503.714844 700.203125 507.835938 C 698.761719 511.957031 697.230469 516.046875 695.601562 520.097656 C 693.976562 524.148438 692.257812 528.160156 690.449219 532.136719 C 688.644531 536.109375 686.746094 540.039062 684.757812 543.925781 C 682.773438 547.816406 680.699219 551.65625 678.539062 555.449219 C 676.378906 559.246094 674.136719 562.988281 671.804688 566.679688 C 669.476562 570.371094 667.066406 574.011719 664.570312 577.59375 C 662.074219 581.175781 659.5 584.703125 656.847656 588.167969 C 654.195312 591.632812 651.460938 595.039062 648.65625 598.382812 C 645.847656 601.726562 642.964844 605.003906 640.007812 608.214844 C 637.050781 611.425781 634.023438 614.570312 630.925781 617.644531 C 627.824219 620.722656 624.65625 623.726562 621.421875 626.65625 C 618.1875 629.589844 614.886719 632.445312 611.523438 635.226562 Z M 611.523438 635.226562 "/><path style=" stroke:none;fill-rule:nonzero;fill:#ffffff;fill-opacity:1;" d="M 236.082031 192.980469 C 236.082031 192.25 236.007812 191.523438 235.867188 190.808594 C 235.722656 190.089844 235.511719 189.394531 235.234375 188.71875 C 234.953125 188.042969 234.609375 187.402344 234.203125 186.792969 C 233.796875 186.1875 233.335938 185.625 232.820312 185.105469 C 232.300781 184.589844 231.738281 184.128906 231.132812 183.722656 C 230.523438 183.316406 229.882812 182.972656 229.207031 182.691406 C 228.53125 182.414062 227.835938 182.203125 227.117188 182.058594 C 226.402344 181.917969 225.675781 181.84375 224.945312 181.84375 L 155.234375 181.84375 C 154.503906 181.84375 153.78125 181.917969 153.0625 182.058594 C 152.347656 182.203125 151.648438 182.414062 150.976562 182.691406 C 150.300781 182.972656 149.65625 183.316406 149.050781 183.722656 C 148.441406 184.128906 147.878906 184.589844 147.363281 185.105469 C 146.84375 185.625 146.382812 186.1875 145.976562 186.792969 C 145.570312 187.402344 145.230469 188.042969 144.949219 188.71875 C 144.667969 189.394531 144.457031 190.089844 144.316406 190.808594 C 144.171875 191.523438 144.101562 192.25 144.101562 192.980469 C 144.101562 193.710938 144.171875 194.433594 144.316406 195.152344 C 144.457031 195.867188 144.667969 196.566406 144.949219 197.238281 C 145.230469 197.914062 145.570312 198.558594 145.976562 199.164062 C 146.382812 199.773438 146.84375 200.335938 147.363281 200.851562 C 147.878906 201.371094 148.441406 201.832031 149.050781 202.238281 C 149.65625 202.644531 150.300781 202.984375 150.976562 203.265625 C 151.648438 203.546875 152.347656 203.757812 153.0625 203.898438 C 153.78125 204.042969 154.503906 204.113281 155.234375 204.113281 L 224.902344 204.113281 C 225.636719 204.117188 226.359375 204.046875 227.082031 203.90625 C 227.800781 203.765625 228.5 203.558594 229.175781 203.277344 C 229.855469 203 230.5 202.65625 231.109375 202.253906 C 231.71875 201.847656 232.285156 201.386719 232.804688 200.867188 C 233.324219 200.351562 233.785156 199.789062 234.195312 199.179688 C 234.601562 198.570312 234.949219 197.925781 235.230469 197.25 C 235.511719 196.574219 235.722656 195.875 235.867188 195.15625 C 236.007812 194.4375 236.082031 193.710938 236.082031 192.980469 Z M 236.082031 192.980469 "/><g clip-rule="nonzero" clip-path="url(#5a061e3871)"><g clip-rule="nonzero" clip-path="url(#e5a3f7e611)"><path style=" stroke:none;fill-rule:nonzero;fill:#a6a6a6;fill-opacity:1;" d="M 59.902344 68.121094 L 311.957031 68.121094 L 311.957031 320.175781 L 59.902344 320.175781 Z M 59.902344 68.121094 "/></g></g><g clip-rule="nonzero" clip-path="url(#fe2272ad1e)"><path style=" stroke:none;fill-rule:nonzero;fill:#ffffff;fill-opacity:1;" d="M 191.398438 325.527344 C 118.851562 325.527344 59.835938 266.503906 59.835938 193.96875 C 59.835938 121.433594 118.851562 62.410156 191.398438 62.410156 C 263.941406 62.410156 322.957031 121.433594 322.957031 193.96875 C 322.957031 266.503906 263.941406 325.527344 191.398438 325.527344 Z M 191.398438 74.9375 C 125.761719 74.9375 72.367188 128.332031 72.367188 193.96875 C 72.367188 259.605469 125.761719 313 191.398438 313 C 257.03125 313 310.425781 259.605469 310.425781 193.96875 C 310.425781 128.332031 257.03125 74.9375 191.398438 74.9375 "/></g><path style=" stroke:none;fill-rule:nonzero;fill:#ffffff;fill-opacity:1;" d="M 191.398438 275.40625 C 190.023438 275.40625 188.609375 274.914062 187.5 274.09375 C 161.355469 254.386719 128.988281 227.578125 110.566406 194.914062 C 99.515625 175.238281 102.015625 153.636719 117.085938 138.515625 C 125.75 129.839844 137.265625 125.0625 149.515625 125.0625 C 161.765625 125.0625 173.289062 129.839844 181.945312 138.515625 L 191.398438 147.988281 L 200.847656 138.515625 C 209.503906 129.839844 221.027344 125.0625 233.277344 125.0625 C 245.53125 125.0625 257.042969 129.839844 265.707031 138.515625 C 280.777344 153.636719 283.277344 175.238281 272.226562 194.914062 C 253.804688 227.578125 221.4375 254.386719 195.292969 274.09375 L 195.292969 274.082031 C 194.175781 274.921875 192.769531 275.40625 191.398438 275.40625 Z M 149.515625 137.589844 C 140.617188 137.589844 132.25 141.058594 125.964844 147.363281 C 114.851562 158.507812 113.171875 173.988281 121.484375 188.773438 C 137.941406 217.949219 166.933594 242.636719 191.398438 261.316406 C 215.859375 242.636719 244.84375 217.949219 261.308594 188.773438 C 269.621094 173.988281 267.941406 158.507812 256.828125 147.363281 C 250.542969 141.058594 242.175781 137.589844 233.277344 137.589844 C 224.378906 137.589844 216.011719 141.058594 209.71875 147.363281 L 195.835938 161.285156 C 193.476562 163.644531 189.316406 163.644531 186.957031 161.285156 L 173.074219 147.363281 C 166.78125 141.058594 158.414062 137.589844 149.515625 137.589844 Z M 266.773438 191.835938 L 266.835938 191.835938 L 266.773438 191.835938 "/></g></svg>