<svg xmlns="http://www.w3.org/2000/svg" xmlns:xlink="http://www.w3.org/1999/xlink" width="1080" zoomAndPan="magnify" viewBox="0 0 810 809.999993" height="1080" preserveAspectRatio="xMidYMid meet" version="1.2"><defs><clipPath id="9e78f85f8f"><path d="M 215 7.300781 L 608 7.300781 L 608 462 L 215 462 Z M 215 7.300781 "/></clipPath></defs><g id="a3966e7247"><path style=" stroke:none;fill-rule:nonzero;fill:#ffffff;fill-opacity:1;" d="M 116.402344 252.195312 C 108.863281 244.636719 98.855469 240.488281 88.207031 240.488281 C 66.199219 240.488281 48.304688 258.382812 48.304688 280.390625 L 48.304688 468.539062 C 48.304688 485.570312 53.980469 502.367188 64.292969 515.835938 L 197.941406 690 L 197.941406 720.367188 L 187.757812 720.367188 C 173.675781 720.367188 162.21875 731.824219 162.21875 745.910156 L 162.21875 776.71875 C 162.21875 790.800781 173.675781 802.257812 187.757812 802.257812 L 360.253906 802.257812 C 374.335938 802.257812 385.796875 790.800781 385.796875 776.71875 L 385.796875 745.910156 C 385.796875 731.828125 374.335938 720.367188 360.253906 720.367188 L 350.25 720.367188 L 350.25 586.195312 C 350.25 533.835938 313.441406 488.972656 262.433594 478.660156 L 176.550781 398.765625 C 163.289062 386.367188 143.015625 385.238281 128.390625 396.082031 C 128.285156 396.152344 128.199219 396.257812 128.09375 396.34375 L 128.09375 280.390625 C 128.09375 269.722656 123.8125 259.425781 116.386719 252.195312 Z M 371.125 745.910156 L 371.125 776.71875 C 371.125 782.71875 366.253906 787.589844 360.253906 787.589844 L 187.761719 787.589844 C 181.757812 787.589844 176.890625 782.703125 176.890625 776.71875 L 176.890625 745.910156 C 176.890625 739.910156 181.757812 735.039062 187.761719 735.039062 L 205.101562 735.039062 C 205.101562 735.039062 205.21875 735.066406 205.277344 735.066406 C 205.335938 735.066406 205.394531 735.039062 205.453125 735.039062 L 342.738281 735.039062 C 342.738281 735.039062 342.855469 735.066406 342.914062 735.066406 C 342.972656 735.066406 343.03125 735.039062 343.089844 735.039062 L 360.253906 735.039062 C 366.253906 735.039062 371.125 739.925781 371.125 745.910156 Z M 137.148438 407.859375 C 146.050781 401.257812 158.433594 401.933594 166.5625 409.503906 L 253.980469 490.835938 C 255.007812 491.789062 256.285156 492.433594 257.679688 492.683594 C 302.820312 500.871094 335.59375 540.203125 335.59375 586.195312 L 335.59375 720.367188 L 212.625 720.367188 L 212.625 687.507812 C 212.625 685.894531 212.097656 684.324219 211.101562 683.046875 L 75.941406 506.929688 C 67.582031 496 62.972656 482.371094 62.972656 468.550781 L 62.972656 280.40625 C 62.972656 266.261719 74.0625 255.171875 88.207031 255.171875 C 94.925781 255.171875 101.261719 257.796875 106.089844 262.636719 C 110.753906 267.199219 113.441406 273.65625 113.441406 280.390625 L 113.441406 421.5625 C 113.277344 423.132812 113.132812 424.703125 113.132812 426.273438 C 113.132812 427.578125 113.25 428.898438 113.441406 430.746094 L 113.441406 438.273438 C 113.441406 441.457031 115.480469 444.097656 118.308594 445.109375 C 120.335938 448.628906 122.84375 451.871094 125.910156 454.628906 L 222.585938 539.878906 C 225.636719 542.5625 230.261719 542.269531 232.945312 539.234375 C 235.628906 536.195312 235.335938 531.5625 232.300781 528.875 L 135.664062 443.671875 C 131.558594 439.988281 129.003906 435.148438 128.109375 429.410156 L 128.109375 422.707031 C 129.109375 416.808594 132.363281 411.394531 137.148438 407.847656 Z M 137.148438 407.859375 "/><path style=" stroke:none;fill-rule:nonzero;fill:#ffffff;fill-opacity:1;" d="M 758.949219 515.820312 C 769.25 502.367188 774.925781 485.570312 774.925781 468.523438 L 774.925781 280.375 C 774.925781 258.371094 757.027344 240.472656 735.023438 240.472656 C 724.371094 240.472656 714.367188 244.625 706.886719 252.105469 C 699.402344 259.410156 695.121094 269.710938 695.121094 280.359375 L 695.121094 396.300781 C 695.015625 396.210938 694.929688 396.109375 694.8125 396.023438 C 680.214844 385.195312 659.953125 386.324219 646.664062 398.722656 L 560.78125 478.628906 C 509.757812 488.929688 472.964844 533.804688 472.964844 586.164062 L 472.964844 720.339844 L 462.960938 720.339844 C 448.878906 720.339844 437.421875 731.796875 437.421875 745.878906 L 437.421875 776.6875 C 437.421875 790.773438 448.878906 802.230469 462.960938 802.230469 L 635.457031 802.230469 C 649.539062 802.230469 660.996094 790.773438 660.996094 776.6875 L 660.996094 745.878906 C 660.996094 731.796875 649.539062 720.339844 635.457031 720.339844 L 625.273438 720.339844 L 625.273438 689.972656 L 758.9375 515.804688 Z M 646.339844 745.910156 L 646.339844 776.71875 C 646.339844 782.71875 641.46875 787.589844 635.46875 787.589844 L 462.976562 787.589844 C 456.976562 787.589844 452.105469 782.703125 452.105469 776.71875 L 452.105469 745.910156 C 452.105469 739.910156 456.976562 735.039062 462.976562 735.039062 L 480.140625 735.039062 C 480.140625 735.039062 480.257812 735.066406 480.316406 735.066406 C 480.375 735.066406 480.433594 735.039062 480.492188 735.039062 L 617.777344 735.039062 C 617.777344 735.039062 617.894531 735.066406 617.953125 735.066406 C 618.011719 735.066406 618.070312 735.039062 618.128906 735.039062 L 635.46875 735.039062 C 641.46875 735.039062 646.339844 739.925781 646.339844 745.910156 Z M 487.652344 720.367188 L 487.652344 586.195312 C 487.652344 540.203125 520.410156 500.886719 565.566406 492.683594 C 566.960938 492.433594 568.234375 491.789062 569.261719 490.835938 L 656.683594 409.488281 C 664.8125 401.90625 677.175781 401.214844 686.082031 407.832031 C 690.894531 411.410156 694.164062 416.839844 695.132812 422.738281 L 695.132812 429.644531 C 694.296875 435.117188 691.714844 439.972656 687.621094 443.640625 L 590.945312 528.890625 C 587.910156 531.574219 587.613281 536.210938 590.300781 539.25 C 592.96875 542.300781 597.589844 542.59375 600.65625 539.894531 L 697.378906 454.613281 C 700.386719 451.914062 702.867188 448.703125 704.875 445.152344 C 707.722656 444.15625 709.804688 441.5 709.804688 438.300781 L 709.804688 430.746094 C 709.804688 430.746094 709.832031 430.660156 709.832031 430.613281 C 709.980469 429.148438 710.113281 427.78125 710.113281 426.285156 C 710.113281 424.953125 709.996094 423.527344 709.804688 421.738281 L 709.804688 280.40625 C 709.804688 273.671875 712.488281 267.203125 717.214844 262.582031 C 721.980469 257.796875 728.320312 255.171875 735.039062 255.171875 C 749.179688 255.171875 760.269531 266.246094 760.269531 280.40625 L 760.269531 468.550781 C 760.269531 482.371094 755.679688 496.015625 747.316406 506.929688 L 612.144531 683.0625 C 611.160156 684.339844 610.617188 685.90625 610.617188 687.523438 L 610.617188 720.382812 L 487.652344 720.382812 Z M 487.652344 720.367188 "/><g clip-rule="nonzero" clip-path="url(#9e78f85f8f)"><path style=" stroke:none;fill-rule:nonzero;fill:#ffffff;fill-opacity:1;" d="M 215.75 102.203125 L 215.75 246.957031 C 215.75 265.191406 219.683594 282.722656 227.398438 299.09375 C 239.324219 324.371094 256.066406 348.476562 277.117188 370.730469 C 311.210938 406.804688 355.457031 437.214844 408.605469 461.085938 C 409.5625 461.511719 410.589844 461.730469 411.613281 461.730469 C 412.640625 461.730469 413.667969 461.511719 414.621094 461.085938 C 467.773438 437.214844 512.019531 406.804688 546.113281 370.730469 C 567.164062 348.476562 583.890625 324.371094 595.832031 299.09375 C 603.546875 282.75 607.480469 265.207031 607.480469 246.957031 L 607.480469 102.203125 C 607.480469 98.402344 604.574219 95.21875 600.789062 94.898438 C 562.367188 91.523438 525.589844 81.003906 491.496094 63.664062 C 463.972656 49.65625 438.828125 31.476562 416.792969 9.605469 C 415.328125 8.167969 413.316406 7.316406 411.378906 7.476562 C 409.355469 7.535156 407.449219 8.429688 406.128906 9.957031 C 384.195312 34.835938 358.054688 54.832031 328.390625 69.355469 C 295.808594 85.316406 259.367188 94.136719 222.953125 94.855469 C 218.964844 94.925781 215.765625 98.199219 215.765625 102.1875 Z M 230.421875 109.289062 C 266.539062 107.574219 302.496094 98.375 334.816406 82.53125 C 363.90625 68.269531 389.828125 49.054688 411.953125 25.34375 C 433.722656 45.914062 458.207031 63.195312 484.835938 76.734375 C 518.636719 93.929688 554.914062 104.710938 592.792969 108.847656 L 592.792969 246.957031 C 592.792969 263.035156 589.359375 278.453125 582.554688 292.832031 C 571.273438 316.699219 555.429688 339.527344 535.449219 360.652344 C 503.773438 394.160156 461.011719 423.734375 411.613281 446.339844 C 362.21875 423.734375 319.457031 394.160156 287.78125 360.652344 C 267.800781 339.527344 251.957031 316.714844 240.675781 292.832031 C 233.882812 278.4375 230.4375 263.003906 230.4375 246.957031 L 230.4375 109.289062 Z M 230.421875 109.289062 "/></g><path style=" stroke:none;fill-rule:nonzero;fill:#ffffff;fill-opacity:1;" d="M 316.007812 333.953125 C 339.890625 359.226562 371.785156 382.570312 408.226562 401.480469 C 409.28125 402.035156 410.441406 402.300781 411.601562 402.300781 C 412.757812 402.300781 413.917969 402.023438 414.972656 401.480469 C 451.386719 382.582031 483.28125 359.242188 507.191406 333.953125 C 524.328125 315.847656 537.851562 296.425781 547.390625 276.238281 C 551.777344 266.964844 553.902344 257.386719 553.902344 246.957031 L 553.902344 147.871094 C 553.902344 144.453125 551.539062 141.476562 548.195312 140.726562 C 520.144531 134.332031 492.886719 124.457031 467.1875 111.371094 C 449.992188 102.628906 433.398438 92.390625 417.894531 80.929688 C 415.210938 78.9375 411.527344 79.023438 408.929688 81.121094 C 391.441406 95.265625 372.238281 107.484375 351.90625 117.460938 C 327.804688 129.269531 302.011719 137.867188 275.222656 143 C 271.761719 143.660156 269.269531 146.683594 269.269531 150.203125 L 269.269531 246.984375 C 269.269531 257.414062 271.410156 266.980469 275.765625 276.238281 C 285.316406 296.4375 298.84375 315.878906 315.980469 333.980469 Z M 283.953125 156.191406 C 309.90625 150.71875 334.902344 142.121094 358.363281 130.621094 C 377.992188 120.996094 396.578125 109.378906 413.726562 96.042969 C 428.574219 106.664062 444.300781 116.199219 460.539062 124.457031 C 485.566406 137.207031 512.035156 147.023438 539.230469 153.695312 L 539.230469 246.984375 C 539.230469 255.199219 537.558594 262.726562 534.113281 269.988281 C 525.238281 288.78125 512.578125 306.914062 496.527344 323.886719 C 474.460938 347.214844 445.152344 368.882812 411.585938 386.707031 C 377.992188 368.867188 348.679688 347.199219 326.644531 323.886719 C 310.566406 306.914062 297.917969 288.765625 289.042969 269.960938 C 285.609375 262.710938 283.9375 255.199219 283.9375 246.984375 L 283.9375 156.207031 Z M 283.953125 156.191406 "/><path style=" stroke:none;fill-rule:nonzero;fill:#ffffff;fill-opacity:1;" d="M 371.066406 303.160156 C 377.636719 309.730469 386.382812 313.355469 395.683594 313.355469 C 404.984375 313.355469 413.710938 309.730469 420.300781 303.160156 L 499.078125 224.378906 C 512.664062 210.808594 512.664062 188.714844 499.078125 175.144531 C 485.890625 161.984375 463.003906 162 449.847656 175.144531 L 395.699219 229.308594 L 380.894531 214.519531 C 367.75 201.375 344.851562 201.359375 331.675781 214.519531 C 318.105469 228.089844 318.105469 250.183594 331.675781 263.753906 L 371.09375 303.160156 Z M 342.035156 224.90625 C 345.847656 221.09375 350.894531 218.996094 356.277344 218.996094 C 361.664062 218.996094 366.722656 221.09375 370.523438 224.890625 L 390.503906 244.871094 C 393.363281 247.734375 398.015625 247.734375 400.875 244.871094 L 460.21875 185.53125 C 467.832031 177.917969 481.078125 177.902344 488.707031 185.53125 C 496.554688 193.394531 496.554688 206.15625 488.707031 214.019531 L 409.929688 292.800781 C 402.300781 300.445312 389.023438 300.414062 381.453125 292.800781 L 342.035156 253.394531 C 334.183594 245.53125 334.183594 232.753906 342.035156 224.90625 Z M 342.035156 224.90625 "/><path style=" stroke:none;fill-rule:nonzero;fill:#ffffff;fill-opacity:1;" d="M 307.03125 662.070312 C 311.078125 662.070312 314.363281 658.78125 314.363281 654.734375 L 314.363281 602.683594 C 314.363281 598.632812 311.078125 595.347656 307.03125 595.347656 C 302.980469 595.347656 299.695312 598.632812 299.695312 602.683594 L 299.695312 654.734375 C 299.695312 658.78125 302.980469 662.070312 307.03125 662.070312 Z M 307.03125 662.070312 "/><path style=" stroke:none;fill-rule:nonzero;fill:#ffffff;fill-opacity:1;" d="M 301.878906 693.140625 C 302.46875 693.726562 303.363281 694.3125 304.226562 694.609375 C 305.121094 695.046875 306.136719 695.195312 307.015625 695.195312 C 308.027344 695.195312 308.921875 695.046875 309.789062 694.609375 C 310.683594 694.3125 311.546875 693.726562 312.136719 693.140625 C 312.867188 692.40625 313.457031 691.527344 313.75 690.648438 C 314.175781 689.765625 314.335938 688.886719 314.335938 687.859375 C 314.335938 686.980469 314.175781 685.953125 313.75 685.070312 C 313.441406 684.191406 312.855469 683.3125 312.136719 682.722656 C 311.546875 681.992188 310.667969 681.402344 309.789062 681.109375 C 307.148438 679.9375 303.933594 680.671875 301.867188 682.722656 C 301.132812 683.3125 300.546875 684.191406 300.265625 685.070312 C 299.828125 685.953125 299.679688 686.980469 299.679688 687.859375 C 299.679688 688.886719 299.828125 689.765625 300.265625 690.648438 C 300.558594 691.527344 301.148438 692.40625 301.867188 693.140625 Z M 301.878906 693.140625 "/></g></svg>