<svg xmlns="http://www.w3.org/2000/svg" xmlns:xlink="http://www.w3.org/1999/xlink" width="1080" zoomAndPan="magnify" viewBox="0 0 810 809.999993" height="1080" preserveAspectRatio="xMidYMid meet" version="1.2"><defs><clipPath id="f980f14ab7"><path d="M 13.699219 13.699219 L 795.949219 13.699219 L 795.949219 795.949219 L 13.699219 795.949219 Z M 13.699219 13.699219 "/></clipPath></defs><g id="7803ee3b7f"><g clip-rule="nonzero" clip-path="url(#f980f14ab7)"><path style=" stroke:none;fill-rule:nonzero;fill:#545454;fill-opacity:1;" d="M 404.824219 13.699219 C 188.835938 13.699219 13.699219 188.835938 13.699219 404.824219 C 13.699219 620.8125 188.835938 795.949219 404.824219 795.949219 C 620.8125 795.949219 795.949219 620.8125 795.949219 404.824219 C 795.515625 188.835938 620.8125 14.136719 404.824219 13.699219 Z M 404.824219 763.355469 C 206.65625 763.355469 46.292969 602.996094 46.292969 404.824219 C 46.292969 206.65625 206.65625 46.292969 404.824219 46.292969 C 602.996094 46.292969 763.355469 206.65625 763.355469 404.824219 C 762.921875 602.5625 602.5625 762.921875 404.824219 763.355469 Z M 404.824219 763.355469 "/></g><path style=" stroke:none;fill-rule:nonzero;fill:#545454;fill-opacity:1;" d="M 192.75 453.5 C 192.75 570.402344 287.488281 665.574219 404.824219 665.574219 C 522.164062 665.574219 616.902344 570.835938 616.902344 453.5 L 616.902344 436.984375 L 192.75 436.984375 Z M 583.4375 470.011719 C 574.3125 568.664062 487.394531 641.238281 388.746094 632.113281 C 302.699219 624.289062 234.46875 556.058594 226.644531 470.011719 Z M 583.4375 470.011719 "/><path style=" stroke:none;fill-rule:nonzero;fill:#545454;fill-opacity:1;" d="M 274.449219 274.449219 C 301.394531 274.449219 323.125 296.179688 323.125 323.125 L 355.71875 323.125 C 355.71875 277.925781 319.210938 241.421875 274.015625 241.421875 C 228.820312 241.421875 192.3125 277.925781 192.3125 323.125 L 224.90625 323.125 C 225.777344 296.179688 247.507812 274.449219 274.449219 274.449219 Z M 274.449219 274.449219 "/><path style=" stroke:none;fill-rule:nonzero;fill:#545454;fill-opacity:1;" d="M 535.199219 241.855469 C 490.003906 241.855469 453.933594 278.363281 453.5 323.558594 L 486.09375 323.558594 C 486.09375 296.613281 507.820312 274.886719 534.765625 274.886719 C 561.710938 274.886719 583.4375 296.613281 583.4375 323.558594 L 616.03125 323.558594 C 616.46875 278.363281 580.398438 241.855469 535.199219 241.855469 Z M 535.199219 241.855469 "/></g></svg>