<svg xmlns="http://www.w3.org/2000/svg" xmlns:xlink="http://www.w3.org/1999/xlink" width="1080" zoomAndPan="magnify" viewBox="0 0 810 809.999993" height="1080" preserveAspectRatio="xMidYMid meet" version="1.2"><defs><clipPath id="d75695f49a"><path d="M 170 429 L 802.5 429 L 802.5 732 L 170 732 Z M 170 429 "/></clipPath><clipPath id="a8fdf34af2"><path d="M 392 9.75 L 418 9.75 L 418 85 L 392 85 Z M 392 9.75 "/></clipPath></defs><g id="72f203812c"><g clip-rule="nonzero" clip-path="url(#d75695f49a)"><path style=" stroke:none;fill-rule:nonzero;fill:#545454;fill-opacity:1;" d="M 182.949219 731.886719 C 177.847656 731.886719 173.046875 728.75 171.175781 723.683594 C 168.769531 717.179688 172.089844 709.960938 178.59375 707.554688 L 208.105469 696.636719 C 217.597656 693.109375 227.582031 691.6875 237.789062 692.425781 C 468.015625 709.273438 530.351562 686.089844 536.140625 683.652344 L 758.472656 532.835938 C 770.171875 524.898438 777.15625 511.710938 777.15625 497.558594 C 777.15625 489.335938 774.773438 481.328125 770.269531 474.402344 C 763.84375 464.519531 753.921875 457.894531 742.328125 455.75 C 730.722656 453.601562 719.09375 456.234375 709.5625 463.164062 L 556.050781 574.703125 C 555.863281 574.839844 555.671875 574.972656 555.476562 575.097656 C 549.652344 578.851562 541.859375 577.195312 538.097656 571.371094 C 534.414062 565.65625 535.929688 558.09375 541.480469 554.257812 L 694.804688 442.851562 C 709.96875 431.835938 728.46875 427.648438 746.898438 431.058594 C 765.328125 434.472656 781.105469 445.003906 791.320312 460.714844 C 798.480469 471.726562 802.261719 484.464844 802.261719 497.558594 C 802.261719 520.042969 791.164062 541 772.570312 553.617188 L 549.40625 704.996094 C 549.0625 705.230469 548.710938 705.445312 548.347656 705.640625 C 542.582031 708.769531 484.851562 735.679688 235.96875 717.46875 C 229.394531 716.996094 222.949219 717.90625 216.832031 720.179688 L 187.304688 731.105469 C 185.867188 731.632812 184.398438 731.886719 182.949219 731.886719 Z M 182.949219 731.886719 "/></g><path style=" stroke:none;fill-rule:nonzero;fill:#545454;fill-opacity:1;" d="M 493.132812 611.589844 L 363.761719 611.589844 C 356.828125 611.589844 351.207031 605.96875 351.207031 599.035156 C 351.207031 592.101562 356.828125 586.480469 363.761719 586.480469 L 493.132812 586.480469 C 508.550781 586.480469 523.148438 579.351562 532.179688 567.414062 C 534.300781 564.617188 536.046875 561.808594 537.371094 559.070312 C 542.800781 548.058594 541.722656 538.296875 534.011719 528.269531 C 525.089844 516.683594 510.664062 509.761719 495.425781 509.761719 L 342.09375 509.761719 C 321.929688 509.761719 302.613281 505.730469 284.683594 497.78125 C 244.371094 479.941406 167.195312 462.503906 103.269531 546.246094 C 99.0625 551.761719 91.183594 552.816406 85.671875 548.609375 C 80.160156 544.402344 79.105469 536.527344 83.3125 531.015625 C 160.460938 429.9375 256.949219 458.046875 294.851562 474.824219 C 309.5625 481.347656 325.457031 484.652344 342.09375 484.652344 L 495.425781 484.652344 C 518.402344 484.652344 540.265625 495.234375 553.914062 512.957031 C 567.539062 530.683594 569.621094 550.441406 559.929688 570.097656 C 557.925781 574.238281 555.3125 578.457031 552.207031 582.5625 C 538.449219 600.738281 516.367188 611.589844 493.132812 611.589844 Z M 493.132812 611.589844 "/><path style=" stroke:none;fill-rule:nonzero;fill:#545454;fill-opacity:1;" d="M 143.238281 797.753906 C 138.253906 797.753906 133.246094 796.921875 128.394531 795.246094 C 116.9375 791.292969 107.703125 783.113281 102.394531 772.210938 L 12.496094 587.574219 C 1.542969 565.074219 10.9375 537.855469 33.4375 526.902344 L 49.050781 519.300781 C 71.554688 508.347656 98.769531 517.738281 109.726562 540.238281 L 199.621094 724.875 C 204.929688 735.773438 205.671875 748.089844 201.71875 759.550781 C 197.765625 771.007812 189.582031 780.242188 178.683594 785.550781 L 178.683594 785.546875 L 163.066406 793.152344 C 156.785156 796.210938 150.027344 797.753906 143.238281 797.753906 Z M 68.886719 539.832031 C 65.910156 539.832031 62.894531 540.488281 60.042969 541.875 L 44.429688 549.476562 C 34.375 554.371094 30.179688 566.53125 35.074219 576.585938 L 124.96875 761.222656 C 127.339844 766.09375 131.464844 769.746094 136.585938 771.511719 C 141.703125 773.28125 147.207031 772.949219 152.074219 770.578125 L 167.691406 762.972656 C 172.5625 760.601562 176.214844 756.476562 177.984375 751.355469 C 179.75 746.238281 179.417969 740.738281 177.046875 735.867188 L 87.148438 551.226562 C 83.644531 544.027344 76.40625 539.832031 68.886719 539.832031 Z M 68.886719 539.832031 "/><path style=" stroke:none;fill-rule:nonzero;fill:#545454;fill-opacity:1;" d="M 496.117188 440.941406 C 494.117188 440.941406 492.113281 440.464844 490.273438 439.5 L 405.332031 394.84375 L 320.390625 439.5 C 316.160156 441.722656 311.035156 441.351562 307.167969 438.542969 C 303.304688 435.738281 301.367188 430.976562 302.175781 426.265625 L 318.394531 331.683594 L 249.675781 264.695312 C 246.253906 261.359375 245.023438 256.371094 246.5 251.824219 C 247.976562 247.28125 251.90625 243.96875 256.632812 243.28125 L 351.601562 229.484375 L 394.074219 143.425781 C 396.1875 139.140625 400.554688 136.429688 405.332031 136.429688 C 410.109375 136.429688 414.472656 139.140625 416.589844 143.425781 L 459.0625 229.484375 L 554.027344 243.28125 C 558.757812 243.96875 562.6875 247.28125 564.164062 251.824219 C 565.640625 256.371094 564.410156 261.359375 560.988281 264.695312 L 492.269531 331.683594 L 508.488281 426.265625 C 509.296875 430.976562 507.363281 435.738281 503.496094 438.542969 C 501.308594 440.132812 498.71875 440.941406 496.117188 440.941406 Z M 405.332031 368.105469 C 407.339844 368.105469 409.347656 368.585938 411.175781 369.546875 L 479.445312 405.4375 L 466.40625 329.417969 C 465.707031 325.347656 467.058594 321.191406 470.015625 318.308594 L 525.246094 264.46875 L 448.917969 253.378906 C 444.832031 252.785156 441.296875 250.21875 439.46875 246.511719 L 405.332031 177.347656 L 371.199219 246.511719 C 369.371094 250.21875 365.835938 252.785156 361.746094 253.378906 L 285.417969 264.46875 L 340.648438 318.308594 C 343.609375 321.191406 344.957031 325.347656 344.257812 329.417969 L 331.222656 405.4375 L 399.492188 369.546875 C 401.320312 368.585938 403.328125 368.105469 405.332031 368.105469 Z M 405.332031 368.105469 "/><g clip-rule="nonzero" clip-path="url(#a8fdf34af2)"><path style=" stroke:none;fill-rule:nonzero;fill:#545454;fill-opacity:1;" d="M 405.332031 84.035156 C 398.398438 84.035156 392.777344 78.414062 392.777344 71.484375 L 392.777344 22.304688 C 392.777344 15.371094 398.398438 9.75 405.332031 9.75 C 412.265625 9.75 417.886719 15.371094 417.886719 22.304688 L 417.886719 71.484375 C 417.886719 78.414062 412.265625 84.035156 405.332031 84.035156 Z M 405.332031 84.035156 "/></g><path style=" stroke:none;fill-rule:nonzero;fill:#545454;fill-opacity:1;" d="M 290.582031 131.570312 C 287.367188 131.570312 284.15625 130.34375 281.703125 127.890625 L 246.929688 93.117188 C 242.027344 88.214844 242.027344 80.265625 246.929688 75.363281 C 251.832031 70.460938 259.78125 70.460938 264.683594 75.363281 L 299.457031 110.140625 C 304.359375 115.042969 304.359375 122.988281 299.457031 127.890625 C 297.007812 130.339844 293.792969 131.570312 290.582031 131.570312 Z M 290.582031 131.570312 "/><path style=" stroke:none;fill-rule:nonzero;fill:#545454;fill-opacity:1;" d="M 520.085938 131.570312 C 516.871094 131.570312 513.660156 130.34375 511.207031 127.890625 C 506.304688 122.988281 506.304688 115.042969 511.207031 110.140625 L 545.980469 75.363281 C 550.882812 70.460938 558.832031 70.460938 563.734375 75.363281 C 568.636719 80.265625 568.636719 88.214844 563.734375 93.117188 L 528.960938 127.890625 C 526.511719 130.339844 523.300781 131.570312 520.085938 131.570312 Z M 520.085938 131.570312 "/></g></svg>