<svg xmlns="http://www.w3.org/2000/svg" xmlns:xlink="http://www.w3.org/1999/xlink" width="1080" zoomAndPan="magnify" viewBox="0 0 810 809.999993" height="1080" preserveAspectRatio="xMidYMid meet" version="1.2"><g id="39416622df"><path style=" stroke:none;fill-rule:nonzero;fill:#545454;fill-opacity:1;" d="M 687.742188 411.921875 C 687.207031 404.195312 686.363281 396.5 685.21875 388.839844 C 684.070312 381.179688 682.621094 373.578125 680.867188 366.035156 C 679.117188 358.492188 677.066406 351.027344 674.722656 343.648438 C 672.375 336.265625 669.738281 328.988281 666.816406 321.816406 C 663.890625 314.644531 660.6875 307.601562 657.199219 300.683594 C 653.714844 293.769531 649.960938 287 645.9375 280.382812 C 641.914062 273.765625 637.632812 267.316406 633.097656 261.039062 C 628.5625 254.761719 623.78125 248.675781 618.761719 242.777344 C 616.539062 240.132812 614.269531 237.527344 611.957031 234.960938 C 609.640625 232.394531 607.285156 229.871094 604.882812 227.386719 C 602.480469 224.902344 600.035156 222.460938 597.546875 220.0625 C 595.058594 217.667969 592.53125 215.3125 589.960938 213.003906 C 587.390625 210.695312 584.78125 208.429688 582.128906 206.210938 C 579.480469 203.996094 576.792969 201.824219 574.066406 199.699219 C 571.34375 197.578125 568.582031 195.5 565.78125 193.472656 C 562.984375 191.445312 560.152344 189.46875 557.285156 187.542969 C 554.417969 185.613281 551.515625 183.738281 548.582031 181.910156 C 545.648438 180.085938 542.6875 178.308594 539.691406 176.585938 C 536.695312 174.863281 533.671875 173.195312 530.617188 171.578125 C 527.5625 169.960938 524.480469 168.398438 521.375 166.890625 C 518.265625 165.382812 515.132812 163.929688 511.972656 162.53125 C 508.8125 161.128906 505.628906 159.789062 502.421875 158.5 C 499.214844 157.210938 495.988281 155.980469 492.738281 154.808594 C 489.488281 153.632812 486.21875 152.515625 482.929688 151.457031 C 479.644531 150.394531 476.335938 149.394531 473.011719 148.449219 C 469.6875 147.507812 466.351562 146.621094 462.996094 145.792969 C 459.640625 144.964844 456.273438 144.199219 452.890625 143.488281 C 449.507812 142.777344 446.117188 142.128906 442.710938 141.539062 C 439.308594 140.949219 435.894531 140.417969 432.46875 139.945312 C 429.046875 139.476562 425.617188 139.066406 422.179688 138.714844 C 418.742188 138.363281 415.300781 138.074219 411.851562 137.84375 C 408.40625 137.613281 404.953125 137.445312 401.5 137.335938 C 398.046875 137.226562 394.59375 137.175781 391.136719 137.1875 C 387.683594 137.199219 384.226562 137.269531 380.777344 137.402344 C 377.324219 137.535156 373.875 137.730469 370.425781 137.984375 C 366.980469 138.234375 363.542969 138.550781 360.105469 138.921875 C 356.671875 139.296875 353.242188 139.730469 349.824219 140.226562 C 346.402344 140.71875 342.996094 141.273438 339.59375 141.886719 C 336.195312 142.5 332.804688 143.171875 329.429688 143.902344 C 326.050781 144.636719 322.6875 145.425781 319.339844 146.277344 C 317.851562 143.421875 316.28125 140.617188 314.625 137.855469 C 312.972656 135.09375 311.238281 132.386719 309.425781 129.726562 C 307.609375 127.066406 305.71875 124.464844 303.753906 121.917969 C 301.785156 119.371094 299.746094 116.882812 297.632812 114.457031 C 295.519531 112.03125 293.335938 109.667969 291.082031 107.371094 C 288.828125 105.070312 286.511719 102.84375 284.125 100.679688 C 281.742188 98.519531 279.296875 96.429688 276.789062 94.414062 C 274.28125 92.394531 271.714844 90.453125 269.09375 88.585938 C 266.472656 86.722656 263.796875 84.933594 261.070312 83.226562 C 258.34375 81.515625 255.566406 79.890625 252.742188 78.34375 C 249.921875 76.800781 247.054688 75.339844 244.144531 73.964844 C 241.234375 72.589844 238.289062 71.300781 235.304688 70.097656 C 232.316406 68.894531 229.300781 67.78125 226.25 66.757812 C 223.199219 65.734375 220.121094 64.800781 217.011719 63.957031 C 213.90625 63.113281 210.777344 62.363281 207.628906 61.703125 C 204.480469 61.046875 201.3125 60.480469 198.128906 60.007812 C 194.945312 59.539062 191.75 59.160156 188.542969 58.875 C 185.339844 58.59375 182.128906 58.402344 178.910156 58.308594 C 175.695312 58.214844 172.476562 58.214844 169.261719 58.3125 C 166.042969 58.40625 162.832031 58.597656 159.625 58.882812 C 156.421875 59.167969 153.226562 59.546875 150.042969 60.019531 C 146.859375 60.492188 143.691406 61.058594 140.542969 61.71875 C 137.394531 62.378906 134.265625 63.128906 131.160156 63.972656 C 128.054688 64.816406 124.976562 65.753906 121.925781 66.777344 C 118.875 67.804688 115.855469 68.917969 112.871094 70.121094 C 109.886719 71.324219 106.941406 72.613281 104.03125 73.992188 C 101.125 75.367188 98.257812 76.828125 95.433594 78.375 C 92.613281 79.921875 89.835938 81.550781 87.109375 83.257812 C 84.382812 84.96875 81.710938 86.757812 79.089844 88.625 C 76.46875 90.492188 73.902344 92.433594 71.398438 94.453125 C 68.890625 96.46875 66.445312 98.5625 64.0625 100.722656 C 61.679688 102.886719 59.359375 105.117188 57.109375 107.414062 C 54.855469 109.714844 52.671875 112.078125 50.5625 114.503906 C 48.449219 116.933594 46.410156 119.421875 44.441406 121.96875 C 42.476562 124.515625 40.585938 127.121094 38.773438 129.777344 C 36.960938 132.4375 35.230469 135.148438 33.578125 137.910156 C 31.921875 140.671875 30.351562 143.480469 28.867188 146.332031 C 27.378906 149.1875 25.976562 152.082031 24.660156 155.019531 C 23.34375 157.957031 22.113281 160.929688 20.972656 163.9375 C 19.832031 166.945312 18.777344 169.984375 17.816406 173.058594 C 16.855469 176.128906 15.984375 179.226562 15.203125 182.347656 C 14.421875 185.46875 13.738281 188.613281 13.140625 191.773438 C 12.546875 194.9375 12.046875 198.117188 11.640625 201.308594 C 11.230469 204.5 10.917969 207.703125 10.699219 210.914062 C 10.480469 214.125 10.359375 217.339844 10.328125 220.554688 C 10.300781 223.773438 10.367188 226.992188 10.527344 230.203125 C 10.6875 233.417969 10.941406 236.625 11.292969 239.824219 C 11.640625 243.023438 12.085938 246.210938 12.621094 249.382812 C 13.160156 252.558594 13.789062 255.710938 14.511719 258.847656 C 15.238281 261.984375 16.050781 265.09375 16.957031 268.183594 C 17.867188 271.269531 18.863281 274.328125 19.949219 277.359375 C 21.035156 280.386719 22.210938 283.382812 23.476562 286.34375 C 24.738281 289.300781 26.089844 292.222656 27.523438 295.101562 C 28.960938 297.984375 30.480469 300.816406 32.082031 303.609375 C 33.683594 306.398438 35.367188 309.140625 37.132812 311.832031 C 38.898438 314.523438 40.738281 317.160156 42.660156 319.742188 C 44.578125 322.328125 46.574219 324.851562 48.640625 327.316406 C 50.710938 329.78125 52.847656 332.183594 55.058594 334.523438 C 57.269531 336.863281 59.546875 339.132812 61.890625 341.339844 C 64.234375 343.542969 66.640625 345.679688 69.113281 347.742188 C 71.582031 349.804688 74.109375 351.792969 76.699219 353.707031 C 79.285156 355.621094 81.925781 357.457031 84.621094 359.214844 C 87.316406 360.976562 90.0625 362.652344 92.855469 364.25 C 95.648438 365.847656 98.488281 367.359375 101.371094 368.789062 C 100.578125 372.257812 99.847656 375.742188 99.179688 379.238281 C 98.511719 382.734375 97.90625 386.242188 97.367188 389.761719 C 96.824219 393.28125 96.34375 396.804688 95.929688 400.34375 C 95.515625 403.878906 95.164062 407.417969 94.875 410.96875 C 94.585938 414.515625 94.363281 418.066406 94.203125 421.625 C 94.042969 425.179688 93.945312 428.738281 93.914062 432.296875 C 93.878906 435.859375 93.910156 439.417969 94.007812 442.976562 C 94.101562 446.535156 94.261719 450.089844 94.484375 453.644531 C 94.707031 457.195312 94.996094 460.742188 95.347656 464.285156 C 95.699219 467.828125 96.113281 471.363281 96.589844 474.890625 C 97.066406 478.417969 97.609375 481.9375 98.210938 485.445312 C 98.816406 488.953125 99.484375 492.449219 100.214844 495.933594 C 100.945312 499.417969 101.738281 502.886719 102.589844 506.34375 C 103.445312 509.800781 104.363281 513.238281 105.339844 516.660156 C 106.320312 520.085938 107.359375 523.488281 108.457031 526.875 C 109.558594 530.257812 110.71875 533.625 111.941406 536.96875 C 113.164062 540.3125 114.445312 543.632812 115.785156 546.929688 C 117.125 550.226562 118.527344 553.5 119.984375 556.746094 C 121.441406 559.996094 122.960938 563.214844 124.535156 566.40625 C 126.109375 569.601562 127.738281 572.765625 129.425781 575.898438 C 131.113281 579.03125 132.859375 582.136719 134.65625 585.207031 C 136.457031 588.277344 138.3125 591.316406 140.21875 594.320312 C 142.128906 597.328125 144.089844 600.296875 146.105469 603.230469 C 148.121094 606.164062 150.1875 609.0625 152.308594 611.921875 C 154.429688 614.78125 156.597656 617.605469 158.820312 620.386719 C 161.039062 623.167969 163.308594 625.910156 165.628906 628.609375 C 167.949219 631.308594 170.316406 633.96875 172.730469 636.582031 C 175.144531 639.199219 177.609375 641.769531 180.113281 644.296875 C 182.621094 646.824219 185.175781 649.304688 187.769531 651.742188 C 190.367188 654.175781 193.007812 656.5625 195.6875 658.902344 C 198.371094 661.246094 201.09375 663.535156 203.859375 665.777344 C 206.625 668.019531 209.429688 670.214844 212.273438 672.355469 C 215.117188 674.496094 217.996094 676.585938 220.914062 678.625 C 223.832031 680.664062 226.789062 682.648438 229.777344 684.582031 C 232.769531 686.511719 235.792969 688.390625 238.847656 690.214844 C 241.90625 692.035156 244.996094 693.804688 248.117188 695.515625 C 251.238281 697.230469 254.390625 698.882812 257.570312 700.484375 C 260.75 702.082031 263.957031 703.625 267.195312 705.109375 C 270.429688 706.589844 273.691406 708.015625 276.976562 709.382812 C 280.265625 710.75 283.578125 712.058594 286.910156 713.304688 C 290.246094 714.550781 293.601562 715.738281 296.976562 716.867188 C 300.351562 717.992188 303.75 719.058594 307.164062 720.0625 C 310.578125 721.070312 314.011719 722.011719 317.460938 722.894531 C 320.910156 723.773438 324.375 724.59375 327.851562 725.351562 C 331.328125 726.109375 334.820312 726.804688 338.324219 727.433594 C 341.828125 728.066406 345.339844 728.632812 348.863281 729.140625 C 352.390625 729.644531 355.921875 730.085938 359.460938 730.464844 C 363 730.84375 366.546875 731.160156 370.097656 731.410156 C 373.648438 731.660156 377.203125 731.847656 380.757812 731.96875 C 384.316406 732.09375 387.875 732.152344 391.4375 732.148438 C 394.996094 732.144531 398.554688 732.074219 402.113281 731.941406 C 405.667969 731.808594 409.222656 731.613281 412.773438 731.351562 C 416.324219 731.09375 419.867188 730.769531 423.40625 730.382812 C 426.945312 729.992188 430.476562 729.542969 434 729.027344 C 437.519531 728.511719 441.03125 727.933594 444.535156 727.292969 C 448.035156 726.652344 451.527344 725.949219 455.003906 725.183594 C 458.476562 724.417969 461.941406 723.589844 465.386719 722.699219 C 468.832031 721.808594 472.261719 720.855469 475.675781 719.839844 C 479.085938 718.828125 482.480469 717.753906 485.855469 716.617188 C 489.226562 715.480469 492.582031 714.285156 495.910156 713.027344 C 499.242188 711.773438 502.550781 710.457031 505.832031 709.082031 C 509.117188 707.707031 512.375 706.273438 515.605469 704.78125 C 518.839844 703.289062 522.042969 701.738281 525.21875 700.128906 C 528.394531 698.523438 531.539062 696.859375 534.65625 695.136719 C 536.523438 696.648438 538.421875 698.113281 540.355469 699.539062 C 542.285156 700.964844 544.25 702.347656 546.242188 703.6875 C 548.234375 705.023438 550.257812 706.320312 552.304688 707.566406 C 554.355469 708.816406 556.433594 710.019531 558.535156 711.175781 C 560.640625 712.335938 562.765625 713.445312 564.917969 714.507812 C 567.070312 715.570312 569.246094 716.585938 571.445312 717.550781 C 573.640625 718.519531 575.859375 719.4375 578.097656 720.304688 C 580.335938 721.175781 582.589844 721.992188 584.863281 722.761719 C 587.140625 723.53125 589.429688 724.25 591.734375 724.917969 C 594.039062 725.585938 596.359375 726.203125 598.691406 726.765625 C 601.027344 727.332031 603.371094 727.84375 605.726562 728.304688 C 608.082031 728.765625 610.449219 729.175781 612.820312 729.53125 C 615.195312 729.890625 617.578125 730.191406 619.964844 730.445312 C 622.351562 730.695312 624.742188 730.894531 627.140625 731.039062 C 629.535156 731.183594 631.933594 731.277344 634.332031 731.316406 C 636.734375 731.355469 639.132812 731.34375 641.535156 731.277344 C 643.933594 731.210938 646.332031 731.089844 648.726562 730.917969 C 651.121094 730.742188 653.507812 730.519531 655.894531 730.238281 C 658.277344 729.960938 660.65625 729.628906 663.023438 729.246094 C 665.394531 728.863281 667.753906 728.425781 670.105469 727.9375 C 672.453125 727.449219 674.792969 726.910156 677.121094 726.320312 C 679.445312 725.726562 681.757812 725.085938 684.058594 724.390625 C 686.355469 723.695312 688.636719 722.953125 690.902344 722.15625 C 693.167969 721.363281 695.414062 720.519531 697.640625 719.625 C 699.871094 718.730469 702.078125 717.785156 704.261719 716.792969 C 706.449219 715.800781 708.613281 714.761719 710.75 713.675781 C 712.890625 712.585938 715.007812 711.453125 717.097656 710.273438 C 719.1875 709.089844 721.25 707.863281 723.285156 706.589844 C 725.320312 705.320312 727.328125 704.003906 729.304688 702.640625 C 731.28125 701.28125 733.226562 699.875 735.144531 698.429688 C 737.058594 696.980469 738.941406 695.492188 740.789062 693.960938 C 742.640625 692.429688 744.453125 690.859375 746.234375 689.25 C 747.800781 688.324219 749.117188 687.125 750.1875 685.652344 C 752.730469 683.222656 755.195312 680.714844 757.582031 678.125 C 759.964844 675.535156 762.261719 672.875 764.472656 670.136719 C 766.6875 667.398438 768.808594 664.59375 770.835938 661.71875 C 772.867188 658.847656 774.804688 655.910156 776.644531 652.910156 C 778.484375 649.910156 780.226562 646.855469 781.871094 643.746094 C 783.515625 640.632812 785.054688 637.472656 786.496094 634.261719 C 787.933594 631.050781 789.269531 627.792969 790.496094 624.496094 C 791.726562 621.199219 792.847656 617.867188 793.863281 614.496094 C 794.875 611.125 795.78125 607.726562 796.574219 604.300781 C 797.367188 600.871094 798.050781 597.421875 798.621094 593.949219 C 799.195312 590.476562 799.652344 586.988281 800 583.488281 C 800.34375 579.984375 800.578125 576.476562 800.695312 572.960938 C 800.816406 569.441406 800.824219 565.925781 800.714844 562.40625 C 800.609375 558.890625 800.386719 555.378906 800.050781 551.878906 C 799.71875 548.375 799.269531 544.886719 798.710938 541.410156 C 798.152344 537.9375 797.480469 534.484375 796.699219 531.054688 C 795.914062 527.621094 795.023438 524.222656 794.019531 520.847656 C 793.015625 517.472656 791.90625 514.136719 790.691406 510.835938 C 789.472656 507.535156 788.148438 504.273438 786.71875 501.058594 C 785.292969 497.84375 783.761719 494.675781 782.128906 491.558594 C 780.496094 488.441406 778.761719 485.382812 776.933594 482.375 C 775.101562 479.371094 773.175781 476.425781 771.15625 473.546875 C 769.132812 470.664062 767.023438 467.851562 764.820312 465.109375 C 762.617188 462.363281 760.328125 459.691406 757.953125 457.097656 C 755.578125 454.5 753.125 451.980469 750.585938 449.542969 C 748.046875 447.105469 745.433594 444.753906 742.746094 442.484375 C 740.054688 440.214844 737.296875 438.03125 734.464844 435.941406 C 731.636719 433.851562 728.742188 431.855469 725.78125 429.949219 C 722.820312 428.046875 719.804688 426.238281 716.726562 424.53125 C 713.652344 422.820312 710.523438 421.210938 707.34375 419.707031 C 704.164062 418.199219 700.9375 416.796875 697.667969 415.496094 C 694.398438 414.199219 691.089844 413.003906 687.742188 411.921875 Z M 618.828125 404.871094 L 616.734375 405.148438 C 612.648438 405.667969 608.589844 406.332031 604.558594 407.136719 C 603.425781 407.363281 602.320312 407.613281 601.1875 407.851562 C 597.585938 408.648438 594.023438 409.570312 590.503906 410.617188 C 589.183594 411 587.867188 411.367188 586.550781 411.777344 C 583.125 412.882812 579.753906 414.121094 576.394531 415.449219 C 575.195312 415.925781 573.96875 416.347656 572.769531 416.847656 C 569.4375 418.269531 566.183594 419.839844 562.941406 421.484375 L 519.597656 421.484375 C 519.152344 393.945312 517.007812 366.539062 513.171875 339.265625 C 531.050781 331.246094 547.972656 321.550781 563.9375 310.183594 C 579.902344 298.816406 594.597656 285.996094 608.023438 271.722656 C 615.390625 281.390625 622.0625 291.519531 628.039062 302.101562 C 634.011719 312.6875 639.238281 323.632812 643.710938 334.9375 C 648.183594 346.238281 651.863281 357.792969 654.75 369.601562 C 657.632812 381.410156 659.699219 393.359375 660.945312 405.453125 C 646.929688 403.433594 632.890625 403.242188 618.828125 404.871094 Z M 474.582031 589.308594 C 454.953125 661.214844 423.203125 705.757812 391.453125 705.757812 C 353.066406 705.757812 315.664062 640.875 298.851562 546.71875 C 305.886719 544.171875 313.015625 541.921875 320.238281 539.964844 C 327.457031 538.007812 334.746094 536.355469 342.101562 535 C 349.460938 533.644531 356.863281 532.59375 364.304688 531.851562 C 371.75 531.105469 379.210938 530.671875 386.691406 530.542969 C 394.171875 530.414062 401.644531 530.59375 409.109375 531.082031 C 416.574219 531.570312 424.003906 532.367188 431.40625 533.46875 C 438.804688 534.570312 446.144531 535.976562 453.429688 537.683594 C 460.710938 539.394531 467.914062 541.398438 475.03125 543.703125 C 473.832031 551.558594 473.199219 559.464844 473.132812 567.414062 C 473.132812 571.539062 473.292969 575.492188 473.570312 579.363281 C 473.660156 580.679688 473.84375 582 473.976562 583.421875 C 474.175781 585.425781 474.308594 587.480469 474.582031 589.335938 Z M 174.84375 597.464844 C 170.796875 592.085938 166.957031 586.5625 163.324219 580.894531 C 159.691406 575.230469 156.273438 569.4375 153.070312 563.515625 C 149.867188 557.59375 146.890625 551.5625 144.136719 545.417969 C 141.382812 539.277344 138.863281 533.039062 136.578125 526.707031 C 134.289062 520.378906 132.242188 513.96875 130.429688 507.488281 C 128.621094 501.003906 127.054688 494.460938 125.734375 487.859375 C 124.410156 481.261719 123.335938 474.621094 122.507812 467.9375 C 121.683594 461.257812 121.105469 454.558594 120.777344 447.832031 L 263.125 447.832031 C 263.566406 475.382812 265.703125 502.796875 269.539062 530.078125 C 251.710938 538.121094 234.828125 547.8125 218.894531 559.152344 C 202.960938 570.496094 188.277344 583.277344 174.84375 597.492188 Z M 177.347656 261.050781 C 175.316406 261.144531 173.285156 261.136719 171.25 261.035156 C 169.21875 260.929688 167.195312 260.726562 165.183594 260.425781 C 163.171875 260.121094 161.179688 259.722656 159.207031 259.226562 C 157.234375 258.730469 155.289062 258.140625 153.375 257.453125 C 151.457031 256.769531 149.582031 255.988281 147.742188 255.121094 C 145.902344 254.25 144.109375 253.296875 142.363281 252.25 C 140.617188 251.207031 138.925781 250.082031 137.289062 248.871094 C 135.652344 247.664062 134.078125 246.375 132.566406 245.015625 C 131.054688 243.652344 129.613281 242.21875 128.242188 240.714844 C 126.871094 239.210938 125.578125 237.644531 124.359375 236.015625 C 123.140625 234.386719 122.003906 232.703125 120.949219 230.960938 C 119.898438 229.21875 118.929688 227.433594 118.050781 225.597656 C 117.171875 223.761719 116.382812 221.890625 115.6875 219.980469 C 114.988281 218.066406 114.386719 216.125 113.878906 214.15625 C 113.371094 212.183594 112.960938 210.195312 112.648438 208.183594 C 112.335938 206.175781 112.121094 204.152344 112.003906 202.121094 C 111.898438 200.085938 111.894531 198.050781 111.988281 196.015625 C 112.085938 193.980469 112.277344 191.957031 112.574219 189.941406 C 112.867188 187.925781 113.257812 185.925781 113.75 183.949219 C 114.238281 181.972656 114.824219 180.023438 115.507812 178.101562 C 116.1875 176.183594 116.960938 174.300781 117.828125 172.457031 C 118.695312 170.613281 119.648438 168.816406 120.691406 167.066406 C 121.734375 165.316406 122.859375 163.621094 124.070312 161.980469 C 125.28125 160.339844 126.566406 158.765625 127.929688 157.25 C 129.296875 155.738281 130.730469 154.296875 132.238281 152.921875 C 133.742188 151.550781 135.3125 150.253906 136.945312 149.039062 C 138.578125 147.820312 140.269531 146.683594 142.011719 145.632812 C 143.757812 144.582031 145.550781 143.617188 147.390625 142.738281 C 149.230469 141.863281 151.105469 141.082031 153.023438 140.386719 C 154.941406 139.695312 156.886719 139.101562 158.859375 138.601562 C 160.835938 138.101562 162.832031 137.699219 164.84375 137.394531 C 166.859375 137.089844 168.882812 136.882812 170.917969 136.777344 C 172.027344 136.726562 173.117188 136.699219 174.199219 136.699219 C 176.199219 136.707031 178.195312 136.808594 180.183594 137.011719 C 182.175781 137.210938 184.152344 137.503906 186.113281 137.894531 C 188.074219 138.285156 190.011719 138.769531 191.925781 139.347656 C 193.84375 139.925781 195.726562 140.59375 197.574219 141.351562 C 199.425781 142.109375 201.234375 142.957031 203.003906 143.890625 C 204.773438 144.824219 206.496094 145.839844 208.164062 146.9375 C 209.835938 148.039062 211.449219 149.214844 213.007812 150.46875 C 214.566406 151.722656 216.058594 153.050781 217.488281 154.449219 C 218.917969 155.847656 220.277344 157.3125 221.566406 158.84375 C 222.851562 160.375 224.066406 161.960938 225.199219 163.609375 C 226.335938 165.253906 227.386719 166.953125 228.359375 168.703125 C 229.332031 170.449219 230.214844 172.242188 231.015625 174.074219 C 231.8125 175.910156 232.523438 177.777344 233.140625 179.679688 C 233.757812 181.582031 234.285156 183.507812 234.71875 185.460938 C 235.148438 187.414062 235.488281 189.382812 235.730469 191.367188 C 235.972656 193.351562 236.121094 195.347656 236.171875 197.34375 C 236.222656 199.34375 236.175781 201.34375 236.035156 203.335938 C 235.890625 205.332031 235.652344 207.316406 235.320312 209.289062 C 234.988281 211.261719 234.558594 213.210938 234.039062 215.144531 C 233.515625 217.074219 232.902344 218.976562 232.199219 220.847656 C 231.496094 222.71875 230.703125 224.550781 229.820312 226.347656 C 228.9375 228.144531 227.972656 229.890625 226.921875 231.59375 C 225.871094 233.296875 224.742188 234.945312 223.53125 236.535156 C 222.324219 238.128906 221.039062 239.660156 219.683594 241.132812 C 218.328125 242.601562 216.902344 244 215.410156 245.332031 C 213.917969 246.664062 212.367188 247.921875 210.753906 249.105469 C 209.140625 250.289062 207.472656 251.390625 205.753906 252.410156 C 204.035156 253.433594 202.269531 254.371094 200.460938 255.222656 C 198.648438 256.074219 196.804688 256.835938 194.917969 257.507812 C 193.035156 258.183594 191.125 258.761719 189.183594 259.253906 C 187.246094 259.742188 185.289062 260.136719 183.308594 260.4375 C 181.332031 260.738281 179.34375 260.941406 177.347656 261.050781 Z M 174.082031 287.503906 L 174.542969 287.503906 C 178.011719 287.507812 181.472656 287.683594 184.921875 288.027344 C 188.375 288.371094 191.800781 288.886719 195.203125 289.566406 C 198.605469 290.246094 201.964844 291.089844 205.285156 292.101562 C 208.605469 293.109375 211.867188 294.277344 215.070312 295.609375 C 218.273438 296.9375 221.40625 298.417969 224.464844 300.054688 C 227.523438 301.691406 230.496094 303.472656 233.382812 305.398438 C 236.265625 307.328125 239.050781 309.390625 241.730469 311.589844 C 244.414062 313.789062 246.984375 316.117188 249.4375 318.570312 C 252.929688 322.148438 256.167969 325.941406 259.160156 329.949219 C 253.152344 334.710938 246.785156 338.933594 240.066406 342.621094 C 233.347656 346.304688 226.367188 349.40625 219.121094 351.914062 C 211.878906 354.425781 204.480469 356.308594 196.917969 357.574219 C 189.359375 358.835938 181.746094 359.457031 174.082031 359.433594 C 166.429688 359.457031 158.832031 358.839844 151.285156 357.582031 C 143.738281 356.324219 136.347656 354.441406 129.121094 351.9375 C 121.890625 349.429688 114.921875 346.335938 108.214844 342.65625 C 101.507812 338.972656 95.15625 334.757812 89.160156 330.003906 C 91.609375 326.714844 94.238281 323.582031 97.050781 320.601562 C 99.863281 317.617188 102.839844 314.808594 105.976562 312.175781 C 109.117188 309.542969 112.398438 307.097656 115.824219 304.847656 C 119.25 302.59375 122.792969 300.546875 126.457031 298.710938 C 130.117188 296.871094 133.875 295.25 137.726562 293.847656 C 141.578125 292.449219 145.5 291.273438 149.488281 290.328125 C 153.476562 289.386719 157.503906 288.675781 161.574219 288.199219 C 165.648438 287.726562 169.730469 287.488281 173.832031 287.492188 Z M 310.339844 312.707031 C 311.566406 310.863281 312.859375 309.042969 314.003906 307.160156 C 315.464844 304.773438 316.757812 302.324219 318.085938 299.875 C 319.128906 297.964844 320.222656 296.082031 321.183594 294.117188 C 322.433594 291.585938 323.515625 288.980469 324.621094 286.382812 C 325.464844 284.421875 326.375 282.433594 327.136719 280.507812 C 328.164062 277.875 329.007812 275.039062 329.90625 272.289062 C 330.539062 270.324219 331.222656 268.335938 331.816406 266.386719 C 332.632812 263.488281 333.25 260.535156 333.898438 257.585938 C 334.332031 255.675781 334.84375 253.792969 335.214844 251.867188 C 335.808594 248.601562 336.1875 245.28125 336.53125 241.972656 C 336.730469 240.3125 337.046875 238.679688 337.203125 237.007812 C 337.667969 232 337.902344 226.964844 337.902344 221.894531 C 337.902344 217.167969 337.675781 212.371094 337.214844 207.40625 C 353.816406 179.09375 372.957031 163.574219 391.386719 163.574219 C 429.699219 163.574219 467.046875 228.445312 483.859375 322.585938 C 476.597656 325.21875 469.238281 327.535156 461.78125 329.535156 C 454.324219 331.539062 446.796875 333.222656 439.195312 334.582031 C 431.59375 335.941406 423.949219 336.976562 416.261719 337.683594 C 408.570312 338.394531 400.867188 338.773438 393.144531 338.824219 C 385.421875 338.875 377.714844 338.597656 370.015625 337.988281 C 362.320312 337.382812 354.660156 336.449219 347.042969 335.191406 C 339.425781 333.929688 331.875 332.347656 324.390625 330.445312 C 316.90625 328.539062 309.519531 326.320312 302.226562 323.785156 C 303.34375 322.390625 304.492188 321.003906 305.558594 319.582031 C 307.285156 317.316406 308.800781 315.011719 310.339844 312.707031 Z M 485.792969 505.046875 C 484.925781 507.183594 483.84375 509.238281 483.054688 511.398438 C 482.265625 513.558594 481.738281 515.863281 481.027344 518.078125 C 473.492188 515.707031 465.878906 513.636719 458.183594 511.871094 C 450.488281 510.101562 442.734375 508.640625 434.921875 507.488281 C 427.109375 506.335938 419.265625 505.496094 411.386719 504.964844 C 403.507812 504.4375 395.621094 504.21875 387.722656 504.3125 C 379.828125 504.410156 371.949219 504.816406 364.085938 505.539062 C 356.222656 506.257812 348.398438 507.289062 340.617188 508.628906 C 332.835938 509.972656 325.117188 511.617188 317.46875 513.570312 C 309.816406 515.523438 302.253906 517.777344 294.78125 520.332031 C 291.667969 496.277344 289.910156 472.125 289.511719 447.871094 L 493.265625 447.871094 C 492.972656 463.496094 492.300781 478.753906 490.957031 493.085938 C 488.996094 496.921875 487.453125 500.976562 485.792969 504.984375 Z M 289.472656 421.484375 C 289.863281 397.234375 291.621094 373.082031 294.742188 349.027344 C 302.488281 351.746094 310.339844 354.132812 318.285156 356.1875 C 326.234375 358.242188 334.257812 359.960938 342.351562 361.339844 C 350.445312 362.71875 358.582031 363.753906 366.761719 364.445312 C 374.941406 365.136719 383.140625 365.480469 391.347656 365.480469 C 399.558594 365.480469 407.753906 365.136719 415.9375 364.445312 C 424.117188 363.753906 432.253906 362.71875 440.347656 361.339844 C 448.441406 359.960938 456.460938 358.242188 464.410156 356.1875 C 472.359375 354.132812 480.207031 351.746094 487.953125 349.027344 C 491.070312 373.082031 492.824219 397.234375 493.226562 421.484375 Z M 126.523438 378.722656 C 127.207031 378.933594 127.90625 379.078125 128.589844 379.273438 C 132.570312 380.417969 136.566406 381.410156 140.578125 382.253906 C 142.054688 382.554688 143.53125 382.820312 145.003906 383.082031 C 148.441406 383.707031 151.890625 384.210938 155.359375 384.597656 C 156.796875 384.769531 158.230469 384.953125 159.667969 385.085938 C 164.449219 385.507812 169.257812 385.78125 174.082031 385.78125 C 182.355469 385.796875 190.585938 385.179688 198.769531 383.933594 C 206.953125 382.691406 214.992188 380.832031 222.890625 378.359375 C 230.789062 375.886719 238.453125 372.828125 245.886719 369.1875 C 253.316406 365.542969 260.429688 361.359375 267.222656 356.628906 C 264.835938 377.628906 263.519531 399.339844 263.125 421.484375 L 120.84375 421.484375 C 121.414062 407.046875 123.128906 392.75 125.996094 378.589844 Z M 519.597656 447.832031 L 525.238281 447.832031 C 523.273438 449.652344 521.285156 451.496094 519.480469 453.40625 C 519.519531 451.5625 519.574219 449.703125 519.597656 447.832031 Z M 591.015625 251.25 C 579.390625 263.949219 566.667969 275.441406 552.855469 285.726562 C 539.039062 296.007812 524.378906 304.894531 508.875 312.390625 C 497.019531 249.152344 477.101562 200.289062 452.042969 170.398438 C 458.675781 171.917969 465.242188 173.683594 471.742188 175.699219 C 478.242188 177.714844 484.65625 179.972656 490.988281 182.472656 C 497.316406 184.96875 503.542969 187.703125 509.667969 190.671875 C 515.789062 193.640625 521.792969 196.835938 527.675781 200.257812 C 533.558594 203.679688 539.300781 207.320312 544.910156 211.175781 C 550.515625 215.03125 555.972656 219.09375 561.273438 223.359375 C 566.574219 227.628906 571.707031 232.089844 576.671875 236.742188 C 581.636719 241.398438 586.417969 246.234375 591.015625 251.25 Z M 331.0625 170.398438 C 330.707031 170.832031 330.328125 171.175781 329.96875 171.609375 C 329.867188 171.308594 329.8125 170.976562 329.707031 170.675781 C 330.15625 170.570312 330.617188 170.503906 331.0625 170.398438 Z M 174.082031 84.488281 C 177.40625 84.488281 180.722656 84.605469 184.039062 84.84375 C 187.355469 85.082031 190.65625 85.4375 193.945312 85.917969 C 197.238281 86.394531 200.503906 86.988281 203.75 87.703125 C 206.996094 88.417969 210.210938 89.25 213.398438 90.199219 C 216.585938 91.148438 219.730469 92.210938 222.839844 93.386719 C 225.949219 94.5625 229.011719 95.851562 232.027344 97.25 C 235.042969 98.648438 238 100.15625 240.90625 101.769531 C 243.8125 103.382812 246.65625 105.101562 249.4375 106.921875 C 252.21875 108.742188 254.929688 110.660156 257.574219 112.675781 C 260.214844 114.691406 262.78125 116.804688 265.269531 119.007812 C 267.757812 121.210938 270.164062 123.5 272.488281 125.878906 C 274.808594 128.253906 277.042969 130.714844 279.1875 133.253906 C 281.332031 135.792969 283.382812 138.410156 285.335938 141.097656 C 287.289062 143.785156 289.144531 146.542969 290.898438 149.363281 C 292.652344 152.1875 294.304688 155.070312 295.847656 158.015625 C 297.394531 160.957031 298.828125 163.953125 300.15625 167 C 305.648438 179.472656 309.160156 192.480469 310.695312 206.023438 C 311.324219 211.292969 311.644531 216.585938 311.660156 221.894531 C 311.660156 225.96875 311.476562 230.03125 311.113281 234.089844 C 310.75 238.144531 310.207031 242.175781 309.484375 246.183594 C 308.761719 250.191406 307.863281 254.160156 306.785156 258.085938 C 305.707031 262.015625 304.457031 265.886719 303.035156 269.703125 C 301.609375 273.519531 300.019531 277.261719 298.261719 280.9375 C 296.507812 284.609375 294.589844 288.199219 292.511719 291.699219 C 290.433594 295.203125 288.203125 298.605469 285.820312 301.910156 C 283.441406 305.210938 280.914062 308.402344 278.25 311.480469 C 275.089844 307.460938 271.726562 303.625 268.15625 299.964844 C 261.980469 293.816406 255.269531 288.320312 248.019531 283.484375 C 240.765625 278.648438 233.117188 274.558594 225.066406 271.21875 C 226.335938 270.324219 227.585938 269.398438 228.808594 268.4375 C 230.03125 267.476562 231.226562 266.484375 232.398438 265.460938 C 233.570312 264.433594 234.714844 263.382812 235.828125 262.296875 C 236.945312 261.210938 238.03125 260.101562 239.085938 258.957031 C 240.144531 257.816406 241.167969 256.648438 242.164062 255.453125 C 243.160156 254.257812 244.121094 253.035156 245.054688 251.789062 C 245.984375 250.542969 246.882812 249.273438 247.746094 247.980469 C 248.609375 246.6875 249.4375 245.371094 250.234375 244.035156 C 251.027344 242.699219 251.789062 241.339844 252.511719 239.964844 C 253.234375 238.585938 253.921875 237.191406 254.570312 235.777344 C 255.21875 234.363281 255.832031 232.933594 256.40625 231.488281 C 256.980469 230.042969 257.515625 228.582031 258.011719 227.109375 C 258.511719 225.636719 258.96875 224.148438 259.386719 222.652344 C 259.808594 221.15625 260.1875 219.648438 260.527344 218.128906 C 260.867188 216.609375 261.164062 215.085938 261.425781 213.550781 C 261.683594 212.015625 261.902344 210.476562 262.082031 208.933594 C 262.257812 207.386719 262.394531 205.839844 262.492188 204.285156 C 262.589844 202.734375 262.644531 201.179688 262.660156 199.625 C 262.675781 198.070312 262.648438 196.515625 262.582031 194.960938 C 262.515625 193.40625 262.40625 191.855469 262.257812 190.304688 C 262.109375 188.757812 261.917969 187.214844 261.6875 185.675781 C 261.457031 184.136719 261.1875 182.605469 260.875 181.082031 C 260.566406 179.558594 260.214844 178.042969 259.824219 176.539062 C 259.433594 175.03125 259.003906 173.539062 258.535156 172.054688 C 258.0625 170.570312 257.554688 169.101562 257.007812 167.644531 C 256.460938 166.191406 255.878906 164.75 255.253906 163.324219 C 254.632812 161.898438 253.972656 160.492188 253.273438 159.101562 C 252.578125 157.710938 251.84375 156.339844 251.074219 154.984375 C 250.304688 153.632812 249.5 152.304688 248.664062 150.992188 C 247.824219 149.683594 246.949219 148.398438 246.042969 147.132812 C 245.136719 145.871094 244.195312 144.632812 243.222656 143.417969 C 242.25 142.203125 241.246094 141.015625 240.210938 139.855469 C 239.175781 138.695312 238.113281 137.558594 237.015625 136.457031 C 235.921875 135.351562 234.800781 134.273438 233.648438 133.230469 C 232.496094 132.183594 231.320312 131.167969 230.113281 130.183594 C 228.910156 129.199219 227.679688 128.25 226.425781 127.328125 C 225.167969 126.410156 223.890625 125.527344 222.589844 124.671875 C 221.289062 123.820312 219.964844 123.003906 218.621094 122.222656 C 217.277344 121.441406 215.910156 120.695312 214.527344 119.984375 C 213.144531 119.273438 211.742188 118.601562 210.324219 117.964844 C 208.902344 117.328125 207.46875 116.730469 206.015625 116.171875 C 204.566406 115.609375 203.101562 115.085938 201.621094 114.605469 C 200.144531 114.121094 198.652344 113.675781 197.152344 113.269531 C 195.652344 112.867188 194.140625 112.5 192.617188 112.175781 C 191.097656 111.851562 189.566406 111.566406 188.03125 111.320312 C 186.496094 111.074219 184.953125 110.871094 183.40625 110.707031 C 181.859375 110.542969 180.3125 110.421875 178.757812 110.339844 C 177.203125 110.257812 175.648438 110.21875 174.09375 110.21875 C 172.539062 110.21875 170.984375 110.257812 169.429688 110.339844 C 167.878906 110.421875 166.328125 110.542969 164.78125 110.707031 C 163.234375 110.871094 161.691406 111.074219 160.15625 111.320312 C 158.621094 111.566406 157.089844 111.851562 155.570312 112.175781 C 154.050781 112.5 152.539062 112.867188 151.035156 113.269531 C 149.535156 113.675781 148.042969 114.121094 146.566406 114.605469 C 145.085938 115.085938 143.621094 115.609375 142.171875 116.171875 C 140.71875 116.730469 139.285156 117.328125 137.867188 117.964844 C 136.445312 118.601562 135.042969 119.273438 133.660156 119.984375 C 132.277344 120.695312 130.914062 121.441406 129.566406 122.222656 C 128.222656 123.003906 126.898438 123.820312 125.597656 124.671875 C 124.296875 125.527344 123.019531 126.410156 121.761719 127.328125 C 120.507812 128.25 119.277344 129.199219 118.074219 130.183594 C 116.867188 131.167969 115.691406 132.183594 114.539062 133.230469 C 113.386719 134.273438 112.265625 135.351562 111.171875 136.457031 C 110.074219 137.558594 109.011719 138.695312 107.976562 139.855469 C 106.941406 141.015625 105.9375 142.203125 104.964844 143.417969 C 103.992188 144.632812 103.050781 145.871094 102.144531 147.132812 C 101.238281 148.398438 100.363281 149.683594 99.527344 150.992188 C 98.6875 152.304688 97.882812 153.632812 97.113281 154.984375 C 96.34375 156.339844 95.609375 157.710938 94.914062 159.101562 C 94.214844 160.492188 93.554688 161.898438 92.933594 163.324219 C 92.3125 164.75 91.726562 166.191406 91.179688 167.644531 C 90.632812 169.101562 90.125 170.570312 89.65625 172.054688 C 89.183594 173.539062 88.753906 175.03125 88.363281 176.539062 C 87.972656 178.042969 87.621094 179.558594 87.3125 181.082031 C 87 182.605469 86.730469 184.136719 86.5 185.675781 C 86.269531 187.214844 86.082031 188.757812 85.929688 190.304688 C 85.78125 191.855469 85.675781 193.40625 85.605469 194.960938 C 85.539062 196.515625 85.511719 198.070312 85.527344 199.625 C 85.542969 201.179688 85.597656 202.734375 85.695312 204.285156 C 85.792969 205.839844 85.929688 207.386719 86.105469 208.933594 C 86.285156 210.476562 86.503906 212.015625 86.761719 213.550781 C 87.023438 215.085938 87.320312 216.609375 87.660156 218.128906 C 88 219.648438 88.382812 221.15625 88.800781 222.652344 C 89.21875 224.148438 89.675781 225.636719 90.175781 227.109375 C 90.671875 228.582031 91.207031 230.042969 91.78125 231.488281 C 92.355469 232.933594 92.96875 234.363281 93.617188 235.777344 C 94.269531 237.191406 94.953125 238.585938 95.675781 239.964844 C 96.402344 241.339844 97.160156 242.699219 97.953125 244.035156 C 98.75 245.371094 99.578125 246.6875 100.441406 247.980469 C 101.304688 249.273438 102.203125 250.542969 103.132812 251.789062 C 104.066406 253.035156 105.027344 254.257812 106.023438 255.453125 C 107.019531 256.648438 108.042969 257.816406 109.101562 258.957031 C 110.15625 260.101562 111.246094 261.210938 112.359375 262.296875 C 113.476562 263.382812 114.617188 264.433594 115.789062 265.460938 C 116.960938 266.484375 118.15625 267.476562 119.378906 268.4375 C 120.601562 269.398438 121.851562 270.324219 123.125 271.21875 C 117.914062 273.375 112.863281 275.855469 107.972656 278.660156 C 103.082031 281.46875 98.390625 284.574219 93.898438 287.980469 C 89.40625 291.390625 85.152344 295.070312 81.132812 299.023438 C 77.113281 302.980469 73.367188 307.175781 69.886719 311.613281 C 67.753906 309.136719 65.714844 306.585938 63.765625 303.960938 C 61.8125 301.339844 59.960938 298.652344 58.203125 295.894531 C 56.445312 293.140625 54.785156 290.328125 53.230469 287.453125 C 51.671875 284.582031 50.21875 281.65625 48.871094 278.679688 C 47.519531 275.703125 46.28125 272.679688 45.148438 269.617188 C 44.011719 266.550781 42.992188 263.449219 42.078125 260.3125 C 41.167969 257.171875 40.367188 254.007812 39.679688 250.8125 C 38.996094 247.617188 38.421875 244.398438 37.964844 241.164062 C 37.511719 237.929688 37.167969 234.679688 36.945312 231.417969 C 36.71875 228.160156 36.609375 224.894531 36.617188 221.625 C 36.625 218.359375 36.75 215.09375 36.988281 211.835938 C 37.230469 208.578125 37.585938 205.328125 38.058594 202.097656 C 38.53125 198.863281 39.117188 195.648438 39.816406 192.457031 C 40.519531 189.265625 41.332031 186.101562 42.261719 182.96875 C 43.1875 179.835938 44.222656 176.738281 45.371094 173.679688 C 46.519531 170.617188 47.773438 167.601562 49.136719 164.632812 C 50.5 161.660156 51.964844 158.742188 53.539062 155.878906 C 55.109375 153.011719 56.777344 150.207031 58.550781 147.460938 C 60.320312 144.710938 62.1875 142.03125 64.148438 139.417969 C 66.113281 136.804688 68.164062 134.265625 70.308594 131.796875 C 72.453125 129.332031 74.679688 126.945312 76.992188 124.636719 C 79.308594 122.328125 81.699219 120.105469 84.171875 117.96875 C 86.644531 115.828125 89.191406 113.78125 91.808594 111.828125 C 94.425781 109.871094 97.109375 108.011719 99.863281 106.246094 C 102.613281 104.480469 105.421875 102.816406 108.292969 101.253906 C 111.160156 99.691406 114.082031 98.230469 117.058594 96.875 C 120.03125 95.519531 123.046875 94.269531 126.109375 93.128906 C 129.175781 91.988281 132.273438 90.960938 135.410156 90.039062 C 138.546875 89.121094 141.710938 88.316406 144.902344 87.621094 C 148.097656 86.925781 151.3125 86.347656 154.546875 85.882812 C 157.78125 85.421875 161.027344 85.070312 164.289062 84.839844 C 167.546875 84.605469 170.8125 84.488281 174.082031 84.488281 Z M 191.761719 618.042969 C 203.410156 605.367188 216.140625 593.894531 229.957031 583.621094 C 243.769531 573.351562 258.421875 564.460938 273.914062 556.953125 C 285.769531 620.113281 305.703125 669 330.789062 698.878906 C 324.152344 697.363281 317.582031 695.601562 311.082031 693.589844 C 304.578125 691.578125 298.160156 689.324219 291.828125 686.824219 C 285.496094 684.328125 279.269531 681.597656 273.140625 678.628906 C 267.015625 675.664062 261.011719 672.46875 255.128906 669.050781 C 249.242188 665.628906 243.496094 661.992188 237.886719 658.136719 C 232.277344 654.28125 226.820312 650.222656 221.515625 645.957031 C 216.210938 641.6875 211.078125 637.230469 206.113281 632.574219 C 201.144531 627.921875 196.363281 623.085938 191.761719 618.070312 Z M 451.976562 698.828125 C 459.613281 689.148438 466.414062 678.914062 472.382812 668.125 C 478.351562 657.335938 483.40625 646.136719 487.546875 634.523438 C 488.707031 637.160156 489.957031 639.636719 491.25 642.152344 C 491.933594 643.46875 492.566406 644.785156 493.316406 646.105469 C 495.042969 649.253906 496.886719 652.324219 498.8125 655.324219 C 499.21875 655.957031 499.574219 656.644531 499.996094 657.261719 C 502.359375 660.847656 504.867188 664.359375 507.519531 667.800781 C 508.363281 668.882812 509.269531 669.898438 510.152344 670.964844 C 511.589844 672.703125 512.972656 674.480469 514.476562 676.234375 C 494.574219 686.355469 473.742188 693.894531 451.976562 698.855469 Z M 552.101562 675.402344 C 554.546875 672.125 557.179688 669 559.992188 666.03125 C 562.804688 663.058594 565.777344 660.261719 568.914062 657.636719 C 572.050781 655.011719 575.332031 652.578125 578.753906 650.332031 C 582.171875 648.089844 585.710938 646.050781 589.371094 644.21875 C 593.027344 642.386719 596.78125 640.773438 600.625 639.378906 C 604.472656 637.980469 608.382812 636.8125 612.367188 635.875 C 616.347656 634.933594 620.371094 634.226562 624.433594 633.753906 C 628.496094 633.28125 632.574219 633.046875 636.664062 633.046875 L 637.414062 633.046875 C 640.882812 633.054688 644.34375 633.226562 647.792969 633.570312 C 651.246094 633.914062 654.671875 634.425781 658.074219 635.105469 C 661.472656 635.785156 664.832031 636.628906 668.152344 637.636719 C 671.46875 638.648438 674.730469 639.816406 677.933594 641.144531 C 681.136719 642.472656 684.269531 643.953125 687.328125 645.585938 C 690.386719 647.222656 693.359375 649.003906 696.242188 650.929688 C 699.125 652.855469 701.910156 654.914062 704.59375 657.113281 C 707.273438 659.3125 709.84375 661.636719 712.296875 664.085938 C 715.753906 667.636719 718.96875 671.398438 721.941406 675.363281 C 720.445312 676.550781 718.925781 677.703125 717.382812 678.828125 C 715.839844 679.949219 714.269531 681.039062 712.683594 682.097656 C 711.09375 683.152344 709.480469 684.175781 707.847656 685.167969 C 706.214844 686.15625 704.5625 687.109375 702.890625 688.03125 C 701.21875 688.949219 699.527344 689.835938 697.816406 690.683594 C 696.109375 691.535156 694.382812 692.347656 692.636719 693.125 C 690.894531 693.902344 689.136719 694.640625 687.359375 695.34375 C 685.585938 696.046875 683.796875 696.710938 681.996094 697.339844 C 680.191406 697.96875 678.375 698.558594 676.550781 699.109375 C 674.722656 699.664062 672.882812 700.175781 671.035156 700.652344 C 669.1875 701.125 667.328125 701.5625 665.460938 701.960938 C 663.59375 702.355469 661.71875 702.714844 659.835938 703.03125 C 657.953125 703.351562 656.066406 703.628906 654.171875 703.871094 C 652.277344 704.109375 650.382812 704.308594 648.480469 704.46875 C 646.578125 704.628906 644.671875 704.75 642.765625 704.828125 C 640.855469 704.910156 638.949219 704.949219 637.039062 704.949219 C 635.132812 704.949219 633.222656 704.910156 631.316406 704.828125 C 629.410156 704.75 627.503906 704.628906 625.601562 704.46875 C 623.699219 704.308594 621.800781 704.109375 619.90625 703.871094 C 618.015625 703.628906 616.125 703.351562 614.242188 703.03125 C 612.363281 702.714844 610.488281 702.355469 608.621094 701.960938 C 606.753906 701.5625 604.894531 701.125 603.046875 700.652344 C 601.195312 700.175781 599.359375 699.664062 597.53125 699.109375 C 595.703125 698.558594 593.890625 697.96875 592.085938 697.339844 C 590.285156 696.710938 588.496094 696.046875 586.71875 695.34375 C 584.945312 694.640625 583.1875 693.902344 581.441406 693.125 C 579.699219 692.347656 577.972656 691.535156 576.261719 690.683594 C 574.554688 689.835938 572.863281 688.949219 571.191406 688.03125 C 569.515625 687.109375 567.863281 686.15625 566.230469 685.167969 C 564.601562 684.175781 562.988281 683.152344 561.398438 682.097656 C 559.808594 681.039062 558.242188 679.949219 556.699219 678.828125 C 555.15625 677.703125 553.636719 676.550781 552.140625 675.363281 Z M 640.183594 606.621094 C 638.148438 606.726562 636.113281 606.734375 634.078125 606.640625 C 632.042969 606.542969 630.015625 606.351562 628 606.058594 C 625.984375 605.765625 623.984375 605.371094 622.007812 604.882812 C 620.027344 604.394531 618.078125 603.808594 616.160156 603.125 C 614.238281 602.445312 612.355469 601.671875 610.511719 600.804688 C 608.667969 599.941406 606.871094 598.984375 605.121094 597.941406 C 603.371094 596.898438 601.675781 595.773438 600.035156 594.5625 C 598.394531 593.355469 596.816406 592.066406 595.304688 590.703125 C 593.789062 589.335938 592.347656 587.902344 590.976562 586.394531 C 589.601562 584.890625 588.308594 583.320312 587.089844 581.6875 C 585.871094 580.050781 584.738281 578.363281 583.683594 576.617188 C 582.632812 574.871094 581.667969 573.082031 580.792969 571.242188 C 579.917969 569.402344 579.132812 567.523438 578.445312 565.605469 C 577.753906 563.6875 577.15625 561.742188 576.65625 559.765625 C 576.15625 557.792969 575.753906 555.796875 575.453125 553.78125 C 575.148438 551.765625 574.945312 549.742188 574.839844 547.707031 C 574.734375 545.671875 574.730469 543.636719 574.828125 541.601562 C 574.925781 539.566406 575.121094 537.542969 575.414062 535.527344 C 575.710938 533.511719 576.105469 531.515625 576.59375 529.539062 C 577.085938 527.5625 577.671875 525.613281 578.355469 523.695312 C 579.035156 521.773438 579.8125 519.894531 580.679688 518.050781 C 581.546875 516.207031 582.5 514.410156 583.542969 512.660156 C 584.585938 510.910156 585.710938 509.21875 586.921875 507.578125 C 588.132812 505.9375 589.417969 504.363281 590.78125 502.851562 C 592.144531 501.335938 593.582031 499.894531 595.085938 498.523438 C 596.59375 497.152344 598.160156 495.855469 599.792969 494.636719 C 601.425781 493.417969 603.113281 492.285156 604.859375 491.230469 C 606.601562 490.179688 608.394531 489.214844 610.234375 488.339844 C 612.070312 487.460938 613.949219 486.675781 615.863281 485.984375 C 617.78125 485.292969 619.726562 484.695312 621.699219 484.195312 C 623.671875 483.691406 625.667969 483.289062 627.679688 482.980469 C 629.695312 482.675781 631.71875 482.46875 633.753906 482.363281 C 634.859375 482.363281 635.953125 482.269531 637.035156 482.269531 C 639.035156 482.277344 641.027344 482.382812 643.019531 482.582031 C 645.007812 482.78125 646.984375 483.078125 648.945312 483.464844 C 650.910156 483.855469 652.847656 484.339844 654.761719 484.917969 C 656.675781 485.496094 658.558594 486.164062 660.410156 486.921875 C 662.261719 487.679688 664.070312 488.527344 665.839844 489.460938 C 667.609375 490.394531 669.328125 491.410156 671 492.507812 C 672.671875 493.609375 674.285156 494.785156 675.84375 496.039062 C 677.398438 497.296875 678.894531 498.621094 680.324219 500.019531 C 681.753906 501.421875 683.109375 502.886719 684.398438 504.414062 C 685.6875 505.945312 686.898438 507.535156 688.035156 509.179688 C 689.167969 510.828125 690.222656 512.523438 691.195312 514.273438 C 692.164062 516.019531 693.050781 517.8125 693.847656 519.644531 C 694.648438 521.480469 695.355469 523.347656 695.976562 525.25 C 696.59375 527.152344 697.117188 529.078125 697.550781 531.03125 C 697.984375 532.984375 698.320312 534.953125 698.566406 536.9375 C 698.808594 538.925781 698.953125 540.917969 699.003906 542.917969 C 699.054688 544.914062 699.007812 546.914062 698.867188 548.910156 C 698.726562 550.902344 698.488281 552.886719 698.15625 554.859375 C 697.820312 556.832031 697.394531 558.78125 696.871094 560.714844 C 696.351562 562.644531 695.738281 564.546875 695.035156 566.417969 C 694.328125 568.289062 693.535156 570.125 692.652344 571.917969 C 691.773438 573.714844 690.804688 575.460938 689.753906 577.164062 C 688.707031 578.867188 687.574219 580.515625 686.367188 582.109375 C 685.15625 583.703125 683.875 585.234375 682.515625 586.703125 C 681.160156 588.171875 679.734375 589.574219 678.242188 590.90625 C 676.753906 592.238281 675.199219 593.492188 673.585938 594.675781 C 671.972656 595.859375 670.308594 596.960938 668.585938 597.984375 C 666.867188 599.003906 665.101562 599.941406 663.292969 600.792969 C 661.484375 601.644531 659.636719 602.40625 657.753906 603.078125 C 655.871094 603.753906 653.960938 604.335938 652.019531 604.824219 C 650.082031 605.3125 648.121094 605.707031 646.144531 606.007812 C 644.167969 606.308594 642.179688 606.511719 640.183594 606.621094 Z M 741.042969 657.039062 C 737.886719 653.019531 734.523438 649.183594 730.953125 645.523438 C 724.789062 639.378906 718.089844 633.886719 710.851562 629.046875 C 703.613281 624.210938 695.976562 620.121094 687.9375 616.777344 C 689.210938 615.882812 690.460938 614.953125 691.6875 613.992188 C 692.910156 613.03125 694.109375 612.039062 695.28125 611.015625 C 696.453125 609.992188 697.597656 608.9375 698.714844 607.851562 C 699.832031 606.765625 700.917969 605.652344 701.976562 604.511719 C 703.03125 603.367188 704.058594 602.199219 705.054688 601.003906 C 706.050781 599.808594 707.015625 598.585938 707.949219 597.339844 C 708.878906 596.089844 709.777344 594.820312 710.644531 593.527344 C 711.507812 592.230469 712.339844 590.914062 713.132812 589.578125 C 713.929688 588.238281 714.6875 586.878906 715.414062 585.503906 C 716.136719 584.125 716.824219 582.726562 717.472656 581.3125 C 718.125 579.898438 718.734375 578.46875 719.3125 577.019531 C 719.886719 575.574219 720.421875 574.113281 720.917969 572.636719 C 721.417969 571.164062 721.875 569.675781 722.296875 568.175781 C 722.714844 566.679688 723.09375 565.167969 723.433594 563.648438 C 723.773438 562.128906 724.074219 560.601562 724.332031 559.066406 C 724.589844 557.535156 724.808594 555.992188 724.988281 554.445312 C 725.167969 552.898438 725.304688 551.347656 725.398438 549.796875 C 725.496094 548.242188 725.550781 546.6875 725.566406 545.128906 C 725.578125 543.574219 725.554688 542.015625 725.484375 540.460938 C 725.417969 538.90625 725.308594 537.355469 725.160156 535.804688 C 725.007812 534.253906 724.820312 532.710938 724.589844 531.171875 C 724.355469 529.632812 724.085938 528.097656 723.773438 526.574219 C 723.460938 525.050781 723.109375 523.53125 722.71875 522.027344 C 722.328125 520.519531 721.894531 519.023438 721.425781 517.539062 C 720.953125 516.054688 720.445312 514.585938 719.898438 513.128906 C 719.347656 511.671875 718.761719 510.230469 718.140625 508.804688 C 717.515625 507.378906 716.855469 505.96875 716.15625 504.578125 C 715.457031 503.1875 714.722656 501.816406 713.953125 500.460938 C 713.179688 499.109375 712.375 497.777344 711.535156 496.46875 C 710.695312 495.15625 709.820312 493.871094 708.910156 492.605469 C 708 491.34375 707.058594 490.105469 706.085938 488.890625 C 705.113281 487.675781 704.105469 486.488281 703.070312 485.324219 C 702.035156 484.164062 700.964844 483.03125 699.871094 481.925781 C 698.773438 480.820312 697.648438 479.746094 696.496094 478.699219 C 695.34375 477.652344 694.164062 476.640625 692.957031 475.65625 C 691.75 474.671875 690.519531 473.722656 689.261719 472.800781 C 688.003906 471.882812 686.722656 471 685.421875 470.148438 C 684.117188 469.296875 682.792969 468.480469 681.445312 467.699219 C 680.097656 466.917969 678.734375 466.171875 677.347656 465.460938 C 675.960938 464.753906 674.558594 464.082031 673.136719 463.445312 C 671.714844 462.808594 670.277344 462.214844 668.828125 461.652344 C 667.375 461.09375 665.90625 460.574219 664.425781 460.089844 C 662.945312 459.609375 661.457031 459.164062 659.953125 458.761719 C 658.449219 458.359375 656.933594 457.996094 655.414062 457.671875 C 653.890625 457.347656 652.359375 457.0625 650.820312 456.820312 C 649.285156 456.578125 647.742188 456.375 646.191406 456.214844 C 644.644531 456.050781 643.09375 455.929688 641.539062 455.851562 C 639.984375 455.769531 638.429688 455.730469 636.871094 455.734375 C 635.316406 455.734375 633.757812 455.777344 632.203125 455.863281 C 630.648438 455.945312 629.097656 456.070312 627.550781 456.238281 C 626.003906 456.402344 624.460938 456.609375 622.921875 456.855469 C 621.386719 457.105469 619.855469 457.390625 618.335938 457.71875 C 616.8125 458.046875 615.300781 458.414062 613.800781 458.820312 C 612.296875 459.230469 610.804688 459.675781 609.328125 460.164062 C 607.847656 460.648438 606.382812 461.171875 604.933594 461.734375 C 603.480469 462.300781 602.046875 462.902344 600.625 463.539062 C 599.207031 464.179688 597.804688 464.855469 596.421875 465.566406 C 595.035156 466.28125 593.671875 467.03125 592.328125 467.8125 C 590.984375 468.597656 589.660156 469.417969 588.359375 470.273438 C 587.058594 471.128906 585.78125 472.015625 584.527344 472.9375 C 583.269531 473.859375 582.042969 474.8125 580.839844 475.800781 C 579.632812 476.789062 578.457031 477.804688 577.304688 478.855469 C 576.15625 479.902344 575.035156 480.980469 573.941406 482.089844 C 572.847656 483.199219 571.785156 484.332031 570.75 485.496094 C 569.714844 486.660156 568.714844 487.851562 567.742188 489.070312 C 566.773438 490.285156 565.832031 491.527344 564.929688 492.792969 C 564.023438 494.058594 563.152344 495.347656 562.3125 496.660156 C 561.476562 497.972656 560.675781 499.308594 559.90625 500.660156 C 559.140625 502.015625 558.410156 503.390625 557.714844 504.78125 C 557.019531 506.175781 556.363281 507.585938 555.742188 509.015625 C 555.121094 510.441406 554.539062 511.886719 553.992188 513.34375 C 553.449219 514.800781 552.945312 516.273438 552.476562 517.757812 C 552.011719 519.246094 551.582031 520.742188 551.195312 522.25 C 550.808594 523.757812 550.460938 525.273438 550.152344 526.800781 C 549.84375 528.324219 549.578125 529.859375 549.351562 531.398438 C 549.125 532.9375 548.9375 534.484375 548.792969 536.035156 C 548.644531 537.582031 548.539062 539.136719 548.476562 540.691406 C 548.414062 542.246094 548.390625 543.800781 548.410156 545.359375 C 548.425781 546.914062 548.488281 548.472656 548.585938 550.023438 C 548.6875 551.578125 548.828125 553.128906 549.011719 554.675781 C 549.191406 556.21875 549.414062 557.761719 549.679688 559.292969 C 549.941406 560.828125 550.246094 562.355469 550.589844 563.875 C 550.933594 565.390625 551.316406 566.898438 551.738281 568.398438 C 552.164062 569.894531 552.625 571.382812 553.125 572.855469 C 553.628906 574.328125 554.167969 575.789062 554.746094 577.234375 C 555.324219 578.679688 555.941406 580.109375 556.59375 581.519531 C 557.25 582.933594 557.9375 584.328125 558.667969 585.703125 C 559.394531 587.082031 560.15625 588.4375 560.957031 589.773438 C 561.753906 591.109375 562.589844 592.425781 563.457031 593.714844 C 564.324219 595.007812 565.226562 596.277344 566.160156 597.523438 C 567.097656 598.765625 568.0625 599.984375 569.0625 601.179688 C 570.0625 602.371094 571.09375 603.539062 572.152344 604.679688 C 573.214844 605.816406 574.304688 606.929688 575.421875 608.011719 C 576.542969 609.09375 577.691406 610.144531 578.863281 611.164062 C 580.039062 612.1875 581.238281 613.175781 582.46875 614.136719 C 583.695312 615.09375 584.945312 616.019531 586.222656 616.910156 C 581.023438 619.070312 575.976562 621.546875 571.089844 624.339844 C 566.203125 627.132812 561.511719 630.222656 557.011719 633.609375 C 552.511719 636.992188 548.246094 640.648438 544.207031 644.570312 C 540.167969 648.492188 536.394531 652.652344 532.878906 657.050781 C 528.664062 652.191406 524.8125 647.058594 521.324219 641.65625 C 517.832031 636.25 514.742188 630.625 512.046875 624.785156 C 509.351562 618.941406 507.082031 612.941406 505.234375 606.777344 C 503.390625 600.617188 501.984375 594.355469 501.023438 587.992188 C 499.957031 581.179688 499.445312 574.324219 499.484375 567.429688 C 499.453125 557.339844 500.527344 547.371094 502.710938 537.523438 C 505.445312 525.457031 509.695312 513.953125 515.460938 503.007812 C 518.660156 497.003906 522.285156 491.269531 526.332031 485.800781 C 530.378906 480.335938 534.808594 475.199219 539.621094 470.386719 C 544.429688 465.578125 549.570312 461.152344 555.035156 457.105469 C 560.503906 453.058594 566.238281 449.433594 572.242188 446.238281 C 576.617188 443.929688 581.105469 441.871094 585.707031 440.058594 C 587.617188 439.296875 589.566406 438.636719 591.503906 437.964844 C 594.140625 437.058594 596.773438 436.226562 599.410156 435.476562 C 602.042969 434.726562 604.414062 434.160156 606.945312 433.527344 C 609.011719 433.066406 611.09375 432.734375 613.175781 432.367188 C 618.089844 431.507812 623.03125 430.910156 628.007812 430.574219 C 630.234375 430.429688 632.449219 430.207031 634.6875 430.167969 C 636.929688 430.128906 639.3125 430.246094 641.632812 430.3125 C 644.871094 430.429688 648.101562 430.601562 651.300781 430.945312 C 653.183594 431.128906 655.070312 431.324219 656.941406 431.589844 C 662.023438 432.320312 667.046875 433.34375 672.011719 434.660156 C 674.816406 435.394531 677.59375 436.21875 680.34375 437.128906 C 683.09375 438.039062 685.816406 439.035156 688.503906 440.121094 C 691.191406 441.203125 693.839844 442.371094 696.457031 443.621094 C 699.070312 444.875 701.640625 446.207031 704.171875 447.621094 C 706.703125 449.035156 709.183594 450.527344 711.617188 452.097656 C 714.054688 453.671875 716.4375 455.316406 718.769531 457.039062 C 721.097656 458.761719 723.371094 460.558594 725.589844 462.425781 C 727.804688 464.292969 729.960938 466.226562 732.058594 468.230469 C 734.152344 470.234375 736.179688 472.300781 738.144531 474.433594 C 740.105469 476.5625 742 478.757812 743.824219 481.007812 C 745.648438 483.257812 747.402344 485.566406 749.078125 487.929688 C 750.757812 490.292969 752.359375 492.707031 753.886719 495.171875 C 755.410156 497.636719 756.855469 500.144531 758.222656 502.699219 C 759.589844 505.257812 760.875 507.851562 762.074219 510.492188 C 763.277344 513.128906 764.394531 515.800781 765.425781 518.507812 C 766.460938 521.21875 767.40625 523.953125 768.265625 526.722656 C 769.125 529.492188 769.894531 532.285156 770.574219 535.101562 C 771.257812 537.917969 771.851562 540.753906 772.351562 543.605469 C 772.855469 546.460938 773.265625 549.328125 773.585938 552.210938 C 773.90625 555.089844 774.136719 557.976562 774.273438 560.871094 C 774.414062 563.765625 774.457031 566.664062 774.414062 569.5625 C 774.367188 572.460938 774.230469 575.351562 774 578.242188 C 773.769531 581.132812 773.449219 584.011719 773.039062 586.878906 C 772.628906 589.746094 772.125 592.601562 771.535156 595.4375 C 770.941406 598.273438 770.261719 601.089844 769.488281 603.882812 C 768.71875 606.679688 767.859375 609.445312 766.914062 612.183594 C 765.96875 614.921875 764.9375 617.628906 763.820312 620.304688 C 762.703125 622.980469 761.5 625.613281 760.214844 628.214844 C 758.929688 630.8125 757.566406 633.367188 756.121094 635.878906 C 754.671875 638.386719 753.148438 640.851562 751.546875 643.265625 C 749.945312 645.683594 748.265625 648.042969 746.515625 650.351562 C 744.761719 652.660156 742.9375 654.910156 741.042969 657.105469 Z M 741.042969 657.039062 "/></g></svg>