<svg xmlns="http://www.w3.org/2000/svg" xmlns:xlink="http://www.w3.org/1999/xlink" width="1080" zoomAndPan="magnify" viewBox="0 0 810 809.999993" height="1080" preserveAspectRatio="xMidYMid meet" version="1.2"><g id="34827c1d96"><path style=" stroke:none;fill-rule:nonzero;fill:#ffffff;fill-opacity:1;" d="M 753.476562 716.023438 L 753.648438 716.023438 Z M 152.738281 49.136719 C 145.140625 49.136719 137.953125 52.578125 130.148438 59.417969 C 129.292969 60.226562 118.125 70.824219 110.859375 77.738281 L 104.511719 83.734375 C 67.457031 118.382812 50.65625 180.742188 61.714844 242.640625 C 65.265625 262.628906 71.007812 283.347656 78.78125 304.191406 C 117.949219 409.382812 192.300781 500.835938 247.792969 559.054688 C 303.03125 617.65625 390.390625 696.796875 493.3125 741.535156 C 513.730469 750.402344 534.097656 757.253906 553.863281 761.886719 C 615.082031 776.226562 678.265625 762.789062 714.816406 727.652344 L 720.90625 721.863281 C 727.984375 715.183594 739.023438 704.730469 740.625 703.191406 C 763.390625 679.777344 752.015625 660.3125 706.359375 613.878906 L 694.9375 602.15625 C 666.019531 572.140625 617.492188 521.886719 576.46875 526.789062 C 565.316406 528.105469 553.671875 536.242188 541.347656 544.839844 C 529.117188 553.375 516.472656 562.195312 501.308594 567.003906 C 460.585938 579.914062 419.292969 571.429688 384.980469 543.160156 C 364.46875 526.25 343.59375 506.46875 324.636719 486.003906 C 305.457031 466.238281 286.832031 444.347656 271.066406 422.976562 C 244.683594 387.222656 238.433594 345.53125 253.488281 305.554688 C 259.101562 290.660156 268.589844 278.507812 277.773438 266.753906 C 287.023438 254.902344 295.765625 243.71875 297.667969 232.648438 C 304.726562 191.84375 257.167969 140.8125 228.742188 110.308594 L 217.667969 98.28125 C 187.542969 65.332031 169.21875 49.136719 152.738281 49.136719 Z M 603.261719 803.828125 C 582.800781 803.828125 563.128906 801.339844 545.582031 797.230469 C 523.707031 792.121094 501.246094 784.570312 478.828125 774.832031 C 370.257812 727.652344 278.933594 645.035156 221.445312 584.039062 C 163.667969 523.441406 86.0625 427.816406 44.753906 316.867188 C 36.21875 293.976562 29.90625 271.148438 25.957031 249.019531 C 15.488281 190.371094 24.101562 109.179688 79.71875 57.226562 L 85.859375 51.390625 C 93.597656 44.042969 105.640625 32.605469 106.132812 32.179688 C 161.765625 -16.664062 211.542969 37.761719 244.460938 73.789062 L 255.3125 85.558594 C 288.324219 120.984375 343.578125 180.28125 333.457031 238.832031 C 329.980469 258.867188 317.449219 274.9375 306.394531 289.105469 C 298.539062 299.148438 291.117188 308.648438 287.46875 318.359375 C 276.742188 346.816406 281.1875 375.546875 300.285156 401.417969 C 315.101562 421.488281 332.632812 442.09375 350.984375 461.019531 C 369.148438 480.625 388.804688 499.234375 408.078125 515.144531 C 432.90625 535.609375 461.347656 541.558594 490.347656 532.40625 C 500.230469 529.246094 510.097656 522.363281 520.550781 515.066406 C 535.304688 504.785156 551.992188 493.109375 572.203125 490.730469 C 631.390625 483.75 687.484375 542.097656 721.082031 576.964844 L 732.265625 588.417969 C 766.46875 623.222656 818.167969 675.828125 766.46875 728.714844 C 765.660156 729.492188 753.523438 741.011719 745.859375 748.242188 L 739.960938 753.84375 C 701.710938 790.617188 650.457031 803.828125 603.261719 803.828125 "/></g></svg>