<svg xmlns="http://www.w3.org/2000/svg" xmlns:xlink="http://www.w3.org/1999/xlink" width="1080" zoomAndPan="magnify" viewBox="0 0 810 809.999993" height="1080" preserveAspectRatio="xMidYMid meet" version="1.2"><defs><clipPath id="21e4248522"><path d="M 13.308594 58.230469 L 797 58.230469 L 797 728.730469 L 13.308594 728.730469 Z M 13.308594 58.230469 "/></clipPath></defs><g id="f7744b4943"><g clip-rule="nonzero" clip-path="url(#21e4248522)"><path style=" stroke:none;fill-rule:nonzero;fill:#ffffff;fill-opacity:1;" d="M 43.734375 274.953125 L 143.273438 212 L 143.273438 131.648438 C 143.273438 123.859375 149.59375 117.542969 157.386719 117.542969 L 292.632812 117.542969 L 370.015625 68.605469 C 380.886719 61.730469 392.859375 58.285156 404.847656 58.285156 C 416.839844 58.285156 428.816406 61.730469 439.6875 68.605469 L 517.066406 117.542969 L 652.308594 117.542969 C 660.101562 117.542969 666.421875 123.859375 666.421875 131.648438 L 666.421875 212 L 765.964844 274.953125 L 766.195312 275.097656 L 766.417969 275.238281 L 766.425781 275.246094 L 766.65625 275.398438 L 766.863281 275.53125 L 766.886719 275.546875 L 767.117188 275.695312 L 767.3125 275.828125 L 767.34375 275.847656 L 767.757812 276.125 L 767.800781 276.152344 L 768.027344 276.304688 L 768.199219 276.421875 L 768.25 276.460938 L 768.476562 276.613281 L 768.636719 276.726562 L 768.703125 276.773438 L 768.921875 276.925781 L 769.070312 277.03125 L 769.144531 277.085938 L 769.367188 277.242188 L 769.5 277.335938 L 769.585938 277.402344 L 769.804688 277.558594 L 769.929688 277.648438 L 770.023438 277.71875 L 770.238281 277.875 L 770.355469 277.964844 L 770.457031 278.039062 L 770.671875 278.203125 L 770.777344 278.28125 L 770.886719 278.363281 L 771.527344 278.851562 L 771.613281 278.921875 L 771.742188 279.019531 L 772.371094 279.519531 L 772.433594 279.570312 C 773.105469 280.113281 773.765625 280.660156 774.410156 281.226562 L 774.433594 281.246094 C 775.082031 281.8125 775.722656 282.394531 776.351562 282.980469 L 776.367188 282.996094 C 776.816406 283.417969 777.253906 283.839844 777.683594 284.277344 L 777.824219 284.417969 L 777.871094 284.460938 L 778.050781 284.648438 L 778.1875 284.777344 L 778.234375 284.832031 L 778.417969 285.019531 L 778.542969 285.148438 L 778.597656 285.203125 L 778.777344 285.394531 L 778.898438 285.515625 L 778.960938 285.582031 L 779.136719 285.773438 L 779.246094 285.886719 L 779.316406 285.96875 L 779.503906 286.164062 C 783 289.945312 785.988281 294.085938 788.441406 298.539062 C 793.640625 307.976562 796.386719 318.675781 796.386719 330.085938 L 796.386719 663.421875 C 796.386719 681.402344 789.058594 697.722656 777.242188 709.535156 C 767 719.777344 753.375 726.648438 738.21875 728.292969 L 738.109375 728.308594 L 737.640625 728.355469 L 737.105469 728.40625 L 736.960938 728.421875 L 736.570312 728.453125 L 736.140625 728.488281 L 736.027344 728.496094 L 735.488281 728.535156 L 735.3125 728.546875 L 734.945312 728.570312 L 734.480469 728.597656 L 734.402344 728.597656 L 733.859375 728.625 L 733.644531 728.632812 L 733.316406 728.640625 L 732.808594 728.660156 L 732.769531 728.660156 L 732 728.671875 L 731.96875 728.671875 L 731.675781 728.679688 L 78.023438 728.679688 L 77.730469 728.671875 L 77.699219 728.671875 L 76.929688 728.660156 L 76.886719 728.660156 L 76.382812 728.640625 L 76.050781 728.632812 L 75.839844 728.625 L 75.292969 728.597656 L 75.21875 728.597656 L 74.75 728.570312 L 74.386719 728.546875 L 74.210938 728.535156 L 73.667969 728.496094 L 73.558594 728.488281 L 73.128906 728.453125 L 72.734375 728.421875 L 72.589844 728.40625 L 72.058594 728.355469 L 71.914062 728.34375 L 71.519531 728.296875 L 71.476562 728.292969 C 56.320312 726.648438 42.695312 719.777344 32.453125 709.535156 C 20.636719 697.714844 13.308594 681.402344 13.308594 663.421875 L 13.308594 330.085938 C 13.308594 318.675781 16.054688 307.980469 21.257812 298.542969 C 23.707031 294.089844 26.699219 289.949219 30.195312 286.167969 L 30.375 285.972656 L 30.453125 285.890625 L 30.5625 285.773438 L 30.738281 285.582031 L 30.800781 285.519531 L 30.917969 285.398438 L 31.101562 285.207031 L 31.152344 285.148438 L 31.277344 285.023438 L 31.457031 284.835938 L 31.511719 284.78125 L 31.640625 284.648438 L 31.828125 284.460938 L 31.875 284.417969 L 32.007812 284.28125 L 32.195312 284.09375 L 32.238281 284.054688 L 32.382812 283.910156 L 32.945312 283.363281 L 32.972656 283.335938 L 33.136719 283.179688 L 33.324219 283 L 33.347656 282.980469 C 33.722656 282.628906 34.101562 282.277344 34.488281 281.933594 L 34.492188 281.929688 C 35.386719 281.125 36.308594 280.335938 37.265625 279.570312 L 37.328125 279.523438 L 37.671875 279.246094 L 37.746094 279.1875 L 38.808594 278.363281 L 38.921875 278.28125 L 39.023438 278.203125 L 39.238281 278.042969 L 39.339844 277.964844 L 39.453125 277.878906 L 39.671875 277.71875 L 39.765625 277.648438 L 39.894531 277.558594 L 40.109375 277.402344 L 40.195312 277.34375 L 40.332031 277.242188 L 40.554688 277.085938 L 40.625 277.035156 L 40.773438 276.925781 L 40.996094 276.773438 L 41.058594 276.726562 L 41.21875 276.617188 L 41.445312 276.460938 L 41.5 276.421875 L 41.898438 276.152344 L 41.941406 276.125 L 42.121094 276.003906 L 42.347656 275.847656 L 42.386719 275.828125 L 42.578125 275.699219 L 42.804688 275.546875 L 42.832031 275.53125 L 43.035156 275.398438 L 43.273438 275.246094 L 43.28125 275.238281 L 43.503906 275.097656 Z M 143.273438 245.289062 L 58.726562 298.765625 L 58.640625 298.8125 L 58.476562 298.921875 L 58.464844 298.925781 L 58.390625 298.972656 L 58.3125 299.027344 L 58.230469 299.082031 L 58.207031 299.09375 L 57.984375 299.242188 L 57.953125 299.261719 L 57.902344 299.292969 L 57.824219 299.351562 L 57.742188 299.40625 L 57.699219 299.433594 L 57.578125 299.515625 L 57.496094 299.570312 L 57.445312 299.605469 L 57.414062 299.625 L 57.339844 299.683594 L 57.257812 299.738281 L 57.195312 299.777344 L 57.175781 299.789062 L 57.097656 299.84375 L 57.015625 299.902344 L 56.949219 299.953125 L 56.941406 299.957031 L 56.859375 300.015625 L 56.78125 300.070312 L 56.699219 300.125 L 56.699219 300.128906 L 56.625 300.183594 L 56.542969 300.238281 L 56.464844 300.296875 L 56.457031 300.304688 L 56.390625 300.355469 L 56.3125 300.410156 L 56.230469 300.46875 L 56.210938 300.484375 L 56.15625 300.527344 L 56.078125 300.585938 L 55.621094 300.933594 L 55.542969 300.992188 L 55.390625 301.113281 L 55.3125 301.171875 L 55.164062 301.289062 L 55.089844 301.351562 L 55.027344 301.402344 L 55.015625 301.410156 L 54.941406 301.46875 L 54.863281 301.53125 L 54.5 301.835938 L 54.421875 301.894531 L 54.347656 301.957031 L 54.335938 301.964844 L 54.277344 302.015625 L 53.769531 302.449219 L 143.273438 359.058594 Z M 666.421875 359.058594 L 755.925781 302.449219 L 755.855469 302.386719 L 755.816406 302.351562 L 755.78125 302.324219 L 755.710938 302.265625 L 755.636719 302.203125 L 755.589844 302.15625 L 755.566406 302.136719 L 755.492188 302.078125 L 755.421875 302.015625 L 755.363281 301.964844 L 755.347656 301.953125 L 755.277344 301.894531 L 755.203125 301.832031 L 755.136719 301.777344 L 755.125 301.773438 L 755.054688 301.707031 L 754.90625 301.589844 L 754.90625 301.585938 L 754.832031 301.527344 L 754.761719 301.46875 L 754.683594 301.410156 L 754.675781 301.394531 L 754.609375 301.347656 L 754.535156 301.289062 L 754.457031 301.230469 L 754.4375 301.214844 L 754.386719 301.171875 L 754.308594 301.113281 L 754.230469 301.050781 L 754.203125 301.03125 L 754.152344 300.992188 L 754.082031 300.933594 L 754.003906 300.875 L 753.964844 300.84375 L 753.929688 300.816406 L 753.773438 300.699219 L 753.722656 300.664062 L 753.699219 300.640625 L 753.621094 300.585938 L 753.542969 300.527344 L 753.484375 300.484375 L 753.460938 300.46875 L 753.386719 300.410156 L 753.308594 300.351562 L 753.242188 300.304688 L 753.230469 300.296875 L 753.15625 300.238281 L 753.074219 300.183594 L 752.996094 300.125 L 752.914062 300.070312 L 752.835938 300.011719 L 752.746094 299.953125 L 752.679688 299.902344 L 752.597656 299.84375 L 752.519531 299.789062 L 752.5 299.777344 L 752.441406 299.734375 L 752.359375 299.675781 L 752.277344 299.625 L 752.25 299.605469 L 752.199219 299.570312 L 752.035156 299.460938 L 752 299.433594 L 751.957031 299.40625 L 751.875 299.351562 L 751.792969 299.292969 L 751.742188 299.261719 L 751.710938 299.242188 L 751.546875 299.132812 L 751.484375 299.09375 L 751.46875 299.082031 L 751.304688 298.972656 L 751.230469 298.925781 L 751.21875 298.921875 L 751.054688 298.8125 L 750.96875 298.765625 L 666.421875 245.289062 Z M 345.273438 117.542969 L 464.429688 117.542969 L 424.691406 92.414062 C 418.472656 88.476562 411.648438 86.507812 404.847656 86.507812 C 398.050781 86.507812 391.230469 88.480469 385.003906 92.414062 Z M 660.742188 395.941406 C 660.160156 396.375 659.546875 396.765625 658.898438 397.101562 L 499.164062 498.128906 L 767.878906 668.070312 C 768.066406 666.542969 768.167969 664.996094 768.167969 663.421875 L 768.167969 330.085938 C 768.167969 329.394531 768.148438 328.710938 768.117188 328.035156 Z M 513.058594 145.761719 L 171.496094 145.761719 L 171.496094 376.902344 L 382.066406 510.074219 C 389.207031 514.59375 397.042969 516.851562 404.847656 516.851562 C 412.660156 516.851562 420.488281 514.59375 427.632812 510.074219 L 638.203125 376.902344 L 638.203125 145.761719 Z M 41.820312 668.0625 L 310.535156 498.128906 L 149.894531 396.535156 L 149.695312 396.40625 L 41.578125 328.035156 C 41.546875 328.707031 41.53125 329.394531 41.53125 330.085938 L 41.53125 663.421875 C 41.53125 664.992188 41.628906 666.542969 41.820312 668.0625 Z M 336.855469 514.773438 L 55.75 692.550781 C 61.117188 696.769531 67.660156 699.539062 74.792969 700.269531 L 74.867188 700.277344 L 75.257812 700.3125 L 75.476562 700.332031 L 75.730469 700.355469 L 75.785156 700.359375 L 76.09375 700.382812 L 76.199219 700.386719 L 76.398438 700.398438 L 76.671875 700.414062 L 76.707031 700.414062 L 77.015625 700.429688 L 77.140625 700.433594 L 77.328125 700.441406 L 77.617188 700.449219 L 77.632812 700.449219 L 77.945312 700.453125 L 78.089844 700.457031 L 78.257812 700.457031 L 78.570312 700.460938 L 731.125 700.460938 L 731.4375 700.457031 L 731.601562 700.457031 L 731.75 700.453125 L 732.0625 700.449219 L 732.082031 700.449219 L 732.371094 700.441406 L 732.550781 700.433594 L 732.683594 700.429688 L 732.992188 700.414062 L 733.027344 700.414062 L 733.296875 700.398438 L 733.496094 700.386719 L 733.605469 700.382812 L 733.914062 700.359375 L 733.96875 700.355469 L 734.222656 700.332031 L 734.433594 700.3125 L 734.832031 700.277344 L 734.902344 700.269531 C 742.03125 699.535156 748.578125 696.765625 753.945312 692.550781 L 472.84375 514.773438 L 442.621094 533.886719 C 430.835938 541.34375 417.847656 545.070312 404.847656 545.070312 C 391.847656 545.070312 378.867188 541.34375 367.074219 533.886719 Z M 336.855469 514.773438 "/></g><path style=" stroke:none;fill-rule:nonzero;fill:#ffffff;fill-opacity:1;" d="M 487.605469 365.644531 L 511.105469 365.644531 C 503.773438 380.648438 492.496094 392.375 477.265625 400.875 C 459.894531 410.613281 438.652344 415.5 413.609375 415.5 C 389.355469 415.5 368.449219 411.40625 350.820312 403.207031 C 333.183594 394.972656 320.0625 382.863281 311.488281 366.886719 C 302.882812 350.867188 298.59375 333.460938 298.59375 314.585938 C 298.59375 293.90625 303.484375 274.65625 313.257812 256.796875 C 322.996094 238.972656 336.378906 225.585938 353.339844 216.640625 C 370.296875 207.6875 389.695312 203.214844 411.503906 203.214844 C 430.003906 203.214844 446.472656 206.824219 460.832031 214.007812 C 475.234375 221.226562 486.25 231.453125 493.847656 244.726562 C 501.441406 257.996094 505.238281 272.476562 505.238281 288.1875 C 505.238281 306.949219 499.488281 323.871094 487.941406 339.023438 C 473.503906 358.125 454.964844 367.675781 432.371094 367.675781 C 426.28125 367.675781 421.691406 366.621094 418.609375 364.519531 C 415.527344 362.375 413.496094 359.289062 412.441406 355.191406 C 403.792969 363.5 393.792969 367.675781 382.511719 367.675781 C 370.332031 367.675781 360.21875 363.464844 352.171875 355.078125 C 344.125 346.65625 340.101562 335.488281 340.101562 321.542969 C 340.101562 304.28125 344.953125 288.570312 354.613281 274.316406 C 366.382812 256.984375 381.425781 248.335938 399.773438 248.335938 C 412.820312 248.335938 422.484375 253.335938 428.6875 263.339844 L 431.433594 251.039062 L 460.496094 251.039062 L 443.839844 329.925781 C 442.820312 334.925781 442.296875 338.160156 442.296875 339.625 C 442.296875 341.429688 442.710938 342.820312 443.578125 343.726562 C 444.40625 344.664062 445.417969 345.117188 446.585938 345.117188 C 450.117188 345.117188 454.667969 342.972656 460.265625 338.722656 C 467.753906 333.160156 473.804688 325.636719 478.429688 316.277344 C 483.054688 306.878906 485.386719 297.140625 485.386719 287.0625 C 485.386719 269.015625 478.84375 253.902344 465.792969 241.757812 C 452.714844 229.609375 434.476562 223.519531 411.054688 223.519531 C 391.160156 223.519531 374.28125 227.582031 360.445312 235.703125 C 346.609375 243.859375 336.191406 255.292969 329.199219 270.070312 C 322.167969 284.804688 318.671875 300.183594 318.671875 316.164062 C 318.671875 331.691406 322.582031 345.792969 330.402344 358.539062 C 338.222656 371.285156 349.199219 380.570312 363.339844 386.4375 C 377.4375 392.261719 393.605469 395.195312 411.839844 395.195312 C 429.363281 395.195312 444.476562 392.714844 457.074219 387.789062 C 469.707031 382.863281 479.898438 375.496094 487.605469 365.644531 Z M 368.753906 320.375 C 368.753906 329.699219 370.636719 336.582031 374.394531 340.980469 C 378.1875 345.375 382.851562 347.597656 388.414062 347.597656 C 392.589844 347.597656 396.503906 346.582031 400.148438 344.515625 C 402.929688 343.046875 405.675781 340.714844 408.382812 337.558594 C 412.292969 333.085938 415.640625 326.578125 418.460938 317.96875 C 421.277344 309.394531 422.671875 301.386719 422.671875 293.941406 C 422.671875 285.667969 420.753906 279.277344 416.917969 274.84375 C 413.042969 270.402344 408.195312 268.1875 402.367188 268.1875 C 396.050781 268.1875 390.21875 270.632812 384.882812 275.519531 C 379.546875 280.410156 375.519531 287.367188 372.816406 296.390625 C 370.105469 305.414062 368.753906 313.417969 368.753906 320.375 Z M 368.753906 320.375 "/></g></svg>