<svg xmlns="http://www.w3.org/2000/svg" xmlns:xlink="http://www.w3.org/1999/xlink" width="1080" zoomAndPan="magnify" viewBox="0 0 810 809.999993" height="1080" preserveAspectRatio="xMidYMid meet" version="1.2"><g id="5b3331e529"><path style=" stroke:none;fill-rule:nonzero;fill:#ffffff;fill-opacity:1;" d="M 516.390625 728.996094 C 508.949219 728.996094 501.753906 726.515625 495.800781 721.800781 L 349.664062 607.175781 L 274.734375 712.621094 C 272.503906 715.847656 268.535156 716.839844 265.058594 715.597656 C 261.585938 714.109375 259.351562 710.636719 259.847656 706.914062 L 282.921875 510.910156 C 283.171875 508.675781 284.164062 506.691406 285.902344 505.453125 L 552.121094 286.871094 L 248.1875 449.875 L 248.1875 583.855469 C 248.1875 587.824219 245.210938 591.296875 241.488281 592.042969 C 237.519531 592.785156 233.550781 590.550781 232.0625 586.832031 L 171.769531 430.523438 L 24.890625 353.363281 C 12.488281 346.910156 5.539062 333.511719 7.027344 319.621094 C 8.765625 305.726562 18.441406 294.3125 32.085938 290.839844 L 758.792969 106.992188 C 771.445312 103.765625 784.347656 107.984375 792.785156 117.910156 C 801.21875 127.832031 802.957031 141.476562 797.746094 153.386719 L 547.15625 708.898438 C 542.941406 718.328125 534.503906 725.273438 524.578125 727.757812 C 521.851562 728.75 519.121094 728.996094 516.390625 728.996094 Z M 347.925781 586.832031 C 349.664062 586.832031 351.648438 587.328125 353.136719 588.566406 L 505.972656 708.652344 C 510.191406 711.878906 515.398438 713.117188 520.363281 711.878906 C 525.574219 710.636719 529.542969 707.164062 531.773438 702.449219 L 782.363281 146.9375 C 785.09375 140.980469 784.101562 134.285156 779.882812 129.074219 C 775.664062 123.863281 769.214844 121.878906 762.761719 123.613281 L 36.058594 307.460938 C 27.621094 309.449219 24.148438 316.394531 23.402344 321.851562 C 22.660156 327.558594 24.644531 334.753906 32.335938 338.722656 L 181.945312 417.125 C 183.679688 418.117188 185.167969 419.605469 185.914062 421.59375 L 231.316406 538.945312 L 231.316406 444.914062 C 231.316406 441.9375 233.054688 438.960938 235.78125 437.46875 L 619.355469 231.292969 C 623.078125 229.308594 627.792969 230.300781 630.273438 234.023438 C 632.753906 237.496094 632.011719 242.457031 628.535156 245.1875 L 298.554688 516.121094 L 279.699219 676.398438 L 340.980469 590.554688 C 342.222656 588.816406 344.207031 587.574219 346.6875 587.078125 C 347.183594 586.832031 347.429688 586.832031 347.925781 586.832031 Z M 347.925781 586.832031 "/></g></svg>