<svg xmlns="http://www.w3.org/2000/svg" xmlns:xlink="http://www.w3.org/1999/xlink" width="1080" zoomAndPan="magnify" viewBox="0 0 810 809.999993" height="1080" preserveAspectRatio="xMidYMid meet" version="1.2"><defs><clipPath id="84fe0df95b"><path d="M 7.890625 29 L 802.140625 29 L 802.140625 781 L 7.890625 781 Z M 7.890625 29 "/></clipPath></defs><g id="a6761f093b"><g clip-rule="nonzero" clip-path="url(#84fe0df95b)"><path style=" stroke:none;fill-rule:nonzero;fill:#fffffe;fill-opacity:1;" d="M 740.613281 600.171875 C 702.734375 562.289062 650.4375 538.765625 592.945312 538.765625 L 520.640625 538.765625 C 520.660156 537.8125 520.71875 536.859375 520.71875 535.90625 L 520.71875 501.203125 C 523.855469 498.480469 526.894531 495.644531 529.832031 492.703125 C 538.765625 483.769531 546.765625 473.863281 553.65625 463.203125 C 589.847656 459.054688 618.117188 446.425781 625.34375 412.816406 C 636.839844 410.550781 647.125 404.875 655.105469 396.894531 C 665.605469 386.390625 672.140625 371.878906 672.140625 355.9375 L 672.140625 291.671875 C 672.140625 275.710938 665.605469 261.214844 655.105469 250.714844 L 654.289062 249.960938 C 647.363281 243.289062 638.804688 238.347656 629.316406 235.726562 C 629.335938 235.488281 629.355469 235.269531 629.355469 235.03125 C 629.355469 178.230469 604.636719 126.652344 564.8125 89.289062 C 525.164062 52.101562 470.589844 29.035156 410.613281 29.035156 L 399.316406 29.035156 C 339.339844 29.035156 284.761719 52.101562 245.136719 89.289062 C 205.3125 126.652344 180.59375 178.230469 180.59375 235.03125 C 180.59375 235.269531 180.613281 235.488281 180.632812 235.726562 C 170.804688 238.425781 161.972656 243.648438 154.902344 250.695312 L 154.84375 250.753906 C 144.339844 261.277344 137.808594 275.769531 137.808594 291.671875 L 137.808594 355.9375 C 137.808594 371.460938 144.023438 385.617188 154.089844 396.078125 L 154.84375 396.894531 C 165.347656 407.394531 179.839844 413.925781 195.800781 413.925781 C 209.222656 413.925781 221.589844 409.300781 231.4375 401.597656 C 238.308594 436.757812 255.660156 468.285156 280.097656 492.726562 C 284.683594 497.3125 289.507812 501.617188 294.570312 505.6875 L 294.570312 535.945312 C 294.570312 536.898438 294.609375 537.851562 294.648438 538.804688 L 216.984375 538.804688 C 159.46875 538.804688 107.195312 562.332031 69.316406 600.210938 C 31.417969 638.050781 7.890625 690.34375 7.890625 747.839844 L 7.890625 768.050781 C 7.890625 775.117188 13.628906 780.855469 20.695312 780.855469 L 789.214844 780.855469 C 796.28125 780.855469 802.019531 775.117188 802.019531 768.050781 L 802.019531 747.839844 C 802.019531 690.34375 778.492188 638.050781 740.613281 600.171875 Z M 568.804688 434 C 573.011719 423.636719 576.289062 412.777344 578.472656 401.558594 C 584.367188 406.183594 591.199219 409.699219 598.601562 411.761719 C 593.738281 423.058594 583.078125 429.929688 568.804688 434 Z M 636.960938 268.800781 C 642.835938 274.675781 646.488281 282.757812 646.488281 291.652344 L 646.488281 355.917969 C 646.488281 364.8125 642.835938 372.910156 636.960938 378.765625 C 631.082031 384.644531 622.980469 388.296875 614.089844 388.296875 C 605.195312 388.296875 597.09375 384.644531 591.238281 378.765625 L 591.175781 378.765625 C 585.339844 372.929688 581.707031 364.832031 581.707031 355.917969 L 581.707031 291.652344 C 581.707031 282.71875 585.339844 274.636719 591.175781 268.800781 L 591.238281 268.742188 C 597.074219 262.902344 605.175781 259.269531 614.109375 259.269531 C 622.742188 259.269531 630.625 262.664062 636.402344 268.183594 Z M 262.625 107.890625 C 297.648438 75.035156 346.011719 54.644531 399.296875 54.644531 L 410.59375 54.644531 C 463.859375 54.644531 512.242188 75.035156 547.261719 107.890625 C 581.984375 140.46875 603.585938 185.335938 603.683594 234.632812 C 595.347656 236.160156 587.625 239.496094 580.914062 244.222656 C 576.941406 202.210938 558.121094 164.351562 529.792969 136.023438 C 497.769531 104 453.554688 84.105469 404.933594 84.105469 C 356.3125 84.105469 312.101562 104 280.078125 136.023438 C 251.746094 164.351562 232.925781 202.210938 228.957031 244.222656 C 222.246094 239.496094 214.523438 236.160156 206.183594 234.632812 C 206.324219 185.335938 227.902344 140.46875 262.625 107.890625 Z M 554.945312 242.476562 C 524.769531 242.355469 495.78125 238.484375 468.046875 230.902344 C 436.28125 222.203125 405.96875 208.546875 377.140625 189.945312 C 372.195312 186.765625 365.507812 187.34375 361.199219 191.691406 C 348.433594 204.476562 332.054688 215.136719 312.042969 223.65625 C 295.5625 230.664062 276.601562 236.183594 255.261719 240.269531 C 259.867188 206.898438 275.433594 176.898438 298.222656 154.109375 C 325.621094 126.710938 363.421875 109.695312 404.972656 109.695312 C 446.527344 109.695312 484.328125 126.710938 511.726562 154.109375 C 534.992188 177.394531 550.738281 208.226562 554.945312 242.476562 Z M 195.800781 388.296875 C 186.90625 388.296875 178.804688 384.644531 172.949219 378.765625 L 172.355469 378.210938 C 166.835938 372.414062 163.441406 364.550781 163.441406 355.917969 L 163.441406 291.652344 C 163.441406 282.71875 167.074219 274.636719 172.910156 268.800781 L 172.96875 268.742188 C 178.804688 262.902344 186.90625 259.269531 195.839844 259.269531 C 204.773438 259.269531 212.855469 262.902344 218.691406 268.742188 L 218.691406 268.800781 C 224.566406 274.675781 228.222656 282.757812 228.222656 291.652344 L 228.222656 355.917969 C 228.222656 364.8125 224.566406 372.910156 218.691406 378.765625 C 212.796875 384.644531 204.695312 388.296875 195.800781 388.296875 Z M 253.792969 367.847656 L 253.792969 266.558594 C 279.460938 262.050781 302.214844 255.597656 322.007812 247.160156 C 341.382812 238.921875 357.960938 228.757812 371.761719 216.726562 C 400.167969 233.996094 430.027344 246.941406 461.335938 255.5 C 491.671875 263.796875 523.257812 267.964844 556.117188 267.988281 L 556.117188 367.828125 C 556.117188 393.417969 549.644531 417.5625 538.308594 438.742188 C 518.632812 440.054688 496.300781 439.242188 474.320312 438.40625 L 469.835938 438.246094 C 467.828125 431.675781 464.296875 425.78125 459.648438 421.015625 C 452.125 413.3125 441.722656 408.527344 430.289062 408.527344 C 418.851562 408.527344 408.449219 413.292969 400.925781 421.015625 C 393.5 428.617188 388.894531 439.101562 388.894531 450.636719 C 388.894531 462.171875 393.5 472.652344 400.925781 480.257812 C 408.449219 487.960938 418.851562 492.746094 430.289062 492.746094 C 441.722656 492.746094 452.125 487.980469 459.648438 480.257812 C 464.117188 475.671875 467.53125 470.050781 469.578125 463.796875 L 473.429688 463.9375 C 489.230469 464.535156 505.171875 465.128906 520.5 465.011719 C 517.699219 468.324219 514.78125 471.542969 511.726562 474.617188 C 484.328125 502.015625 446.527344 519.03125 404.972656 519.03125 C 379.742188 519.03125 355.917969 512.738281 334.953125 501.679688 C 328.003906 497.90625 321.390625 493.578125 315.199219 488.773438 C 314.363281 488.140625 313.472656 487.621094 312.558594 487.207031 C 307.535156 483.292969 302.730469 479.105469 298.222656 474.617188 C 270.804688 447.203125 253.792969 409.402344 253.792969 367.847656 Z M 446.050781 450.636719 C 446.050781 455.28125 444.242188 459.472656 441.324219 462.449219 C 438.507812 465.347656 434.574219 467.132812 430.246094 467.132812 C 425.917969 467.132812 421.988281 465.347656 419.167969 462.449219 C 416.25 459.472656 414.445312 455.28125 414.445312 450.636719 C 414.445312 445.992188 416.25 441.800781 419.167969 438.824219 C 421.988281 435.925781 425.917969 434.136719 430.246094 434.136719 C 434.574219 434.136719 438.507812 435.925781 441.324219 438.824219 C 444.242188 441.800781 446.050781 445.992188 446.050781 450.636719 Z M 332.550781 529.015625 C 337.75 531.417969 343.070312 533.601562 348.53125 535.46875 C 364.8125 541.066406 382.203125 544.203125 400.230469 544.542969 C 400.40625 544.542969 400.585938 544.542969 400.765625 544.5625 C 401.617188 544.582031 402.453125 544.621094 403.308594 544.621094 L 411.921875 544.621094 C 431.042969 544.621094 449.484375 541.40625 466.71875 535.488281 C 476.585938 532.09375 486.074219 527.785156 495.066406 522.683594 L 495.066406 535.90625 C 495.066406 559.214844 485.519531 580.398438 470.152344 595.761719 C 454.785156 611.128906 433.582031 620.679688 410.296875 620.679688 L 404.953125 620.679688 C 381.648438 620.679688 360.464844 611.128906 345.097656 595.761719 C 329.730469 580.398438 320.179688 559.195312 320.179688 535.90625 L 320.179688 522.824219 C 324.210938 525.027344 328.339844 527.109375 332.550781 529.015625 Z M 33.5 747.839844 C 33.5 697.390625 54.148438 651.53125 87.402344 618.257812 C 120.65625 585.003906 166.539062 564.355469 216.984375 564.355469 L 298.34375 564.355469 C 303.445312 583.335938 313.472656 600.328125 326.992188 613.847656 C 344.125 630.984375 366.875 642.539062 392.148438 645.496094 L 392.148438 755.222656 L 33.5 755.222656 Z M 776.40625 755.242188 L 417.761719 755.242188 L 417.761719 646.011719 C 445.175781 644.164062 469.933594 632.234375 488.277344 613.867188 C 501.796875 600.347656 511.824219 583.335938 516.925781 564.375 L 592.925781 564.375 C 643.371094 564.375 689.234375 585.023438 722.488281 618.277344 C 755.742188 651.53125 776.386719 697.410156 776.386719 747.859375 L 776.386719 755.242188 Z M 776.40625 755.242188 "/></g></g></svg>